<svg width="70" height="15" viewBox="0 0 70 15" xmlns="http://www.w3.org/2000/svg"><g id="Page-1" fill="none" fill-rule="evenodd"><g id="Desktop" transform="translate(-123 -2728)" fill="#23232B"><g id="Group-15" transform="translate(122 2714)"><g id="Group-13" transform="translate(0 14)"><path d="M11.168 3.612c0-.024-.011-.036-.035-.036-.012 0-.042.018-.09.054l-.072.036c-.203.095-.495.209-.878.34-.298.108-.501.185-.609.233a.295.295 0 0 0-.018-.09v-.053c0-.096.09-.167.269-.215a2.27 2.27 0 0 0 .43-.143c.131-.06.269-.156.412-.287v-.018l.018-.018c0-.024-.018-.036-.054-.036a4.352 4.352 0 0 1-.412-.107c-.239-.072-.394-.108-.466-.108a.973.973 0 0 0-.304.072.586.586 0 0 1-.144.036l-.161-.34a8.46 8.46 0 0 1-.824-.055 5.998 5.998 0 0 1-.735-.107c.215-.418.323-.848.323-1.29a10.316 10.316 0 0 0-.717-.197 5.59 5.59 0 0 0-.475-.108 2.032 2.032 0 0 0-.331-.036.596.596 0 0 0-.359.135c-.12.09-.263.224-.43.403a4.554 4.554 0 0 1-.636.546 1.078 1.078 0 0 1-.618.189c-.203.298-.305.609-.305.931 0 .132.018.275.054.43-.25.538-.597 1.23-1.04 2.079-.501.98-.856 1.72-1.066 2.222-.209.502-.32.967-.331 1.398 0 1.266.31 2.177.932 2.732.621.556 1.481.833 2.58.833.49 0 1.048-.09 1.675-.268.628-.18 1.323-.419 2.088-.717a.938.938 0 0 0 .502-.394.314.314 0 0 0 .036-.09c0-.024-.012-.036-.036-.036h-.054c-.012.012-.024.018-.036.018-.657.227-1.174.403-1.55.529-.376.125-.72.23-1.03.313a1.636 1.636 0 0 1-.484.072c-.203 0-.376-.036-.52-.108a69.401 69.401 0 0 0 1.568-.42c.532-.15 1.013-.296 1.443-.44.048-.012.071-.03.071-.053l-.017-.018h-.018a3.423 3.423 0 0 0-.18-.108 2.951 2.951 0 0 1-.25-.161l1.218-.448c.012 0 .024-.006.036-.018.095-.048.176-.093.242-.134.065-.042.098-.087.098-.135-.012-.024-.03-.036-.053-.036H9.77l-.036.018-.681.215c-.717.24-1.251.412-1.604.52-.352.107-.737.221-1.155.34H6.24c-.06 0-.144-.047-.251-.143-.108-.12-.21-.18-.305-.18 0 .049-.033.096-.098.144a.324.324 0 0 1-.188.072l-.108-.18c-.406.096-.74.144-1.003.144-.383 0-.687-.084-.914-.25 0-.108.027-.3.08-.574.054-.275.123-.556.206-.842.084-.287.18-.54.287-.762.108-.22.215-.355.323-.403.203-.096.498-.191.887-.287.388-.095.788-.185 1.2-.269a82.45 82.45 0 0 1 2.482-.43.295.295 0 0 1 .09-.018l.125-.394a.357.357 0 0 1-.215-.34v-.054a.159.159 0 0 0 .018-.072c-.191-.334-.352-.555-.484-.663-.131-.107-.322-.16-.573-.16-.12 0-.287.029-.502.089-.215.06-.484.137-.806.233-.383.12-.675.206-.878.26a3.052 3.052 0 0 1-.538.098c.18-.299.412-.675.699-1.129a.877.877 0 0 1 .054-.09c.406-.119 1.01-.25 1.81-.394a29.82 29.82 0 0 0 1.71-.367 8.313 8.313 0 0 0 1.354-.475c.035-.024.095-.06.179-.107.19-.12.286-.227.286-.323zm-1.487-.054l-.322.144-.054-.215h.054a.293.293 0 0 1 .071-.018c.156 0 .24.03.251.09zM3.445 8.952c.036-.18.15-.269.34-.269a1.9 1.9 0 0 1-.232.358 1.048 1.048 0 0 1-.09.108h-.018v-.197zm-.179 1.523l-.09.484c-.071-.06-.107-.155-.107-.287 0-.084.018-.209.054-.376l.143.179zm5.376-.108c0-.011.006-.023.018-.035v-.018c0-.024-.012-.036-.036-.036l-.018.018h-.018c-.346.143-.717.278-1.11.403-.395.125-.795.23-1.201.314.071.107.179.16.322.16.144 0 .305-.041.484-.125.18-.083.358-.19.538-.322.215 0 .415-.033.6-.099a.997.997 0 0 0 .42-.26zm-3.118-5.07l-.305.501-.233.054.305-.502.233-.054zm-.645.806l-.18.412-.232.036a.69.69 0 0 1 .179-.296c.096-.101.173-.152.233-.152zm-1.29 3.154l-.251.842-.125-.162.197-.663.179-.017zM20.538 2.59a.309.309 0 0 0 .107-.251c0-.167-.131-.344-.394-.529a2.648 2.648 0 0 0-.986-.403l.162-.287h-.054a.138.138 0 0 0-.054-.018.519.519 0 0 0-.286.081 1.662 1.662 0 0 0-.27.224c-.07.072-.125.12-.16.143v-.25h-.287c-.287.262-.606.576-.959.94-.352.365-.785.822-1.299 1.371-.645.67-1.093 1.135-1.344 1.398l-.143-.09.107-.269c.012-.262.066-.597.162-1.003.095-.406.215-.753.358-1.04L15 2.233a.663.663 0 0 1-.278-.09 1.238 1.238 0 0 1-.26-.232 2.137 2.137 0 0 0-.43-.368c-.143-.09-.346-.152-.609-.188a3.79 3.79 0 0 0-.108.251c-.167.382-.31.621-.43.717l.305-.968a.172.172 0 0 0-.125-.053c-.084 0-.203.053-.359.16a8.947 8.947 0 0 0-.537 3.065 10.8 10.8 0 0 0 .448 2.992c.012.036.018.06.018.072-.072.084-.198.137-.377.161-.19.275-.478.58-.86.914a.748.748 0 0 1-.134.43c-.09.132-.212.275-.368.43l-.071.072-.968.914-.25-.126c-.18.263-.3.496-.36.7l-.59.555c-.084.215-.132.531-.144.95-.012.202-.024.34-.036.412l.628-.574.035.215-.788.753c-.012.012-.018.024-.018.036l-.018.018a2.543 2.543 0 0 1-.143.125c-.144.12-.215.197-.215.233 0 .024.018.036.054.036.215 0 .427-.075.636-.224.209-.15.463-.368.761-.654.263-.24.475-.421.636-.547.162-.125.314-.194.457-.206l1.308-1.272a.365.365 0 0 1 .27-.108c.07 0 .125.018.16.054l.86-.86c.096.215.257.439.484.672.227.233.538.499.932.797a.193.193 0 0 0-.036.108c0 .095.054.194.161.296.108.101.287.241.538.42.155.12.269.21.34.27a.702.702 0 0 1 .377-.09c.12 0 .25.018.394.054l.753.537c.203.143.465.215.788.215.203 0 .376-.036.52-.107a22.085 22.085 0 0 0-.233-.197 22.416 22.416 0 0 1-.789-.672 24.436 24.436 0 0 1-.636-.6 7.646 7.646 0 0 1-.636-.7 3.9 3.9 0 0 1-.448-.68h-.161a9.94 9.94 0 0 1-.493-1.067c-.137-.352-.206-.66-.206-.922v-.52h.305c.203-.25.525-.538.967-.86l-.215-.072 4.73-4.318zM15.915 7.5l-.144-.054-.43.394h.251l.323-.34zm.501 5.447c-.227-.191-.424-.287-.59-.287a.318.318 0 0 0-.144.036l.43.305.304-.054zm-6.862-.914c0 .203-.084.346-.251.43l-.054-.18.305-.25zM10.7 9.489v-.215c-.012.012-.06.054-.143.126a1.006 1.006 0 0 1-.161.143l.125.126.18-.18zm-.286.287l-.126-.125c-.263.263-.448.46-.555.591l.125.054.556-.52zm16.895-5.59c0-.49-.126-.849-.377-1.076-.25-.227-.633-.376-1.146-.448-.43-.071-1.016-.119-1.756-.143-.036-.191-.126-.454-.27-.788l-.125-.287a1.958 1.958 0 0 1-.537-.161l-.269-.108-.054-.018a1.185 1.185 0 0 0-.34-.054c-.12 0-.215.051-.287.153a3.336 3.336 0 0 0-.269.51c-.19.407-.4.73-.627.968-.227.239-.567.358-1.021.358v.287l-.036.018c-.215.143-.364.269-.448.376l.448.108a1.291 1.291 0 0 1-.269.627 4.36 4.36 0 0 0 .681.627 80.017 80.017 0 0 0-.806 1.774c-.263.597-.532 1.222-.807 1.873-.274.65-.52 1.26-.734 1.827a33.498 33.498 0 0 0-.538 1.515c0 .226.03.471.09.734s.155.49.287.681c.06.084.152.167.277.251.126.084.27.161.43.233.162.072.305.128.43.17.126.042.212.063.26.063a5.29 5.29 0 0 1 .072-.43c.036-.18.066-.31.09-.394l.806-2.348c0-.024-.012-.036-.036-.036a.539.539 0 0 0-.09.018.293.293 0 0 1-.071.018c-.036 0-.054-.012-.054-.036 0-.239.054-.486.161-.743.108-.257.24-.523.394-.798 0-.012.006-.03.018-.053.048-.084.084-.126.108-.126.024 0 .048.042.072.126.011.083.03.125.053.125.024 0 .063-.057.117-.17.054-.114.14-.29.26-.529.167-.382.28-.621.34-.717a.605.605 0 0 0 .305.072c.227 0 .504-.083.833-.25.328-.168.767-.419 1.317-.753.239-.144.454-.275.645-.395l.143.126c.036-.024.138-.096.305-.215.74-.514 1.263-.938 1.568-1.272.304-.335.457-.765.457-1.29zm-1.63 1.684c0 .012.005.024.017.036v.018c0 .071-.06.149-.18.233a5.96 5.96 0 0 1-.5.304c-.084.06-.15.102-.198.126a.238.238 0 0 1-.143.053c-.084 0-.126-.024-.126-.071 0-.012.006-.018.018-.018v-.018l1.111-.663zm-1.81 1.218c-.216.12-.437.233-.664.34a4.45 4.45 0 0 1-.645.252.711.711 0 0 1 .17-.35c.09-.101.189-.152.296-.152h.233c.084 0 .18-.036.287-.108.072-.047.125-.071.161-.071.06 0 .114.03.161.09zm.537-.286l-.305.179c-.012 0-.024.006-.036.018h-.035a.174.174 0 0 1-.09-.036c-.06-.048-.107-.072-.143-.072.071-.107.19-.161.358-.161.12 0 .203.024.25.072zm1.774-1.147c0 .06-.033.11-.099.152a.378.378 0 0 1-.206.063c-.06 0-.09-.018-.09-.054.025-.06.078-.107.162-.143L26 5.637a.193.193 0 0 1 .107-.036c.048 0 .072.018.072.054zm-5.465 4.48c-.048.011-.11.104-.188.277a3.206 3.206 0 0 0-.17.457h.017l.018.018c.024 0 .06-.012.108-.036a.174.174 0 0 1 .09-.036c.011-.035.035-.09.07-.16.049-.12.088-.219.117-.296a.546.546 0 0 0 .045-.17c0-.048-.018-.072-.054-.072-.012 0-.017.006-.017.018h-.036zm14.028-1.219c0-.239-.042-.457-.126-.654a4.755 4.755 0 0 0-.322-.618c-.108-.18-.161-.293-.161-.34.012-.216.041-.434.09-.655.047-.22.113-.469.196-.743v-.018l-.053-.036a.208.208 0 0 1-.054-.036c.06-.036.107-.122.143-.26.036-.137.066-.298.09-.484.024-.185.039-.364.045-.537.005-.173.008-.344.008-.51-.095-.144-.155-.413-.179-.807a4.467 4.467 0 0 0-.107-.744 1.018 1.018 0 0 0-.34-.51h-.019l-.018-.018a.583.583 0 0 0-.16.053.687.687 0 0 1-.216.054c-.071 0-.107-.042-.107-.125l.322-.108a2.458 2.458 0 0 0-.484-.286 4.902 4.902 0 0 0-.52-.215c-.011.095-.053.155-.125.179a1.417 1.417 0 0 1-.304.053c-.12 0-.197.012-.233.036-.406.323-.81.681-1.21 1.075-.4.395-.791.843-1.173 1.344-.275.37-.741.95-1.398 1.738-.502.61-.935 1.147-1.3 1.613-.364.466-.716.953-1.056 1.46-.34.508-.628 1.022-.86 1.542a5.74 5.74 0 0 0-.457 1.514h.286a.318.318 0 0 0-.036.143c0 .12.102.287.305.502.227.239.346.442.358.609l1.13.484c.13-.167.322-.538.573-1.111l.286-.627-.071-.215.09-.233c.226-.156.54-.344.94-.565.4-.22.827-.439 1.281-.654.454-.215.89-.394 1.308-.537.418-.144.753-.215 1.004-.215v.071a.138.138 0 0 1 .018.054.59.59 0 0 1-.036.18 1.654 1.654 0 0 0-.018.232l-.305-.376-.09.555a4.207 4.207 0 0 1-.071.538h.036c0 .012.006.018.018.018.06 0 .101-.045.125-.135.024-.09.042-.224.054-.403v-.071l.215.09a4.335 4.335 0 0 1-.152.743c-.078.269-.147.403-.206.403v-.108a.49.49 0 0 0 .018-.107c0-.191-.042-.287-.126-.287a7.624 7.624 0 0 1-.18.681c-.107.359-.166.621-.178.789 0 .12.053.179.161.179-.012.12-.072.179-.18.179l-.017.25c.107 0 .182.037.224.108.042.072.063.203.063.395h.035a.138.138 0 0 1 .054-.018c.084 0 .24.06.466.179.335.179.597.269.789.269.107-.323.19-.607.25-.852.06-.244.096-.504.108-.779a.223.223 0 0 1-.161.072c-.012 0-.024-.006-.036-.018.19-.251.286-.46.286-.627a.956.956 0 0 0-.09-.34.733.733 0 0 0 .252-.556c0-.12-.042-.203-.126-.251a.808.808 0 0 0 .233-.385c.048-.162.09-.362.126-.6.036-.24.071-.395.107-.467.084-.012.233-.035.448-.071.227-.036.4-.06.52-.072zM33.29 3.791l-.215 1.022c-.095.442-.179.812-.25 1.11a5.775 5.775 0 0 1-.198.682l-.304-.27c-.012.037-.042.12-.09.252-.12.322-.19.59-.215.806l-.394.107c-.25.06-.466.12-.645.18-.18.06-.382.137-.61.233-.31.131-.638.34-.985.627-.155.12-.275.209-.358.269.095-.144.257-.383.484-.717.37-.55.615-.902.734-1.057.24-.287.49-.61.753-.968a.604.604 0 0 1-.072-.269c0-.131.108-.316.323-.555a.122.122 0 0 1 .035.09.697.697 0 0 1-.053.196l-.018.036.09.09c.453-.61.85-1.1 1.191-1.47.34-.37.588-.56.744-.573l.053.18zm-.86 3.369l-.018.197c-.131 0-.197-.03-.197-.09v-.035a.293.293 0 0 0 .018-.072h.197zm-.018-.107h-.16l.07-.198.072.018.018.18zm-.627 4.372l-.071.286h-.108l.072-.233.107-.053zm-2.526-1.326l-1.362.716.036-.071c.06-.096.113-.18.161-.251l.197-.108c.18-.095.335-.176.466-.242a.788.788 0 0 1 .34-.098c.072 0 .126.018.162.054zm.215-.108c.036-.131.095-.218.179-.26.084-.041.233-.068.448-.08v.018c-.084.047-.215.12-.394.215-.132.06-.21.095-.233.107zm3.583-5.877l-.16.072-.144.483h.161l.143-.555zm-4.784 6.056l.215-.304c.048-.024.114-.048.197-.072a4.9 4.9 0 0 0 .18-.054.455.455 0 0 1-.207.233c-.101.06-.212.12-.331.18-.024 0-.042.005-.054.017zm15.157-4.3l-.107-.072V5.78c0-.024.047-.12.143-.286a6.025 6.025 0 0 1 .287-.43c.334-.502.663-.971.985-1.407.323-.436.693-.857 1.111-1.263l-.376.053c-.096.036-.266.206-.51.511-.246.305-.532.69-.86 1.156a43.386 43.386 0 0 0-2.034 3.225c-.036-.143-.09-.376-.162-.699a25.887 25.887 0 0 0-.233-1.012 5.708 5.708 0 0 0-.215-.69c-.06-.155-.182-.325-.367-.51a5.28 5.28 0 0 0-.636-.538 6.798 6.798 0 0 0-1.255-.726l-.448.448a32.829 32.829 0 0 0-2.5 2.804c-.686.878-1.28 1.927-1.782 3.145a1.39 1.39 0 0 1-.072.18 1.699 1.699 0 0 0-.143.609v.143a.83.83 0 0 1 .018.161l.107.789c.048.023.138.167.269.43.131.274.254.49.367.645.114.155.242.233.386.233h.501c.215-.287.427-.642.636-1.066.21-.425.487-1.025.834-1.801.454-1.04.8-1.78 1.039-2.222l-.054-.287c.227-.406.487-.744.78-1.012.292-.27.582-.451.869-.547l.09.699a.83.83 0 0 0 .017.161v.161c0 .144-.018.347-.054.61a7.92 7.92 0 0 0-.035.645c0 .358.065.734.197 1.129.036.107.053.268.053.483 0 .072-.006.227-.017.466a8.486 8.486 0 0 0-.018.448.77.77 0 0 0 .018.144v.125c.083.657.206 1.111.367 1.362.161.25.51.448 1.048.591l.108-.25.806.376c.012-.024.167-.412.466-1.165.55-1.386.938-2.425 1.165-3.118a.645.645 0 0 1 .179-.215c.095-.072.143-.125.143-.161.036-.084.066-.203.09-.359.024-.143.048-.238.071-.286.072-.12.174-.275.305-.466.191-.263.326-.475.403-.636a1.48 1.48 0 0 0 .135-.565l.018-.018h.035c.012 0 .036.012.072.036a.174.174 0 0 0 .09.036c.024 0 .047-.018.071-.054.215-.298.475-.6.78-.905a12.435 12.435 0 0 1 1.908-1.55c.31-.203.585-.358.824-.465l-.501-.538c-.06.036-.156.075-.287.116a1.084 1.084 0 0 1-.287.063l-.036-.072.359-.25c-.275-.192-.759-.287-1.452-.287-.406.024-.716.101-.931.233-.251.239-.514.52-.789.842-.275.323-.531.642-.77.959-.24.316-.46.618-.663.905-.203.286-.389.561-.556.824zm2.563-.627l-.377.573a.12.12 0 0 1-.053-.107c0-.048.02-.11.062-.189.042-.077.105-.182.188-.313l.054-.072h.018c0-.012.006-.018.018-.018.06 0 .09.042.09.126zm-.359-2.097c.108-.167.21-.292.305-.376l.143.072-.304.394c-.06 0-.108-.03-.144-.09zm2.401-.376c0 .095-.018.167-.053.215a.65.65 0 0 1-.162.143.225.225 0 0 0-.09.054l-.035-.161.34-.251zm-3.494 5.913h-.036c-.012-.012-.024-.018-.036-.018-.06 0-.101.042-.125.126-.024.083-.042.209-.054.376v.018l.162.107.09-.609zm1.917-4.085l-.322.466c-.012-.06-.066-.09-.161-.09l.358-.466c.024-.024.042-.036.054-.036.06 0 .09.03.09.09l-.019.018v.018zm-7.203-.896l-.09.09c-.13.178-.238.268-.322.268a.172.172 0 0 1-.125-.054l.394-.412.143.108zm18.92 1.953a.295.295 0 0 0-.018-.09 6.329 6.329 0 0 0-.107-.752 2.76 2.76 0 0 0-.251-.69 2.067 2.067 0 0 0-.538-.645 2.745 2.745 0 0 0-.914-.475 3.138 3.138 0 0 0-.555-.09c-.275-.036-.448-.077-.52-.125-.06.143-.179.215-.358.215-.096 0-.143-.03-.143-.09 0-.036.011-.077.035-.125a4.027 4.027 0 0 0-.663-.054 8.65 8.65 0 0 0-.86.054c-.298.036-.52.054-.663.054.024-.096.054-.21.09-.34.06-.24.09-.407.09-.503v-.09a.293.293 0 0 1-.018-.07 1.51 1.51 0 0 0-.153-.297c-.09-.149-.182-.298-.278-.447a3.825 3.825 0 0 0-.277-.386c-.09-.107-.153-.161-.188-.161a.674.674 0 0 0-.592.323c-.143.215-.304.555-.484 1.02-.13.311-.253.583-.367.816a2.454 2.454 0 0 1-.403.6l-.18-.125a3.417 3.417 0 0 1-.393.18c-.311.13-.547.253-.708.367-.162.113-.248.247-.26.403 0 .155.101.358.305.609.215.275.322.496.322.663-.012.275-.155.669-.43 1.183-.203.394-.34.704-.412.931l.072.27c-.06.202-.096.346-.108.43-.107.381-.194.683-.26.904a5.521 5.521 0 0 1-.26.69.91.91 0 0 1-.206.323 1.366 1.366 0 0 1-.349.215l-.448.197c-.012.239-.06.466-.143.68.06.072.149.222.268.449.24.394.47.704.69.931.221.227.517.34.887.34.084 0 .203-.011.359-.035a2.15 2.15 0 0 1 .304-.036c.12 0 .227.024.323.072l.161-.986a24.994 24.994 0 0 0 3.297-1.774 26.26 26.26 0 0 0 3.136-2.311l-.323-.072c.418-.334.67-.543.753-.627a.387.387 0 0 1 .287-.108l.053.018h.054l-.269.287a.658.658 0 0 0 .484-.197 5.3 5.3 0 0 0 .493-.582c.173-.233.361-.505.564-.816l.072-.125zm-1.04 1.093l-.143.161-.233-.054.144-.16.233.053zm-.788-2.33v.054l.018.054c0 .155-.042.325-.125.51a2.8 2.8 0 0 1-.314.53c-.125.166-.26.304-.403.411-.143.108-.269.162-.376.162a.138.138 0 0 1-.054-.018h-.036c-.31.358-.555.618-.734.78-.18.16-.317.241-.413.241-.06 0-.12-.048-.179-.143l-.161.107.107.251a.295.295 0 0 0-.09-.018.415.415 0 0 1-.178-.09 5.724 5.724 0 0 1-.914.637c-.347.197-.765.42-1.254.672-.395.19-.67.334-.825.43a4.86 4.86 0 0 1 .269-.932c.131-.31.197-.532.197-.663a.994.994 0 0 0-.125-.376v-.018c.071.06.149.095.233.107.083 0 .125-.113.125-.34 0-.18-.042-.269-.125-.269a.174.174 0 0 0-.09.036v-.018a.828.828 0 0 1 .18-.161c.07-.048.119-.084.143-.108l.018-.555c.155-.048.406-.156.752-.323a12.778 12.778 0 0 1 1.9-.69c.633-.173 1.45-.26 2.454-.26zm-.931 3.728l-.377.268a.243.243 0 0 1-.179.072.363.363 0 0 1-.197-.072l.591-.322.162.054zm-.663.501c-.251.156-.645.418-1.183.789-.729.501-1.29.872-1.684 1.11a.82.82 0 0 0-.413-.125c.132-.12.251-.179.359-.179.06 0 .113.024.161.072.108-.06.173-.162.197-.305.18-.107.472-.287.878-.537a51.8 51.8 0 0 0 .717-.43c.227-.144.41-.248.546-.314a.966.966 0 0 1 .422-.099v.018zm-4.337 2.616c.096-.107.233-.241.412-.403a2.6 2.6 0 0 1 .466-.35v.019a.172.172 0 0 0-.053.125c0 .096.03.155.09.18l-.915.447v-.018zm-.215-.071l-.09.215-.501.269.036-.18.555-.304zm13.204-8.583a.982.982 0 0 0-.188-.574 1.018 1.018 0 0 0-.457-.376v-.43a1.24 1.24 0 0 0-.143-.036 1.603 1.603 0 0 0-.412-.09.692.692 0 0 0-.296.072.692.692 0 0 0-.242.18c-.191.346-.573.985-1.147 1.917a96.138 96.138 0 0 0-1.317 2.168c-.364.621-.71 1.275-1.04 1.962-.328.687-.596 1.37-.805 2.052-.21.68-.314 1.314-.314 1.899.215.561.543 1.01.985 1.344.012-.191.078-.335.198-.43v.573c.274.156.573.287.896.394a.49.49 0 0 0-.018-.107 1.078 1.078 0 0 1-.018-.161c0-.478.143-1.046.43-1.703.12-.286.28-.716.484-1.29.382-1.039.704-1.786.967-2.24l.018-.017c.048-.072.072-.126.072-.162 0-.012-.012-.018-.036-.018h-.018a.293.293 0 0 1-.072.018 3.059 3.059 0 0 0-.501.816c-.144.328-.305.743-.484 1.245-.167.478-.293.812-.377 1.003a2.147 2.147 0 0 1-.098.27c-.042.095-.075.142-.099.142-.071-.023-.107-.065-.107-.125 0-.048.036-.137.107-.269l.054-.107c.084-.215.18-.49.287-.825.203-.573.382-1.039.537-1.397.156-.359.347-.705.574-1.04l.699-.394-.072-.215a1.69 1.69 0 0 0 .6-.564c.162-.245.344-.577.547-.995.19-.394.34-.669.448-.824h.197c.048-.299.086-.594.116-.887.03-.293.045-.552.045-.78zm-4.157 8.726l-.25.627c-.025.048-.055.072-.09.072-.036 0-.054-.042-.054-.126l.197-.483c0-.12.018-.18.054-.18.035 0 .083.03.143.09zm11.77-2.419c0-.239-.041-.457-.125-.654a4.755 4.755 0 0 0-.323-.618c-.107-.18-.16-.293-.16-.34.011-.216.04-.434.089-.655.047-.22.113-.469.197-.743v-.018l-.054-.036a.208.208 0 0 1-.054-.036c.06-.036.108-.122.144-.26.035-.137.065-.298.09-.484.023-.185.038-.364.044-.537.006-.173.009-.344.009-.51-.096-.144-.155-.413-.18-.807a4.467 4.467 0 0 0-.107-.744 1.018 1.018 0 0 0-.34-.51h-.018l-.018-.018a.583.583 0 0 0-.161.053.687.687 0 0 1-.215.054c-.072 0-.108-.042-.108-.125l.323-.108a2.458 2.458 0 0 0-.484-.286 4.902 4.902 0 0 0-.52-.215c-.012.095-.053.155-.125.179a1.417 1.417 0 0 1-.305.053c-.12 0-.197.012-.233.036-.406.323-.81.681-1.21 1.075-.4.395-.79.843-1.173 1.344-.275.37-.74.95-1.398 1.738-.501.61-.934 1.147-1.299 1.613-.364.466-.716.953-1.057 1.46-.34.508-.627 1.022-.86 1.542a5.74 5.74 0 0 0-.457 1.514h.287a.318.318 0 0 0-.036.143c0 .12.101.287.305.502.227.239.346.442.358.609l1.129.484c.131-.167.322-.538.573-1.111l.287-.627-.072-.215.09-.233c.227-.156.54-.344.94-.565.4-.22.828-.439 1.282-.654.454-.215.89-.394 1.308-.537.418-.144.752-.215 1.003-.215v.071a.138.138 0 0 1 .018.054.59.59 0 0 1-.036.18 1.654 1.654 0 0 0-.018.232l-.304-.376-.09.555a4.207 4.207 0 0 1-.071.538h.035c0 .012.006.018.018.018.06 0 .102-.045.126-.135.024-.09.042-.224.053-.403v-.071l.216.09a4.335 4.335 0 0 1-.153.743c-.077.269-.146.403-.206.403v-.108a.49.49 0 0 0 .018-.107c0-.191-.042-.287-.125-.287a7.624 7.624 0 0 1-.18.681c-.107.359-.167.621-.179.789 0 .12.054.179.162.179-.012.12-.072.179-.18.179l-.018.25c.108 0 .183.037.224.108.042.072.063.203.063.395h.036a.138.138 0 0 1 .054-.018c.083 0 .239.06.466.179.334.179.597.269.788.269.108-.323.191-.607.25-.852.06-.244.096-.504.108-.779a.223.223 0 0 1-.16.072c-.013 0-.025-.006-.037-.018.191-.251.287-.46.287-.627a.956.956 0 0 0-.09-.34.733.733 0 0 0 .251-.556c0-.12-.042-.203-.125-.251a.808.808 0 0 0 .233-.385c.048-.162.09-.362.125-.6.036-.24.072-.395.108-.467.083-.012.233-.035.448-.071.227-.036.4-.06.52-.072zm-1.451-5.125c-.036.168-.108.508-.215 1.022-.096.442-.18.812-.251 1.11a5.775 5.775 0 0 1-.197.682l-.305-.27c-.012.037-.042.12-.09.252-.119.322-.19.59-.214.806L67.9 7.5c-.25.06-.465.12-.645.18-.179.06-.382.137-.609.233-.31.131-.639.34-.985.627-.156.12-.275.209-.359.269.096-.144.257-.383.484-.717.37-.55.615-.902.735-1.057.239-.287.49-.61.752-.968a.604.604 0 0 1-.071-.269c0-.131.107-.316.322-.555a.122.122 0 0 1 .036.09.697.697 0 0 1-.054.196l-.018.036.09.09c.454-.61.851-1.1 1.192-1.47.34-.37.588-.56.743-.573l.054.18zm-.86 3.369l-.018.197c-.132 0-.197-.03-.197-.09v-.035a.293.293 0 0 0 .018-.072h.197zm-.018-.107h-.161l.071-.198.072.018.018.18zm-.627 4.372l-.072.286h-.107l.071-.233.108-.053zm-2.527-1.326l-1.362.716.036-.071c.06-.096.114-.18.161-.251l.198-.108c.179-.095.334-.176.465-.242a.788.788 0 0 1 .34-.098c.073 0 .126.018.162.054zm.215-.108c.036-.131.096-.218.18-.26.083-.041.232-.068.447-.08v.018c-.083.047-.215.12-.394.215l-.233.107zm3.584-5.877l-.161.072-.144.483h.162l.143-.555zm-4.784 6.056l.215-.304c.047-.024.113-.048.197-.072a4.9 4.9 0 0 0 .179-.054.455.455 0 0 1-.206.233c-.102.06-.212.12-.332.18-.023 0-.041.005-.053.017z" id="expandia"/></g></g></g></g></svg>