<svg width="16" height="16" viewBox="0 0 16 16" xmlns="http://www.w3.org/2000/svg"><g id="Page-1" fill="none" fill-rule="evenodd"><g id="Home-Copy-3" transform="translate(-313 -2536)" fill="#D9D9D9"><g id="Group-12" transform="translate(215 2467)"><g id="Group-8" transform="translate(0 69)"><g id="Group-7" transform="translate(98)"><path d="M9.953 0H6.202C4.53 0 3.373.372 2.332 1.246c-.819.717-1.308 1.76-1.308 2.79 0 1.585 1.19 3.27 3.397 3.27.212 0 .447-.022.655-.041l-.03.075c-.09.216-.174.42-.174.737 0 .619.294 1 .578 1.369l.036.046-.063.005c-.912.063-2.607.181-3.846.954C.114 11.335 0 12.62 0 12.992c0 1.483 1.36 2.98 4.4 2.98 3.535 0 5.385-1.98 5.385-3.937 0-1.447-.835-2.16-1.722-2.92l-.748-.59c-.231-.194-.52-.436-.52-.885 0-.44.289-.731.543-.988l.026-.027c.808-.646 1.724-1.379 1.724-2.963 0-1.594-.98-2.417-1.452-2.813H8.88c.015 0 .03-.004.043-.012L9.996.152a.083.083 0 0 0 .035-.092.08.08 0 0 0-.078-.06zM5.404 15.099c-2.154 0-3.602-1.022-3.602-2.543 0-.993.592-1.715 1.758-2.144.934-.32 2.14-.335 2.152-.335.204 0 .306 0 .47.02 1.507 1.09 2.232 1.662 2.232 2.752 0 1.388-1.154 2.25-3.01 2.25zm-.02-8.376c-1.808 0-2.559-2.414-2.559-3.706 0-.658.147-1.162.45-1.543A1.885 1.885 0 0 1 4.71.787c1.66 0 2.578 2.266 2.578 3.832 0 .247 0 .999-.511 1.521a2.081 2.081 0 0 1-1.392.583zM15.064 7.173h-1.976v-2a.082.082 0 0 0-.082-.082h-.85a.082.082 0 0 0-.081.082v2h-1.967a.082.082 0 0 0-.081.083v.875c0 .045.036.082.081.082h1.967v2.013c0 .045.036.083.081.083h.85a.082.082 0 0 0 .082-.083V8.213h1.976a.082.082 0 0 0 .081-.083v-.874a.082.082 0 0 0-.08-.083z" id="Shape"/></g></g></g></g></g></svg>