<svg width="28" height="10" viewBox="0 0 28 10" xmlns="http://www.w3.org/2000/svg"><g id="Page-1" fill="none" fill-rule="evenodd"><g id="Desktop" transform="translate(-499 -776)" fill="#E67E22"><path d="M519.06 770.7c0-.447-.137-.867-.413-1.262-.276-.394-.612-.67-1.006-.828v-.946a2.728 2.728 0 0 0-.315-.08c-.421-.13-.723-.196-.907-.196-.21 0-.428.052-.651.157-.224.105-.401.237-.533.395-.42.762-1.261 2.169-2.523 4.22a211.585 211.585 0 0 0-2.9 4.771 57.953 57.953 0 0 0-2.286 4.319 32.745 32.745 0 0 0-1.775 4.515c-.46 1.499-.69 2.892-.69 4.18.473 1.236 1.196 2.222 2.169 2.958.026-.42.17-.736.434-.946v1.262c.604.341 1.262.63 1.971.867 0-.052-.013-.131-.039-.236a2.372 2.372 0 0 1-.04-.355c0-1.052.316-2.3.947-3.747.263-.63.618-1.577 1.065-2.84.841-2.287 1.551-3.93 2.13-4.929l.039-.04c.105-.157.158-.275.158-.354 0-.027-.027-.04-.08-.04h-.039a.645.645 0 0 1-.157.04c-.421.473-.79 1.071-1.105 1.794-.315.723-.67 1.637-1.064 2.74-.369 1.053-.645 1.789-.829 2.21a4.726 4.726 0 0 1-.217.59c-.092.211-.164.316-.216.316-.158-.052-.237-.144-.237-.276 0-.105.079-.302.237-.591l.118-.237c.184-.473.394-1.078.63-1.814a49.889 49.889 0 0 1 1.184-3.076c.342-.789.762-1.551 1.262-2.287l1.538-.868-.158-.473a3.72 3.72 0 0 0 1.321-1.242c.355-.54.756-1.269 1.203-2.19.42-.867.75-1.471.986-1.813h.434c.105-.657.19-1.308.256-1.952.066-.644.099-1.216.099-1.716zm-9.148 19.206l-.553 1.38c-.052.105-.118.158-.197.158-.079 0-.118-.092-.118-.276l.434-1.065c0-.263.04-.394.118-.394.079 0 .184.065.316.197z" id="I" transform="rotate(60 512.06 780.737)"/></g></g></svg>