<svg width="178" height="35" viewBox="0 0 178 35" xmlns="http://www.w3.org/2000/svg"><g id="Page-1" fill="none" fill-rule="evenodd"><g id="Home-Copy-3" transform="translate(-215 -2467)" fill="#D9D9D9"><g id="Group-12" transform="translate(215 2467)"><path d="M24.614 7.824c0-.061-.03-.092-.092-.092-.03 0-.107.046-.23.137l-.183.092c-.52.244-1.27.534-2.25.87-.765.274-1.286.472-1.561.594a.75.75 0 0 0-.046-.229V9.06c0-.244.23-.427.689-.55a5.835 5.835 0 0 0 1.102-.365c.336-.153.688-.397 1.056-.732v-.046l.046-.046c0-.06-.046-.091-.138-.091-.184-.03-.536-.122-1.056-.275-.613-.183-1.01-.274-1.194-.274-.184 0-.444.06-.78.183-.185.06-.307.091-.368.091l-.414-.869c-.52 0-1.224-.046-2.112-.137-.888-.092-1.515-.183-1.883-.275.551-1.067.827-2.165.827-3.294a26.516 26.516 0 0 0-1.837-.503c-.46-.122-.865-.214-1.217-.275a5.227 5.227 0 0 0-.85-.091c-.306 0-.612.114-.918.343-.306.229-.674.572-1.102 1.03-.612.61-1.156 1.075-1.63 1.395a2.77 2.77 0 0 1-1.585.48c-.52.763-.78 1.556-.78 2.38 0 .335.046.7.137 1.097-.643 1.373-1.53 3.142-2.663 5.307-1.286 2.502-2.197 4.393-2.732 5.674-.536 1.28-.82 2.47-.85 3.568 0 3.233.796 5.56 2.388 6.977C3.98 31.18 6.184 31.89 9.001 31.89c1.255 0 2.686-.229 4.293-.686 1.608-.458 3.391-1.068 5.35-1.83.582-.214 1.01-.55 1.286-1.007.061-.122.092-.198.092-.229 0-.06-.03-.091-.092-.091h-.138c-.03.03-.06.046-.091.046-1.684.579-3.008 1.029-3.973 1.35-.964.32-1.844.586-2.64.8a4.207 4.207 0 0 1-1.24.183c-.52 0-.964-.092-1.332-.275 1.317-.335 2.656-.694 4.018-1.075a81.469 81.469 0 0 0 3.697-1.12c.123-.031.184-.077.184-.138l-.046-.046h-.046a8.78 8.78 0 0 0-.46-.274 7.567 7.567 0 0 1-.642-.412l3.123-1.144c.03 0 .06-.015.091-.046.245-.122.452-.236.62-.343.169-.106.253-.22.253-.343-.03-.06-.077-.091-.138-.091h-.138l-.091.045-1.746.55c-1.836.61-3.206 1.052-4.11 1.326-.903.275-1.89.564-2.962.87h-.137c-.153 0-.368-.123-.643-.367-.276-.305-.536-.457-.78-.457 0 .122-.085.244-.253.366-.169.122-.33.183-.483.183l-.275-.458c-1.041.244-1.898.366-2.572.366-.98 0-1.76-.213-2.342-.64 0-.275.069-.763.207-1.464.138-.702.314-1.418.528-2.15.214-.732.46-1.38.735-1.945.275-.564.55-.907.826-1.03.52-.243 1.278-.487 2.273-.731.995-.244 2.021-.473 3.077-.687 1.056-.213 3.176-.58 6.36-1.098a.758.758 0 0 1 .23-.045l.321-1.007c-.367-.183-.55-.473-.55-.87v-.136a.405.405 0 0 0 .045-.183c-.49-.854-.903-1.419-1.24-1.693-.336-.275-.826-.412-1.47-.412-.305 0-.734.076-1.285.229-.551.152-1.24.35-2.066.595-.98.305-1.73.526-2.25.663-.521.137-.98.221-1.378.252.459-.763 1.056-1.724 1.79-2.883.031-.06.077-.137.138-.229 1.041-.305 2.587-.64 4.639-1.006 1.775-.336 3.237-.648 4.385-.938a21.357 21.357 0 0 0 3.467-1.212 8.78 8.78 0 0 1 .46-.275c.49-.305.734-.58.734-.823zm-3.811-.138l-.827.366-.138-.549h.138a.754.754 0 0 1 .184-.045c.398 0 .612.076.643.228zM4.822 21.458c.092-.458.383-.687.872-.687-.091.214-.29.519-.597.915a2.677 2.677 0 0 1-.23.275h-.045v-.503zm-.46 3.888l-.229 1.236c-.184-.153-.276-.397-.276-.732 0-.214.046-.534.138-.961l.368.457zm13.777-.274c0-.03.016-.061.046-.092v-.045c0-.061-.03-.092-.092-.092l-.046.046h-.046c-.887.366-1.836.709-2.847 1.03-1.01.32-2.036.586-3.076.8.183.274.459.412.826.412.368 0 .78-.107 1.24-.32.46-.214.918-.489 1.378-.824.55 0 1.064-.084 1.538-.252.475-.167.834-.389 1.08-.663zm-7.99-12.948l-.78 1.281-.598.137.78-1.28.598-.138zm-1.653 2.059l-.46 1.052-.597.092c.062-.244.215-.496.46-.755.245-.26.444-.389.597-.389zm-3.307 8.052l-.643 2.15-.321-.411.505-1.693.46-.046zm43.437-17.02c.184-.152.275-.365.275-.64 0-.427-.336-.877-1.01-1.35-.673-.472-1.515-.815-2.526-1.029l.414-.732h-.138a.353.353 0 0 0-.138-.046c-.275 0-.52.069-.735.206a4.256 4.256 0 0 0-.688.572 3.205 3.205 0 0 1-.414.366v-.64h-.735a57.911 57.911 0 0 0-2.456 2.402c-.904.93-2.013 2.096-3.33 3.5a1151.67 1151.67 0 0 0-3.444 3.568l-.367-.229.275-.686c.03-.67.169-1.525.414-2.562.244-1.037.55-1.922.918-2.654l-.505-.96a1.703 1.703 0 0 1-.712-.23c-.199-.121-.42-.32-.666-.594a5.471 5.471 0 0 0-1.102-.938c-.367-.229-.888-.389-1.561-.48a9.656 9.656 0 0 0-.276.64c-.428.976-.796 1.586-1.102 1.83l.78-2.47a.441.441 0 0 0-.32-.137c-.215 0-.521.137-.92.411a22.77 22.77 0 0 0-1.377 7.824c0 2.41.368 4.91 1.102 7.503 0 .03.016.076.046.137.03.092.046.153.046.183-.184.214-.505.351-.964.412-.49.702-1.225 1.48-2.204 2.333 0 .397-.115.763-.345 1.099-.23.335-.543.701-.941 1.098l-.184.183-2.48 2.333-.643-.32c-.459.67-.765 1.265-.918 1.784l-1.516 1.418c-.214.55-.336 1.358-.367 2.425-.03.519-.061.87-.092 1.052l1.607-1.464.092.55-2.02 1.92c-.03.031-.046.062-.046.092l-.046.046a6.511 6.511 0 0 1-.367.32c-.368.305-.552.504-.552.595 0 .061.046.092.138.092.551 0 1.095-.19 1.63-.572.536-.381 1.187-.938 1.952-1.67a29.61 29.61 0 0 1 1.63-1.396c.414-.32.804-.495 1.171-.526l3.353-3.248a.936.936 0 0 1 .689-.275c.183 0 .321.046.413.138l2.204-2.196c.245.549.658 1.12 1.24 1.715s1.378 1.274 2.388 2.036a.49.49 0 0 0-.092.275c0 .244.138.495.413.755.276.259.735.617 1.378 1.075.398.305.689.534.873.686.245-.152.566-.229.964-.229.306 0 .643.046 1.01.138l1.929 1.372c.52.366 1.194.55 2.02.55.521 0 .965-.092 1.332-.275-.214-.183-.413-.351-.597-.504a57.39 57.39 0 0 1-2.02-1.715 62.528 62.528 0 0 1-1.63-1.533 19.548 19.548 0 0 1-1.63-1.784c-.49-.61-.873-1.19-1.149-1.739h-.413c-.49-.915-.91-1.822-1.263-2.722-.352-.9-.528-1.685-.528-2.356V18.62h.78c.521-.64 1.348-1.373 2.48-2.196l-.55-.183L48.625 5.216zM36.778 17.753l-.367-.138-1.103 1.007h.643l.827-.87zm1.286 13.908c-.582-.488-1.087-.732-1.516-.732a.818.818 0 0 0-.367.092l1.102.777.78-.137zm-17.588-2.333c0 .518-.215.884-.643 1.098l-.138-.458.78-.64zm2.939-6.497v-.549c-.031.03-.154.137-.368.32-.214.214-.352.336-.413.366l.321.32.46-.457zm-.735.732l-.322-.32c-.673.67-1.148 1.174-1.423 1.51l.321.137 1.424-1.327zM65.979 9.288c0-1.251-.322-2.166-.965-2.746-.643-.579-1.622-.96-2.939-1.143-1.102-.183-2.602-.305-4.5-.366-.092-.488-.322-1.16-.689-2.013a60.56 60.56 0 0 1-.321-.732c-.337-.03-.796-.168-1.378-.412l-.689-.275-.138-.045a3.048 3.048 0 0 0-.872-.138.858.858 0 0 0-.735.39c-.184.258-.413.693-.689 1.303-.49 1.037-1.025 1.86-1.607 2.47-.582.61-1.454.916-2.618.916v.732l-.091.046c-.552.366-.934.686-1.148.96l1.148.275a3.29 3.29 0 0 1-.69 1.601c.184.214.437.473.758.778.322.305.651.58.988.823a203.94 203.94 0 0 0-2.067 4.53 343 343 0 0 0-2.066 4.78 135.803 135.803 0 0 0-1.883 4.668 85.32 85.32 0 0 0-1.378 3.866c0 .58.077 1.204.23 1.875.153.671.398 1.25.735 1.739.153.213.39.427.711.64.322.214.69.412 1.103.595.413.183.78.328 1.102.435.321.107.543.16.666.16.03-.275.091-.64.183-1.098.092-.458.169-.793.23-1.007l2.066-5.993c0-.061-.03-.092-.091-.092-.031 0-.108.016-.23.046a.754.754 0 0 1-.184.046c-.092 0-.138-.03-.138-.092 0-.61.138-1.242.414-1.898.275-.656.612-1.335 1.01-2.036a.35.35 0 0 1 .046-.137c.122-.214.214-.32.276-.32.06 0 .122.106.183.32.03.213.077.32.138.32.061 0 .16-.145.298-.435.138-.29.36-.74.666-1.35.429-.976.72-1.586.873-1.83.214.122.474.183.78.183.582 0 1.294-.213 2.136-.64.842-.427 1.967-1.068 3.375-1.922.612-.366 1.164-.701 1.653-1.006l.368.32a46.2 46.2 0 0 0 .78-.549c1.899-1.311 3.238-2.394 4.019-3.248.78-.854 1.17-1.952 1.17-3.294zm-4.18 4.3c0 .03.016.061.047.092v.045c0 .183-.153.382-.46.595-.306.214-.734.473-1.285.778-.215.153-.383.26-.506.32a.612.612 0 0 1-.367.138c-.214 0-.321-.061-.321-.183 0-.031.015-.046.046-.046v-.046l2.847-1.693zM57.163 16.7c-.551.305-1.118.595-1.7.87a11.43 11.43 0 0 1-1.653.64c.062-.335.207-.633.437-.892.23-.26.482-.389.757-.389h.597c.215 0 .46-.091.735-.274.184-.122.321-.183.413-.183.153 0 .291.076.414.228zm1.377-.732l-.78.458c-.031 0-.062.015-.092.046h-.092a.447.447 0 0 1-.23-.092c-.153-.122-.275-.183-.367-.183.184-.274.49-.412.918-.412.307 0 .52.061.643.183zm4.547-2.928c0 .153-.085.282-.253.39a.972.972 0 0 1-.528.16c-.153 0-.23-.047-.23-.138.061-.153.2-.275.414-.366l.137-.092a.495.495 0 0 1 .276-.091c.122 0 .184.046.184.137zM49.079 24.477c-.122.03-.283.267-.482.71a8.168 8.168 0 0 0-.436 1.166h.046l.046.046c.06 0 .153-.03.275-.092a.447.447 0 0 1 .23-.091 3.52 3.52 0 0 1 .184-.412c.122-.305.221-.557.298-.755.077-.198.115-.343.115-.435 0-.122-.046-.183-.138-.183-.03 0-.046.016-.046.046h-.092zm35.952-3.111a4.22 4.22 0 0 0-.322-1.67c-.214-.503-.49-1.03-.826-1.578-.276-.458-.414-.748-.414-.87.03-.549.107-1.105.23-1.67.122-.564.29-1.197.505-1.898v-.046l-.138-.092a.534.534 0 0 1-.138-.091c.154-.092.276-.313.368-.663.092-.351.168-.763.23-1.236.06-.472.099-.93.114-1.372.016-.443.023-.877.023-1.304-.245-.366-.398-1.052-.459-2.059-.061-.793-.153-1.426-.276-1.899-.122-.472-.413-.907-.872-1.304h-.046l-.046-.045c-.061 0-.199.045-.413.137-.245.091-.429.137-.551.137-.184 0-.276-.107-.276-.32l.827-.275c-.306-.244-.72-.488-1.24-.732a12.59 12.59 0 0 0-1.332-.549c-.03.244-.138.397-.321.458a3.645 3.645 0 0 1-.781.137c-.306 0-.505.03-.597.092a38.847 38.847 0 0 0-3.1 2.745 32.223 32.223 0 0 0-3.008 3.431c-.704.946-1.898 2.425-3.582 4.438a213.056 213.056 0 0 0-3.329 4.118 63.083 63.083 0 0 0-2.71 3.728 26.598 26.598 0 0 0-2.204 3.935c-.597 1.327-.987 2.615-1.17 3.866h.734a.81.81 0 0 0-.092.366c0 .305.26.732.781 1.281.582.61.888 1.129.918 1.556l2.894 1.235c.336-.427.826-1.373 1.47-2.837l.734-1.601-.184-.549.23-.595c.581-.396 1.385-.877 2.41-1.44a59.46 59.46 0 0 1 3.284-1.67 32.498 32.498 0 0 1 3.352-1.373c1.072-.366 1.93-.55 2.572-.55v.184a.35.35 0 0 1 .046.137 1.5 1.5 0 0 1-.092.457c-.03.214-.046.412-.046.595l-.78-.96c-.031.182-.108.655-.23 1.418-.061.67-.123 1.128-.184 1.372h.092c0 .03.015.046.046.046.153 0 .26-.114.321-.343.062-.229.108-.572.138-1.03v-.183l.551.23c-.06.579-.191 1.212-.39 1.898-.2.686-.375 1.03-.528 1.03v-.275c.03-.122.046-.214.046-.275 0-.488-.107-.732-.322-.732-.06.336-.214.915-.459 1.739-.275.915-.429 1.586-.46 2.013 0 .305.139.457.414.457-.03.305-.184.458-.46.458l-.045.64c.276 0 .467.092.574.275.107.183.16.518.16 1.006h.093a.353.353 0 0 1 .137-.045c.215 0 .613.152 1.194.457.858.458 1.531.686 2.02.686.276-.823.49-1.547.644-2.173.153-.625.245-1.288.275-1.99a.572.572 0 0 1-.413.183c-.03 0-.061-.015-.092-.046.49-.64.735-1.174.735-1.601 0-.213-.077-.503-.23-.87.429-.396.643-.869.643-1.418 0-.305-.107-.518-.321-.64.275-.244.474-.572.597-.984.122-.412.23-.922.321-1.532.092-.61.184-1.007.276-1.19.214-.03.597-.091 1.148-.183a25.634 25.634 0 0 1 1.332-.183zM81.31 8.281c-.092.427-.276 1.296-.551 2.608a131.87 131.87 0 0 1-.643 2.836c-.184.763-.352 1.343-.505 1.74l-.78-.687c-.032.091-.108.305-.23.64-.307.824-.49 1.51-.552 2.06l-1.01.274c-.643.152-1.194.305-1.653.457-.46.153-.98.35-1.561.595-.796.335-1.638.87-2.526 1.601-.398.305-.704.534-.919.687.245-.367.659-.977 1.24-1.83.95-1.404 1.577-2.303 1.883-2.7a50.801 50.801 0 0 0 1.929-2.47 1.538 1.538 0 0 1-.184-.687c0-.335.276-.808.827-1.418a.31.31 0 0 1 .092.229c0 .091-.046.259-.138.503l-.046.091.23.23c1.163-1.556 2.18-2.807 3.053-3.752.873-.946 1.508-1.434 1.906-1.464l.138.457zm-2.204 8.601l-.046.504c-.337 0-.505-.077-.505-.23v-.09a.746.746 0 0 0 .046-.184h.505zm-.046-.274h-.414l.184-.503.184.045.046.458zM77.453 27.77l-.183.732h-.276l.184-.595.275-.137zm-6.475-3.385l-3.49 1.83.092-.183c.153-.244.291-.458.413-.64l.506-.275c.459-.244.857-.45 1.194-.618.336-.168.627-.252.872-.252.184 0 .322.046.413.138zm.551-.275c.092-.335.245-.557.46-.663.214-.107.597-.176 1.148-.206v.046c-.215.122-.551.305-1.01.549-.337.152-.536.244-.598.274zm9.185-15.006l-.413.183-.368 1.235h.414l.367-1.418zM68.453 24.569l.55-.778c.123-.061.292-.122.506-.183.214-.061.367-.107.46-.137-.093.244-.269.442-.529.594-.26.153-.543.305-.85.458-.06 0-.107.015-.137.046zm38.844-10.98l-.275-.184v-.046c0-.06.122-.305.367-.732.03-.06.076-.137.138-.228.153-.244.352-.534.597-.87a89.877 89.877 0 0 1 2.525-3.591 26.394 26.394 0 0 1 2.848-3.226l-.965.138c-.245.091-.68.526-1.309 1.304a60.008 60.008 0 0 0-2.204 2.95 91.529 91.529 0 0 0-2.663 4.004c-.934 1.48-1.784 2.89-2.549 4.232-.092-.366-.23-.96-.413-1.784a65.887 65.887 0 0 0-.597-2.585 14.535 14.535 0 0 0-.551-1.762c-.153-.396-.467-.831-.942-1.304a13.518 13.518 0 0 0-1.63-1.372 17.431 17.431 0 0 0-1.79-1.144 15.208 15.208 0 0 0-1.425-.71c-.244.245-.627.626-1.148 1.145-2.51 2.531-4.645 4.918-6.406 7.16-1.76 2.242-3.283 4.918-4.569 8.03a3.543 3.543 0 0 1-.184.457c-.245.61-.367 1.128-.367 1.555v.366c.03.153.046.29.046.412l.275 2.013c.123.061.352.427.69 1.098.336.702.65 1.25.94 1.647.291.397.62.595.988.595h1.286c.55-.732 1.094-1.64 1.63-2.722.536-1.083 1.248-2.616 2.135-4.598 1.164-2.654 2.052-4.545 2.664-5.674l-.138-.732c.582-1.037 1.248-1.898 1.998-2.585.75-.686 1.492-1.151 2.227-1.395l.23 1.784c0 .122.015.26.046.412v.412c0 .366-.046.884-.138 1.555a20.15 20.15 0 0 0-.092 1.647c0 .915.168 1.876.505 2.883.092.274.138.686.138 1.235 0 .183-.015.58-.046 1.19-.03.518-.046.9-.046 1.143 0 .092.015.214.046.366v.32c.214 1.678.528 2.837.941 3.478.414.64 1.31 1.144 2.687 1.51l.275-.64 2.067.96a235.2 235.2 0 0 0 1.194-2.974c1.408-3.538 2.403-6.192 2.985-7.96.06-.153.214-.336.459-.55.245-.183.367-.32.367-.412.092-.213.169-.518.23-.915.061-.366.122-.61.184-.732.183-.305.443-.701.78-1.19.49-.67.835-1.212 1.034-1.623.199-.412.313-.892.344-1.442l.046-.045h.092c.03 0 .092.03.183.091a.447.447 0 0 0 .23.092c.061 0 .122-.046.184-.138a18.994 18.994 0 0 1 1.997-2.31 29.494 29.494 0 0 1 2.434-2.173 31.864 31.864 0 0 1 2.457-1.784c.796-.519 1.5-.916 2.112-1.19l-1.285-1.373c-.153.092-.398.191-.735.298-.337.107-.582.16-.735.16l-.092-.183.919-.64c-.704-.489-1.944-.733-3.72-.733-1.04.061-1.837.26-2.388.595a28.516 28.516 0 0 0-2.02 2.15 53.251 53.251 0 0 0-1.975 2.448 95.067 95.067 0 0 0-1.7 2.31c-.52.733-.994 1.434-1.423 2.105zm6.567-1.602l-.964 1.464a.308.308 0 0 1-.138-.275c0-.122.053-.282.16-.48.108-.198.268-.465.483-.8l.138-.184h.045c0-.03.016-.045.046-.045.153 0 .23.106.23.32zm-.918-5.353c.275-.427.535-.747.78-.96l.368.182-.781 1.007c-.153 0-.276-.077-.367-.229zm6.153-.96c0 .243-.046.426-.138.548-.092.122-.23.244-.413.366a.577.577 0 0 0-.23.137l-.091-.411.872-.64zm-8.955 15.097h-.092c-.03-.03-.06-.046-.091-.046-.153 0-.26.107-.322.32-.061.214-.107.535-.138.962v.045l.414.275.23-1.556zm4.914-10.431l-.827 1.19c-.03-.153-.168-.23-.413-.23l.918-1.189c.062-.06.108-.091.138-.091.153 0 .23.076.23.228l-.046.046v.046zm-18.46-2.288l-.23.229c-.337.458-.613.686-.827.686a.441.441 0 0 1-.321-.137l1.01-1.052.367.274zm48.487 4.987a.75.75 0 0 0-.046-.229 16.104 16.104 0 0 0-.275-1.921 7.029 7.029 0 0 0-.643-1.762c-.306-.594-.765-1.143-1.378-1.647-.612-.503-1.393-.907-2.342-1.212-.306-.092-.78-.168-1.423-.229-.704-.091-1.148-.198-1.332-.32-.153.366-.46.549-.919.549-.244 0-.367-.076-.367-.229 0-.091.03-.198.092-.32a10.357 10.357 0 0 0-1.7-.137c-.58 0-1.316.045-2.203.137-.766.091-1.332.137-1.7.137.062-.244.138-.534.23-.87.153-.61.23-1.036.23-1.28v-.229a.746.746 0 0 1-.046-.183c-.03-.122-.161-.374-.39-.755-.23-.381-.467-.762-.712-1.144a9.768 9.768 0 0 0-.712-.983c-.23-.275-.39-.412-.482-.412-.643 0-1.148.275-1.516.824-.367.549-.78 1.418-1.24 2.607-.336.793-.65 1.487-.941 2.082a6.264 6.264 0 0 1-1.033 1.533l-.46-.32a8.772 8.772 0 0 1-1.01.457c-.796.336-1.4.648-1.814.938-.413.29-.635.633-.666 1.03 0 .396.26.914.781 1.555.551.701.827 1.266.827 1.693-.031.701-.398 1.708-1.103 3.02-.52 1.006-.872 1.799-1.056 2.378l.184.687c-.153.518-.245.884-.276 1.098-.275.976-.497 1.746-.665 2.31-.169.564-.39 1.152-.666 1.762-.153.366-.33.64-.528.823-.2.183-.498.366-.896.55l-1.148.502c-.03.61-.153 1.19-.367 1.739.153.183.382.564.688 1.144.613 1.006 1.202 1.8 1.769 2.379.566.58 1.324.87 2.273.87.214 0 .52-.031.918-.092.367-.061.628-.092.78-.092.307 0 .582.061.827.183l.414-2.516c2.724-1.19 5.54-2.7 8.45-4.53a67.284 67.284 0 0 0 8.036-5.902l-.827-.183c1.072-.854 1.715-1.387 1.929-1.6.184-.184.428-.275.735-.275l.137.045h.138l-.689.732c.49 0 .903-.167 1.24-.503.398-.396.82-.892 1.263-1.487a42.45 42.45 0 0 0 1.447-2.082l.183-.32zm-2.663 2.791l-.368.412-.597-.137.368-.412.597.137zm-2.02-5.948v.138l.045.137c0 .396-.107.831-.321 1.304a7.144 7.144 0 0 1-.804 1.35 5.211 5.211 0 0 1-1.033 1.052c-.368.274-.689.412-.965.412a.353.353 0 0 1-.137-.046h-.092c-.796.915-1.424 1.578-1.883 1.99-.46.412-.811.618-1.056.618-.153 0-.306-.122-.46-.366l-.413.274.276.64a.758.758 0 0 0-.23-.045c-.214-.061-.367-.137-.459-.229a14.67 14.67 0 0 1-2.342 1.624 84.745 84.745 0 0 1-3.215 1.716c-1.01.488-1.714.854-2.112 1.098.092-.61.321-1.403.689-2.38.337-.792.505-1.356.505-1.692-.061-.396-.168-.717-.321-.96v-.046c.183.152.382.244.597.274.214 0 .321-.29.321-.87 0-.457-.107-.685-.321-.685a.447.447 0 0 0-.23.091v-.046a2.12 2.12 0 0 1 .46-.411c.183-.122.305-.214.367-.275l.045-1.418c.398-.122 1.041-.397 1.93-.824a32.828 32.828 0 0 1 4.867-1.761c1.622-.443 3.72-.664 6.291-.664zm-2.389 9.517l-.964.686a.624.624 0 0 1-.46.183c-.152 0-.32-.061-.504-.183l1.515-.824.413.138zm-1.699 1.28c-.643.397-1.653 1.068-3.03 2.014-1.868 1.28-3.307 2.226-4.317 2.836-.368-.213-.72-.32-1.057-.32.337-.305.643-.457.919-.457.153 0 .29.06.413.183.276-.153.444-.412.505-.778.46-.275 1.21-.732 2.25-1.373.98-.58 1.592-.945 1.837-1.098a14.64 14.64 0 0 1 1.401-.8 2.484 2.484 0 0 1 1.08-.252v.046zm-11.113 6.68c.245-.274.597-.617 1.056-1.029.46-.412.857-.71 1.194-.892v.046a.438.438 0 0 0-.138.32c0 .244.077.396.23.457l-2.342 1.144v-.046zm-.551-.183l-.23.55-1.285.686.091-.458 1.424-.778zm33.839-21.915c0-.518-.16-1.006-.482-1.464-.322-.457-.712-.777-1.171-.96V1.739a3.187 3.187 0 0 0-.368-.092c-.49-.152-.842-.229-1.056-.229a1.78 1.78 0 0 0-.758.183c-.26.122-.467.275-.62.458-.49.884-1.47 2.516-2.939 4.895a245.294 245.294 0 0 0-3.375 5.536 67.149 67.149 0 0 0-2.663 5.01 37.904 37.904 0 0 0-2.067 5.239c-.536 1.738-.804 3.355-.804 4.85.552 1.433 1.393 2.577 2.526 3.43.03-.487.2-.853.505-1.097v1.464c.704.396 1.47.732 2.296 1.006 0-.06-.015-.152-.045-.274a2.743 2.743 0 0 1-.046-.412c0-1.22.367-2.669 1.102-4.347.306-.732.72-1.83 1.24-3.294.98-2.653 1.806-4.56 2.48-5.719l.045-.045c.123-.183.184-.32.184-.412 0-.03-.03-.046-.092-.046h-.046a.754.754 0 0 1-.183.046c-.49.549-.919 1.243-1.286 2.082-.368.838-.78 1.898-1.24 3.18-.429 1.22-.75 2.073-.965 2.561a5.469 5.469 0 0 1-.252.687c-.107.244-.191.366-.253.366-.183-.061-.275-.168-.275-.32 0-.123.092-.351.275-.687l.138-.274c.214-.55.46-1.25.735-2.105.52-1.464.98-2.654 1.378-3.569.398-.915.887-1.8 1.469-2.653l1.791-1.007-.184-.549a4.326 4.326 0 0 0 1.539-1.44c.413-.626.88-1.473 1.4-2.54.49-1.007.873-1.708 1.148-2.105h.506c.122-.762.221-1.517.298-2.264.077-.748.115-1.411.115-1.99zm-10.654 22.281l-.643 1.602c-.061.122-.138.183-.23.183-.091 0-.137-.107-.137-.32l.505-1.236c0-.305.046-.457.138-.457.091 0 .214.076.367.228zM178 21.366a4.22 4.22 0 0 0-.321-1.67c-.215-.503-.49-1.03-.827-1.578-.276-.458-.413-.748-.413-.87.03-.549.107-1.105.23-1.67.122-.564.29-1.197.504-1.898v-.046l-.137-.092a.534.534 0 0 1-.138-.091c.153-.092.275-.313.367-.663.092-.351.169-.763.23-1.236.061-.472.1-.93.115-1.372.015-.443.023-.877.023-1.304-.245-.366-.398-1.052-.46-2.059-.06-.793-.153-1.426-.275-1.899-.123-.472-.413-.907-.873-1.304h-.046l-.045-.045c-.062 0-.2.045-.414.137-.245.091-.428.137-.55.137-.185 0-.276-.107-.276-.32l.826-.275c-.306-.244-.72-.488-1.24-.732a12.59 12.59 0 0 0-1.331-.549c-.031.244-.138.397-.322.458a3.645 3.645 0 0 1-.78.137c-.307 0-.506.03-.598.092a38.847 38.847 0 0 0-3.1 2.745 32.223 32.223 0 0 0-3.007 3.431c-.704.946-1.898 2.425-3.582 4.438a213.055 213.055 0 0 0-3.33 4.118 63.083 63.083 0 0 0-2.709 3.728 26.598 26.598 0 0 0-2.204 3.935c-.597 1.327-.987 2.615-1.171 3.866h.735a.81.81 0 0 0-.092.366c0 .305.26.732.78 1.281.582.61.888 1.129.919 1.556l2.893 1.235c.337-.427.827-1.373 1.47-2.837l.734-1.601-.183-.549.23-.595c.58-.396 1.384-.877 2.41-1.44a59.46 59.46 0 0 1 3.283-1.67 32.498 32.498 0 0 1 3.353-1.373c1.071-.366 1.929-.55 2.571-.55v.184a.35.35 0 0 1 .046.137 1.5 1.5 0 0 1-.091.457c-.031.214-.046.412-.046.595l-.781-.96-.23 1.418c-.06.67-.122 1.128-.183 1.372h.091c0 .03.016.046.046.046.153 0 .26-.114.322-.343.061-.229.107-.572.138-1.03v-.183l.55.23c-.06.579-.19 1.212-.39 1.898-.199.686-.375 1.03-.528 1.03v-.275c.03-.122.046-.214.046-.275 0-.488-.107-.732-.321-.732-.062.336-.215.915-.46 1.739-.275.915-.428 1.586-.459 2.013 0 .305.138.457.414.457-.031.305-.184.458-.46.458l-.046.64c.276 0 .467.092.574.275.108.183.161.518.161 1.006h.092a.353.353 0 0 1 .138-.045c.214 0 .612.152 1.194.457.857.458 1.53.686 2.02.686.276-.823.49-1.547.643-2.173.153-.625.245-1.288.276-1.99a.572.572 0 0 1-.414.183c-.03 0-.06-.015-.091-.046.49-.64.734-1.174.734-1.601 0-.213-.076-.503-.23-.87.43-.396.644-.869.644-1.418 0-.305-.107-.518-.322-.64.276-.244.475-.572.597-.984.123-.412.23-.922.322-1.532s.183-1.007.275-1.19c.215-.03.597-.091 1.148-.183a25.634 25.634 0 0 1 1.332-.183zm-3.72-13.085c-.092.427-.275 1.296-.55 2.608a131.87 131.87 0 0 1-.644 2.836c-.183.763-.352 1.343-.505 1.74l-.78-.687c-.031.091-.108.305-.23.64-.306.824-.49 1.51-.551 2.06l-1.01.274c-.643.152-1.194.305-1.654.457-.459.153-.98.35-1.561.595-.796.335-1.638.87-2.526 1.601-.398.305-.704.534-.918.687.245-.367.658-.977 1.24-1.83.949-1.404 1.576-2.303 1.883-2.7a50.802 50.802 0 0 0 1.928-2.47 1.538 1.538 0 0 1-.183-.687c0-.335.275-.808.826-1.418a.31.31 0 0 1 .092.229c0 .091-.046.259-.138.503l-.046.091.23.23c1.163-1.556 2.181-2.807 3.054-3.752.872-.946 1.508-1.434 1.906-1.464l.137.457zm-2.204 8.601l-.046.504c-.337 0-.505-.077-.505-.23v-.09a.746.746 0 0 0 .046-.184h.505zm-.046-.274h-.413l.184-.503.183.045.046.458zm-1.607 11.163l-.184.732h-.275l.183-.595.276-.137zm-6.475-3.385l-3.49 1.83.092-.183c.153-.244.29-.458.413-.64l.505-.275c.46-.244.857-.45 1.194-.618.337-.168.628-.252.873-.252.183 0 .321.046.413.138zm.55-.275c.093-.335.246-.557.46-.663.214-.107.597-.176 1.148-.206v.046c-.214.122-.55.305-1.01.549-.337.152-.536.244-.597.274zm9.185-15.006l-.413.183-.367 1.235h.413l.367-1.418zm-12.26 15.464l.55-.778c.123-.061.291-.122.505-.183.215-.061.368-.107.46-.137-.092.244-.268.442-.529.594-.26.153-.543.305-.85.458-.06 0-.106.015-.137.046z" id="expandia-copy"/></g></g></g></svg>