<svg width="7" height="16" viewBox="0 0 7 16" xmlns="http://www.w3.org/2000/svg"><g id="Page-1" fill="none" fill-rule="evenodd"><g id="Home-Copy-3" transform="translate(-215 -2536)" fill="#D9D9D9"><g id="Group-12" transform="translate(215 2467)"><g id="Group-8" transform="translate(0 69)"><path d="M4.658 5.243V3.864c0-.207.009-.367.027-.48a.97.97 0 0 1 .123-.336.504.504 0 0 1 .31-.228c.143-.042.333-.063.57-.063h1.294V0h-2.07C3.717 0 2.857.303 2.334.908c-.522.605-.783 1.496-.783 2.674v1.66H0V8h1.55v8h3.108V8h2.069L7 5.243H4.658z" id="Shape"/></g></g></g></g></svg>