<svg width="422" height="241" viewBox="0 0 422 241" xmlns="http://www.w3.org/2000/svg" xmlns:xlink="http://www.w3.org/1999/xlink"><defs><rect id="path-1" x="14.047" width="334.246" height="187.877" rx="4.8"/><mask id="mask-2" x="0" y="0" width="334.246" height="187.877" fill="#fff"><use xlink:href="#path-1"/></mask><path id="path-3" d="M1.348 1.728h283v170.977h-283z"/><mask id="mask-4" x="0" y="0" width="283" height="170.977" fill="#fff"><use xlink:href="#path-3"/></mask><rect id="path-5" width="117" height="241" rx="15.3"/><mask id="mask-6" x="0" y="0" width="117" height="241" fill="#fff"><use xlink:href="#path-5"/></mask><path id="path-7" d="M.496.202H104.11v183.973H.496z"/><path id="path-9" d="M0 0h105v185H0z"/><mask id="mask-10" x="0" y="0" width="105" height="185" fill="#fff"><use xlink:href="#path-9"/></mask></defs><g id="Page-1" fill="none" fill-rule="evenodd"><g id="work__img"><g id="screen__container" transform="translate(0 26)"><use id="screen-main" stroke="#979797" mask="url(#mask-2)" stroke-width="1.2" fill="#D8D8D8" xlink:href="#path-1"/><g id="screen-img__container" transform="translate(20.652 5.292)" stroke="#979797" stroke-width="2" fill="#D8D8D8"><use id="screen-img__placeholder" mask="url(#mask-4)" xlink:href="#path-3"/></g><rect id="screen-bottom" fill="#767676" x=".175" y="185.892" width="361.99" height="11.908" rx="1.8"/></g><g id="phone__container" transform="translate(305)"><g stroke="#979797"><use id="phone-outer" stroke-opacity=".307" mask="url(#mask-6)" fill="#F5F4F4" xlink:href="#path-5"/><ellipse id="home-button" stroke-width=".9" cx="58.5" cy="225.628" rx="9.915" ry="9.918"/><ellipse id="camera" stroke-width=".5" cx="57.508" cy="7.438" rx="1.487" ry="1.488"/><path d="M48.833 14.629h17.351" id="earpiece" stroke-width="1.35" stroke-linecap="round" fill="#979797"/></g><g id="phone-img__container" transform="translate(5.95 27.071)"><mask id="mask-8" fill="#fff"><use xlink:href="#path-7"/></mask><use id="phone-mask" fill="#D8D8D8" xlink:href="#path-7"/><use mask="url(#mask-10)" xlink:href="#path-9" id="phone-img__placeholder" stroke-width="2" stroke="#979797" fill="#D8D8D8"/></g></g></g></g></svg>