<svg width="16" height="13" viewBox="0 0 16 13" xmlns="http://www.w3.org/2000/svg"><g id="Page-1" fill="none" fill-rule="evenodd"><g id="Home-Copy-3" transform="translate(-242 -2537)" fill="#D9D9D9"><g id="Group-12" transform="translate(215 2467)"><g id="Group-8" transform="translate(0 69)"><path d="M43 2.538a6.553 6.553 0 0 1-1.885.517 3.297 3.297 0 0 0 1.443-1.815 6.616 6.616 0 0 1-2.086.797A3.283 3.283 0 0 0 34.88 5.03a9.318 9.318 0 0 1-6.764-3.43 3.259 3.259 0 0 0-.444 1.65c0 1.14.58 2.144 1.46 2.732a3.282 3.282 0 0 1-1.487-.412v.041a3.286 3.286 0 0 0 2.632 3.22 3.324 3.324 0 0 1-.864.115 3.15 3.15 0 0 1-.618-.061 3.284 3.284 0 0 0 3.065 2.28 6.584 6.584 0 0 1-4.076 1.403c-.265 0-.526-.016-.783-.045A9.276 9.276 0 0 0 32.031 14c6.038 0 9.338-5.002 9.338-9.34l-.01-.426A6.555 6.555 0 0 0 43 2.538z" id="Shape"/></g></g></g></g></svg>