<svg width="142" height="142" viewBox="0 0 142 142" xmlns="http://www.w3.org/2000/svg"><g id="Page-1" fill="none" fill-rule="evenodd"><g id="Home-Copy-3" transform="translate(-162 -44)" fill="#FFF"><path d="M254.819 111.122l-3.14 11.245c-.04.26-.014.614.076 1.062.09.45.251.94.484 1.473a9.073 9.073 0 0 0 2.544 3.304c.67.555 1.392.819 2.165.792.773-.026 1.466-.368 2.078-1.023.55-.588 1.006-1.367 1.37-2.338.363-.97.692-2.03.984-3.18.295-1.15.583-2.341.867-3.571.284-1.231.612-2.408.982-3.531.74-2.464 1.247-4.58 1.525-6.348.277-1.77.32-3.315.129-4.636-.192-1.322-.635-2.493-1.328-3.515-.693-1.021-1.643-2.031-2.85-3.03-1.111-.92-2.161-1.48-3.148-1.678a7.379 7.379 0 0 0-2.96.004c-.985.202-1.998.52-3.036.957a30.677 30.677 0 0 1-3.376 1.186c-.044.011-.4.128-1.068.35-.667.225-1.513.511-2.538.862l-3.414 1.172c-1.252.43-2.49.865-3.716 1.304a94.238 94.238 0 0 0-3.39 1.281 45.12 45.12 0 0 0-2.472 1.062c-.414.19-.763.435-1.044.736-.345.369-.524.771-.541 1.206-.016.435.069.88.255 1.336.184.456.433.891.743 1.305.309.414.62.791.929 1.132.31.342.581.614.814.819l.378.331c.748.619 1.447.943 2.099.973.651.03 1.312-.112 1.982-.43l12.048-5.739c-3.46 2.793-16.665 13.214-18.282 14.286a52.362 52.362 0 0 1-5.697 3.272 40.648 40.648 0 0 1-6.17 2.457c-2.107.645-4.102.944-5.986.899a7.77 7.77 0 0 1-1.673-.213 4.873 4.873 0 0 1-1.472-.643c-.466-.3-.92-.717-1.362-1.25-.443-.53-.89-1.193-1.342-1.986 2.756-.628 5.322-1.536 7.701-2.724 2.377-1.187 4.437-2.556 6.18-4.106 1.741-1.55 3.28-3.424 4.613-5.62 1.336-2.197 2.027-4.192 2.076-5.985.045-1.684-.228-3.213-.82-4.587a10.116 10.116 0 0 0-2.523-3.542c-1.09-.987-2.382-1.764-3.876-2.332-1.495-.568-3.122-.873-4.882-.915-2.155-.052-4.124.258-5.908.931a17.43 17.43 0 0 0-4.857 2.776 20.421 20.421 0 0 0-3.837 4.115 27.445 27.445 0 0 0-2.782 4.95c-.75 1.736-1.483 3.727-2.2 5.974-.718 2.247-1.098 4.188-1.142 5.823-.067 2.5.235 4.894.906 7.185.672 2.29 1.717 4.32 3.136 6.086 1.42 1.767 3.214 3.188 5.386 4.264 2.171 1.076 4.722 1.65 7.654 1.72 1.885.045 3.95.363 5.798-.006 1.848-.366 3.55-.903 5.28-1.547 1.73-.644 3.27-1.198 4.848-2.043 1.578-.847 6.96-4.585 8.335-5.467 2.65-1.723 14.636-13.016 18.467-16.645zm1.884-6.748l.622-2.225-.365.174-.257 2.051zM233 186c39.212 0 71-31.788 71-71s-31.788-71-71-71-71 31.788-71 71 31.788 71 71 71zm-22.893-71.168a17.093 17.093 0 0 0 3.79-1.971c1.173-.812 2.33-1.913 3.471-3.303 1.142-1.391 1.726-2.55 1.75-3.475.036-1.301-.196-2.378-.693-3.23-.497-.852-1.124-1.286-1.88-1.304-1.356-.033-2.52.171-3.494.611-.974.44-1.794 1.02-2.46 1.743a9.2 9.2 0 0 0-1.627 2.479c-.42.93-.909 2.084-1.466 3.46-.557 1.375-.88 2.51-.968 3.406-.086.896-.138 1.66-.155 2.297 1.134.028 2.379-.209 3.732-.713z" id="Combined-Shape"/></g></g></svg>