<svg width="30" height="56" viewBox="0 0 30 56" xmlns="http://www.w3.org/2000/svg"><title>&amp;gt;</title><path d="M0 52.748c.91 2.414 1.252 2.881 3.073 3.196 1.138-1.26.445-.678 3.48-3.722 5.008-4.934 8.726-6.297 11.155-9.237l2.504-2.991a77.422 77.422 0 0 1 1.934-2.362c2.201-2.624 3.757-4.671 4.667-6.14L30 19.996c-2.2-1.155-5.008-3.464-8.423-6.928-1.972-1.89-3.642-3.438-5.008-4.645-1.365-1.207-3.035-2.388-5.008-3.543-1.973-1.155-.934-2.152-3.704-2.992C5.087 1.05 8.043.42 4.325 0l-.569 1.732 6.374 8.345-2.39 1.732 15.138 14.329c-.456 1.47-1.518 2.991-3.187 4.566-1.67 1.574-4.136 3.569-7.399 5.983-2.959 2.1-5.406 3.99-7.34 5.669-1.936 1.68-3.434 3.359-4.497 5.038l2.618.788L0 52.748z" fill="#FFF" fill-rule="evenodd"/></svg>