<svg width="52" height="50" viewBox="0 0 52 50" xmlns="http://www.w3.org/2000/svg"><title>house</title><g fill="#30343F" fill-rule="evenodd"><path d="M11.907 30.24h11.907v-8.477H11.907v8.477zm1.701-1.695v-2.543h8.505v2.543h-8.505zm8.505-5.086v.848h-8.505v-.848h8.505zM11.907 33.631v10.173h11.907V33.63H11.907zm5.103 1.696v2.543h-3.402v-2.543h3.402zm-3.402 4.238h3.402v2.543h-3.402v-2.543zm5.103 2.543v-2.543h3.402v2.543h-3.402zm3.402-4.238h-3.402v-2.543h3.402v2.543zM27.216 30.24h11.908v-8.477H27.216v8.477zm1.702-1.695v-.848h8.505v.848h-8.505zm8.505-5.086v2.543h-8.505v-2.543h8.505z"/><path d="M50.18 40.413c-.47 0-.85.38-.85.848v.847h-.85v-.847a.849.849 0 0 0-.851-.848c-.47 0-.85.38-.85.848v.847h-.851V24.981a3.39 3.39 0 0 0 1.383.308c.912 0 1.819-.37 2.49-1.088a3.392 3.392 0 0 0 .898-2.576 3.402 3.402 0 0 0-1.294-2.401L27.83 2.404 25.515.263l-2.26 2.096L1.628 19.224a3.396 3.396 0 0 0-1.294 2.401 3.392 3.392 0 0 0 4.77 3.357V42.11h-.85v-.848a.849.849 0 0 0-.85-.847c-.471 0-.851.38-.851.847v.848H1.7v-.848a.849.849 0 0 0-.85-.847c-.47 0-.851.38-.851.847v7.63c0 .468.38.847.85.847s.851-.38.851-.847v-.848h.85v.848c0 .468.38.847.851.847.47 0 .85-.38.85-.847v-.848h.851v1.695h40.825v-1.695h.85v.848c0 .468.38.847.85.847.471 0 .851-.38.851-.847v-.848h.85v.848c0 .468.381.847.851.847s.85-.38.85-.847v-7.63a.85.85 0 0 0-.85-.848zM2.477 23.046a1.672 1.672 0 0 1-.449-1.287c.039-.478.268-.904.648-1.2L24.359 3.647l1.157-1.072 1.211 1.118 21.63 16.866c.378.296.608.722.646 1.2.039.478-.121.936-.448 1.287a1.697 1.697 0 0 1-2.284.19l-.343-.264L25.515 7.29 5.435 22.718h-.001l-.673.517a1.697 1.697 0 0 1-2.284-.189zm-.776 23.3v-2.542h.85v2.543h-.85zm2.552 0v-2.542h.85v2.543h-.85zm24.665 1.696V35.327h8.505v12.715h-8.505zm15.309 0h-5.103v-14.41H27.216v14.41H6.804V23.806L25.515 9.429l18.712 14.377v24.236zm1.7-1.695v-2.543h.851v2.543h-.85zm2.552 0v-2.543h.85v2.543h-.85z"/></g></svg>