<svg width="39" height="50" viewBox="0 0 39 50" xmlns="http://www.w3.org/2000/svg"><title>list</title><g fill="#30343F" fill-rule="evenodd"><path d="M26.86 0H0v50h38.947V12.155L26.86 0zm.486 2.845l8.772 8.822h-8.772V2.845zM1.657 48.333V1.667H25.69v11.666H37.29v35H1.657z"/><path d="M30.205 17.368H16.637c-.468 0-.848.353-.848.79 0 .436.38.79.848.79h13.568c.468 0 .848-.354.848-.79 0-.437-.38-.79-.848-.79zM13.407 14.93l-3.522 3.018-1.119-1.2a.78.78 0 0 0-1.157 0 .92.92 0 0 0 0 1.24l1.637 1.755a.78.78 0 0 0 1.09.065l4.093-3.509a.92.92 0 0 0 .128-1.233.781.781 0 0 0-1.15-.137zM30.205 26.842H16.637c-.468 0-.848.353-.848.79 0 .436.38.79.848.79h13.568c.468 0 .848-.354.848-.79 0-.437-.38-.79-.848-.79zM13.407 24.403l-3.522 3.018-1.119-1.199a.78.78 0 0 0-1.157 0 .92.92 0 0 0 0 1.24l1.637 1.755a.78.78 0 0 0 1.09.065l4.093-3.509a.92.92 0 0 0 .128-1.233.781.781 0 0 0-1.15-.137zM30.205 35.79H16.637c-.468 0-.848.352-.848.789 0 .437.38.79.848.79h13.568c.468 0 .848-.353.848-.79 0-.437-.38-.79-.848-.79zM13.407 33.35L9.885 36.37l-1.119-1.2a.78.78 0 0 0-1.157 0 .92.92 0 0 0 0 1.24l1.637 1.755a.78.78 0 0 0 1.09.065l4.093-3.509a.92.92 0 0 0 .128-1.233.781.781 0 0 0-1.15-.137z"/></g></svg>