<svg width="22" height="22" viewBox="0 0 22 22" xmlns="http://www.w3.org/2000/svg"><title>plus</title><g fill-rule="nonzero" fill="#30343F"><path d="M11 0C4.935 0 0 4.934 0 11s4.935 11 11 11 11-4.934 11-11S17.065 0 11 0zm0 21.154C5.401 21.154.846 16.599.846 11S5.401.846 11 .846 21.154 5.401 21.154 11 16.599 21.154 11 21.154z"/><path d="M16.288 10.577h-4.865V5.923a.423.423 0 1 0-.846 0v4.654H5.712a.423.423 0 1 0 0 .846h4.865V16.5a.423.423 0 1 0 .846 0v-5.077h4.865a.423.423 0 1 0 0-.846z"/></g></svg>