<svg width="35" height="50" viewBox="0 0 35 50" xmlns="http://www.w3.org/2000/svg"><title>placeholder</title><g fill="#30343F" fill-rule="evenodd"><path d="M17.683 10.91c-3.49 0-6.33 2.855-6.33 6.363 0 3.508 2.84 6.363 6.33 6.363s6.33-2.855 6.33-6.363c0-3.508-2.84-6.364-6.33-6.364zm0 10.908c-2.493 0-4.52-2.039-4.52-4.545 0-2.507 2.027-4.546 4.52-4.546 2.493 0 4.521 2.04 4.521 4.546 0 2.506-2.028 4.545-4.52 4.545z"/><path d="M29.784 5.106C26.509 1.814 22.154 0 17.524 0 12.89 0 8.536 1.814 5.261 5.106c-6.06 6.093-6.814 17.557-1.63 24.502L17.522 49.78l13.871-20.143c5.204-6.973 4.45-18.437-1.61-24.53zm.144 23.468l-12.405 18.01L5.1 28.546C.398 22.244 1.07 11.891 6.542 6.392a15.386 15.386 0 0 1 10.981-4.574 15.39 15.39 0 0 1 10.982 4.574c5.47 5.499 6.144 15.852 1.423 22.182z"/></g></svg>