<svg width="276" height="74" viewBox="0 0 276 74" xmlns="http://www.w3.org/2000/svg"><title>Group</title><g fill="none" fill-rule="evenodd"><path d="M27.906 57.52c-.07-5.233-4.301-9.468-9.492-9.468-2.308 0-4.533.85-6.263 2.392a9.634 9.634 0 0 0-3.018 5.236h-.091C4.608 55.68 1 59.327 1 63.813c0 4.485 3.608 8.134 8.042 8.134h18.76c3.932 0 7.132-3.236 7.132-7.214 0-3.943-3.143-7.157-7.028-7.214z" stroke="#E6E6E6" stroke-width="1.5"/><path d="M18.414 51.492c-3.026 0-5.616 2.287-6.025 5.32a.73.73 0 0 0 .718.832.727.727 0 0 0 .716-.633c.312-2.312 2.286-4.055 4.591-4.055.4 0 .724-.328.724-.732a.728.728 0 0 0-.724-.732z" fill="#E6E6E6"/><path d="M137.777 19.884c-.103-7.632-6.2-13.809-13.68-13.809a13.46 13.46 0 0 0-9.026 3.489 14.089 14.089 0 0 0-4.35 7.636l-.131-.001c-6.39 0-11.59 5.322-11.59 11.863 0 6.541 5.2 11.863 11.59 11.863h27.035c5.668 0 10.28-4.72 10.28-10.521 0-5.75-4.53-10.437-10.128-10.52z" stroke="#E6E6E6" stroke-width="1.5"/><path d="M124.097 11.093c-4.36 0-8.094 3.335-8.683 7.759a1.063 1.063 0 0 0 1.034 1.212c.514 0 .961-.388 1.032-.923.45-3.371 3.294-5.913 6.617-5.913.576 0 1.043-.478 1.043-1.068 0-.59-.467-1.067-1.043-1.067z" fill="#E6E6E6"/><path d="M86.906 45.52c-.07-5.233-4.301-9.468-9.492-9.468-2.308 0-4.533.85-6.263 2.392a9.634 9.634 0 0 0-3.018 5.236h-.091c-4.434 0-8.042 3.648-8.042 8.134 0 4.485 3.608 8.134 8.042 8.134h18.76c3.932 0 7.132-3.236 7.132-7.214 0-3.943-3.143-7.157-7.028-7.214z" stroke="#E6E6E6" stroke-width="1.5"/><path d="M77.414 39.492c-3.026 0-5.616 2.287-6.025 5.32a.73.73 0 0 0 .718.832.727.727 0 0 0 .716-.633c.312-2.312 2.286-4.055 4.591-4.055.4 0 .724-.328.724-.732a.728.728 0 0 0-.724-.732z" fill="#E6E6E6"/><g><path d="M62.194 13.984c-.098-7.137-5.946-12.913-13.121-12.913a13.1 13.1 0 0 0-8.658 3.262 13.1 13.1 0 0 0-4.172 7.141h-.126C29.987 11.473 25 16.45 25 22.567c0 6.117 4.987 11.094 11.117 11.094h25.932c5.437 0 9.86-4.414 9.86-9.84 0-5.377-4.345-9.76-9.715-9.838z" stroke="#E6E6E6" stroke-width="1.5"/><path d="M49.073 5.763c-4.183 0-7.764 3.12-8.33 7.256a.999.999 0 0 0 .993 1.134 1 1 0 0 0 .99-.864c.43-3.152 3.16-5.53 6.347-5.53a1 1 0 1 0 0-1.996z" fill="#E6E6E6"/></g><g fill="#9B9B9B"><path d="M215.946 47.953l4.372-1.254.486 1.694-4.373 1.254zM269.664 38.942l1.75-.502.485 1.694-1.75.502zM265.994 26.144l1.707-.49 3.234 11.279-1.707.49zM270.228 40.91l1.708-.489L275.17 51.7l-1.707.49zM240.178 25.023l1.707-.49.498 1.736-1.707.49z"/><path d="M251.77 35.224c-.682-2.381-3.19-3.758-5.59-3.07l-1.77.508-1.498-5.226-1.707.49 1.498 5.225-6.142 1.762c-2.4.688-3.797 3.184-3.114 5.565.414 1.446-.435 2.963-1.893 3.382l-7.364 2.111-7.984-8.039-4.858 1.394L216 55.555l14.401.084-2.534 3.698a2.709 2.709 0 0 0-1.327.044c-1.436.412-2.271 1.905-1.863 3.329.408 1.423 1.908 2.247 3.343 1.835 1.436-.411 2.271-1.904 1.863-3.328a2.652 2.652 0 0 0-.504-.958l3.157-4.608 4.33.026a2.702 2.702 0 0 0 3.278 1.636l12.264-3.516.55 1.92a2.692 2.692 0 0 0-1.05 2.94c.409 1.423 1.909 2.247 3.344 1.835 1.435-.411 2.27-1.904 1.863-3.328a2.692 2.692 0 0 0-2.449-1.937l-.55-1.92 1.77-.508a2.71 2.71 0 0 0 1.96-2.44l13.263-3.803-3.72-12.972-12.223 3.505c-1.458.418-2.981-.419-3.396-1.865zM227.537 62.85a.929.929 0 0 1-1.15-.631.929.929 0 0 1 .64-1.145.929.929 0 0 1 1.15.631.929.929 0 0 1-.64 1.145zm12.113-26.99l7.017-2.013c1.459-.418 2.982.419 3.397 1.865.283.986.88 1.8 1.651 2.366l-10.56 3.028-1.505-5.247zm-2.603.746l.896-.257.509 1.776-3.397.974a2.753 2.753 0 0 1 1.992-2.493zm-1.734 4.253l3.625-1.04.51 1.777-4.44 1.272c.25-.627.362-1.313.305-2.01zm20.096 16.794a.929.929 0 0 1-.64 1.145.929.929 0 0 1-1.15-.632.929.929 0 0 1 .64-1.145.929.929 0 0 1 1.15.632zm-.007-6.548l-15.742 4.513a.929.929 0 0 1-1.15-.631.929.929 0 0 1 .64-1.145l15.742-4.514a.929.929 0 0 1 1.15.632.929.929 0 0 1-.64 1.145zm9.143-4.5l-7.182 2.06a2.71 2.71 0 0 0-2.956-1.03l-15.742 4.513c-.9.258-1.563.94-1.833 1.764l-19.485-.114-.073-.255 45.518-13.052 1.753 6.114zm-1.04-10.074l2.665-.765 2.748 9.585-2.665.764-2.749-9.584zm-1.199 2.266L216.787 51.85l-3.246-11.32 2.138-.613 7.983 8.039 38.134-10.935.51 1.777z"/><path d="M243.346 39.32l-1.553-.86 1.238-2.234 1.553.861zM246.11 37.793l-1.553-.86 1.237-2.234 1.554.861z"/></g><path d="M120 65.303c5.512 6.164 14.372 8.99 22.375 7.135 8.002-1.855 14.837-8.317 17.259-16.319.454-1.5.743-3.201.009-4.574-1.65-3.08-6.965-1.162-7.612 2.295-.647 3.458 1.755 6.734 4.436 8.93 7.8 6.392 18.701 7.703 28.572 5.84 9.87-1.864 18.993-6.545 27.961-11.17" stroke="#E6E6E6" stroke-width="2" stroke-dasharray="10,4" opacity=".7"/></g></svg>