<svg width="92" height="15" viewBox="0 0 92 15" xmlns="http://www.w3.org/2000/svg"><title>Group 8</title><g fill="#30343F" fill-rule="evenodd"><path d="M4.086 5.587V4.381c0-.181.008-.321.024-.42a.848.848 0 0 1 .108-.294.442.442 0 0 1 .271-.2c.126-.036.292-.054.5-.054h1.135V1H4.31c-1.05 0-1.805.265-2.263.794-.459.53-.688 1.31-.688 2.34v1.453H0V8h1.36v7h2.726V8H5.9l.24-2.413H4.086zM33.767 4.152a4.929 4.929 0 0 1-1.415.387 2.47 2.47 0 0 0 1.083-1.36 4.974 4.974 0 0 1-1.565.598A2.46 2.46 0 0 0 30.07 3a2.461 2.461 0 0 0-2.4 3.018 7 7 0 0 1-5.077-2.569 2.456 2.456 0 0 0 .762 3.281 2.468 2.468 0 0 1-1.116-.308v.03c0 1.191.85 2.185 1.976 2.411a2.5 2.5 0 0 1-.649.086 2.37 2.37 0 0 1-.464-.045 2.464 2.464 0 0 0 2.301 1.707 4.95 4.95 0 0 1-3.06 1.05c-.198 0-.394-.012-.587-.033a6.976 6.976 0 0 0 3.776 1.106c4.533 0 7.01-3.746 7.01-6.994l-.008-.318a4.914 4.914 0 0 0 1.232-1.27z"/><path d="M90.45 1.541c-1.89-2.067-5.078-1.929-7.199-.334-1.807 1.36-3.084 4.377-1.565 6.431.31.42.765.676 1.269.78.134.028.242-.038.29-.165.101-.275.21-.533.233-.827.01-.112-.08-.175-.173-.18-1.378-1.52-.442-3.414.9-4.584 1.187-1.035 3.366-2.005 4.761-.812.963.822 1.036 2.36.99 3.521-.058 1.457-.564 2.993-2.068 3.456-.496.153-1.069.092-1.398-.346-.371-.496-.252-1.093-.111-1.639.216-.841.73-2.032.244-2.864-.59-1.008-1.776-.092-2.118.587-.209.413-.585 1.737-.03 2.076-.59 1.499-.987 3.146-1.256 4.726-.12.71-.232 1.491-.098 2.208.007.037.16.576.312.787-.024.135.175.184.255.078.542-.73 1.098-1.43 1.398-2.302.159-.463.218-.97.313-1.449.067-.335.203-.717.238-1.075l.006-.001c.469.362 1.099.668 1.656.777.875.17 1.907-.157 2.622-.654.109-.076.218-.167.324-.27.33-.22.631-.508.889-.87 1.481-2.082.978-5.236-.684-7.055zm-7.435 6.05a.392.392 0 0 0 .057.032l-.038.052-.083-.07a.108.108 0 0 0-.002-.065c.023.017.043.034.066.05zm-.942-4.126c-.139.242-.256.49-.353.748.077-.277.18-.544.309-.802a.23.23 0 0 0 .06.016l-.016.038zm8.422-1.032a.278.278 0 0 0-.078-.068c-.006-.01-.014-.016-.021-.025l-.03-.091c.083.108.164.22.239.335a4.121 4.121 0 0 0-.11-.15z" fill-rule="nonzero"/><g fill-rule="nonzero"><path d="M64.987 6.352h-1.046V5.306a.396.396 0 0 0-.397-.397h-1.412a.396.396 0 0 0-.397.397v1.046H60.69a.396.396 0 0 0-.396.396v1.413c0 .219.177.396.396.396h1.046v1.047c0 .218.178.396.397.396h1.412a.396.396 0 0 0 .397-.396V8.557h1.046a.396.396 0 0 0 .396-.396V6.748a.396.396 0 0 0-.396-.396zM54.587 4.433c.464 0 .91.122 1.29.353l.435.29a.39.39 0 0 0 .486-.043l1.267-1.226a.369.369 0 0 0-.053-.573l-.736-.494a.386.386 0 0 0-.047-.026l-.714-.344A5.334 5.334 0 0 0 54.56 2a5.228 5.228 0 0 0-3.63 1.441 4.994 4.994 0 0 0-1.547 3.613 4.992 4.992 0 0 0 1.498 3.634c.969.95 2.343 1.494 3.77 1.494 1.413 0 2.738-.535 3.636-1.469.71-.739 1.147-1.726 1.262-2.855a.357.357 0 0 0 .002-.032l.013-1.014a.358.358 0 0 0-.004-.062l-.056-.347a.38.38 0 0 0-.378-.316H54.7a.378.378 0 0 0-.383.374v1.494c0 .207.172.374.383.374h2.256a2.619 2.619 0 0 1-.472.672c-.45.474-1.12.746-1.839.746-.734 0-1.437-.28-1.93-.77-1.023-1.02-1.011-2.795.026-3.8a2.673 2.673 0 0 1 1.845-.744z"/></g></g></svg>