<svg width="28" height="10" viewBox="0 0 28 10" xmlns="http://www.w3.org/2000/svg"><title>I</title><path d="M25.253 5.78c.387-.223.682-.553.886-.989.203-.436.275-.864.214-1.285l.82-.473a2.728 2.728 0 0 0-.09-.313c-.096-.43-.19-.725-.282-.884a1.524 1.524 0 0 0-.462-.485 1.523 1.523 0 0 0-.608-.263c-.87.016-2.51-.009-4.917-.076a211.585 211.585 0 0 0-5.581-.125 57.953 57.953 0 0 0-4.884.179c-1.67.13-3.27.37-4.798.72-1.527.351-2.85.849-3.965 1.493C.753 4.307.26 5.426.11 6.636c.378-.187.723-.22 1.037-.097l-1.093.63c.006.695.084 1.409.234 2.142.046-.026.108-.077.186-.152.123-.102.219-.173.287-.212.91-.526 2.15-.877 3.718-1.054a60.635 60.635 0 0 0 2.991-.497c2.402-.415 4.18-.622 5.334-.62l.054.014c.19.012.318-.002.386-.041.023-.013.021-.043-.005-.088l-.02-.034a.645.645 0 0 1-.113-.117c-.62-.128-1.322-.148-2.106-.06-.784.089-1.752.238-2.906.449-1.094.207-1.87.336-2.326.387a4.726 4.726 0 0 1-.621.108c-.228.025-.355.015-.382-.03-.033-.163.007-.277.121-.343.091-.053.301-.083.63-.091l.265-.016c.502-.077 1.13-.197 1.886-.36a49.889 49.889 0 0 1 3.256-.514 13.941 13.941 0 0 1 2.612-.05l1.52.898.33-.374a3.72 3.72 0 0 0 1.737.523c.645.038 1.477.02 2.497-.052.962-.07 1.65-.088 2.064-.054l.217.376a34.564 34.564 0 0 0 1.819-.754c.59-.265 1.102-.523 1.535-.772zM4.046 7.46l-1.472.212c-.117.007-.196-.024-.235-.092-.04-.068.02-.148.18-.24l1.139-.157c.228-.132.361-.163.4-.095.04.068.036.192-.012.372z" fill="#E67E22" fill-rule="evenodd"/></svg>