<svg width="213" height="198" viewBox="0 0 213 198" xmlns="http://www.w3.org/2000/svg"><title>analytics</title><g fill-rule="nonzero" fill="none"><path d="M212.768 124.7H0V13.08C0 6.007 5.748.273 12.84.273h187.089c7.091 0 12.84 5.734 12.84 12.809V124.7z" fill="#30343F"/><path d="M150.405 197.894H62.363c0-8.084 6.57-14.638 14.674-14.638h58.694c8.104 0 14.674 6.554 14.674 14.638" fill="#E8EDEE"/><path fill="#B0B6BB" d="M132.063 183.255H80.705l7.337-29.277h36.684z"/><path d="M199.929 153.978H12.839C5.75 153.978 0 148.244 0 141.17v-16.468h212.768v16.468c0 7.075-5.748 12.81-12.84 12.81" fill="#E8EDEE"/><g fill="#25AE88"><path d="M121.058 113.722a3.663 3.663 0 0 1-3.669-3.66V99.083c0-2.02 1.64-3.66 3.669-3.66a3.663 3.663 0 0 1 3.668 3.66v10.98c0 2.02-1.64 3.659-3.668 3.659M135.732 113.722a3.663 3.663 0 0 1-3.669-3.66V84.444c0-2.02 1.64-3.66 3.669-3.66a3.663 3.663 0 0 1 3.668 3.66v25.618c0 2.02-1.64 3.66-3.668 3.66M150.405 113.722a3.663 3.663 0 0 1-3.669-3.66V91.763c0-2.02 1.64-3.66 3.67-3.66a3.663 3.663 0 0 1 3.668 3.66v18.299c0 2.02-1.64 3.66-3.669 3.66M165.079 113.722a3.663 3.663 0 0 1-3.669-3.66V66.146c0-2.02 1.64-3.66 3.669-3.66a3.663 3.663 0 0 1 3.668 3.66v43.916c0 2.02-1.64 3.66-3.668 3.66M179.753 113.722a3.663 3.663 0 0 1-3.67-3.66V80.784c0-2.02 1.64-3.66 3.67-3.66a3.663 3.663 0 0 1 3.668 3.66v29.278c0 2.02-1.64 3.66-3.668 3.66"/></g><path d="M99.047 60.656c0 21.223-17.245 38.427-38.518 38.427-21.274 0-38.519-17.204-38.519-38.427S39.255 22.23 60.53 22.23c21.273 0 38.518 17.205 38.518 38.427" fill="#DD691D"/><path d="M58.745 22.27c-.018.018-.03.033-.052.051v40.03c0 .077.063.136.136.136h40.125c.019-.019.033-.03.052-.052 1.023-22.628-17.58-41.186-40.261-40.165" fill="#ECBA16"/><g fill="#DD691D"><path d="M161.41 40.528h-29.347a3.663 3.663 0 0 1-3.669-3.66c0-2.02 1.64-3.66 3.669-3.66h29.347a3.663 3.663 0 0 1 3.669 3.66c0 2.02-1.64 3.66-3.669 3.66M179.753 40.528c-.954 0-1.912-.402-2.605-1.061-.147-.183-.33-.366-.44-.549a2.76 2.76 0 0 1-.33-.659 2.33 2.33 0 0 1-.22-.658c-.037-.257-.074-.513-.074-.733 0-.22.037-.476.073-.732.037-.22.11-.439.22-.658.074-.22.184-.44.33-.66.11-.182.294-.365.44-.548 1.358-1.354 3.816-1.354 5.21 0 .66.695 1.064 1.61 1.064 2.598 0 .988-.404 1.903-1.064 2.599-.697.659-1.65 1.061-2.604 1.061M179.753 22.23h-11.006a3.663 3.663 0 0 1-3.668-3.66c0-2.02 1.64-3.66 3.668-3.66h11.006a3.663 3.663 0 0 1 3.668 3.66c0 2.02-1.64 3.66-3.668 3.66M139.4 22.23h-7.337a3.663 3.663 0 0 1-3.669-3.66c0-2.02 1.64-3.66 3.669-3.66h7.337a3.663 3.663 0 0 1 3.668 3.66c0 2.02-1.64 3.66-3.668 3.66M154.074 22.23c-.954 0-1.912-.403-2.605-1.061-.664-.696-1.064-1.647-1.064-2.599 0-.951.4-1.903 1.064-2.599.367-.329.734-.585 1.21-.768 1.358-.586 2.972-.256 3.999.768.66.696 1.064 1.647 1.064 2.599 0 .951-.404 1.903-1.064 2.599-.697.658-1.65 1.06-2.604 1.06"/></g></g></svg>