<svg width="111" height="226" viewBox="0 0 111 226" xmlns="http://www.w3.org/2000/svg"><title>pineapple</title><g fill="none" fill-rule="evenodd"><path d="M104.48 169.495c0-35.719-23.273-77.348-51.98-77.348-28.707 0-51.98 41.63-51.98 77.348 0 35.72 23.273 52.003 51.98 52.003 28.707 0 51.98-16.283 51.98-52.003z" fill="#FBB03B"/><path d="M67.118 95.643c19.19-19.2 39.226-58.71 39.226-58.71s-16.027 8.135-32.622 19.002c8.853-15.625 15.907-32.642 15.907-32.642S76.47 31.465 64.002 41.888c6.303-16.7 11.65-37.386 11.65-37.386S61.218 18.875 52.5 33.811C43.78 18.875 29.349 4.502 29.349 4.502s5.346 20.686 11.649 37.386C28.529 31.465 15.371 23.293 15.371 23.293s7.053 17.017 15.907 32.642C14.682 45.068-1.345 36.933-1.345 36.933s20.036 39.511 39.226 58.71h29.237z" fill="#39B54A"/><path d="M35.152 177.049a4.504 4.504 0 0 0 0-6.367l-8.299-8.303a4.5 4.5 0 0 0-6.364 0l-8.736 8.74a4.504 4.504 0 0 0 3.182 7.686c1.151 0 2.303-.44 3.182-1.319l5.554-5.556 5.117 5.12a4.5 4.5 0 0 0 6.364-.001zM68.538 166.75a4.504 4.504 0 0 0 3.181 7.685c1.152 0 2.304-.44 3.182-1.319l5.554-5.556 5.118 5.12a4.5 4.5 0 0 0 6.364 0 4.504 4.504 0 0 0 0-6.367l-8.3-8.303a4.5 4.5 0 0 0-6.364 0l-8.735 8.74zM62.671 152.328l-8.299-8.303a4.5 4.5 0 0 0-6.364 0l-8.736 8.74a4.504 4.504 0 0 0 3.182 7.686c1.151 0 2.303-.44 3.182-1.32l5.554-5.555 5.117 5.12a4.5 4.5 0 0 0 6.364 0 4.504 4.504 0 0 0 0-6.368zM41.705 187.725a4.5 4.5 0 0 0-6.364 0l-8.736 8.74a4.504 4.504 0 0 0 3.182 7.685c1.151 0 2.303-.44 3.182-1.318l5.554-5.557 5.116 5.12a4.498 4.498 0 0 0 6.365 0 4.504 4.504 0 0 0 0-6.367l-8.3-8.303zM78.833 185.103a4.5 4.5 0 0 0-6.365 0l-8.736 8.74a4.504 4.504 0 0 0 3.182 7.686c1.152 0 2.303-.44 3.182-1.32l5.554-5.555 5.118 5.12a4.5 4.5 0 0 0 6.364 0 4.504 4.504 0 0 0 0-6.368l-8.3-8.303zM25.418 137.29c1.152 0 2.303-.44 3.182-1.319l5.554-5.556 5.117 5.12a4.5 4.5 0 0 0 6.365 0 4.504 4.504 0 0 0 0-6.367l-8.3-8.303a4.5 4.5 0 0 0-6.364 0l-8.736 8.74a4.504 4.504 0 0 0 3.182 7.685zM64.17 111.25l-8.736 8.74a4.504 4.504 0 0 0 3.181 7.686c1.152 0 2.304-.44 3.182-1.319l5.554-5.556 5.117 5.12a4.5 4.5 0 0 0 6.365 0 4.504 4.504 0 0 0 0-6.367l-8.3-8.303a4.499 4.499 0 0 0-6.364 0z" fill="#000"/><path d="M109.527 33.75a4.5 4.5 0 0 0-5.219-.832c-.467.237-8.438 4.297-18.917 10.48 4.895-9.969 8.196-17.9 8.395-18.38a4.503 4.503 0 0 0-1.244-5.156 4.498 4.498 0 0 0-5.287-.394c-.367.229-6.357 3.962-14.055 9.57 3.887-12.153 6.649-22.795 6.808-23.41a4.502 4.502 0 0 0-2.12-5.032 4.498 4.498 0 0 0-5.412.715C71.953 1.833 61.171 12.625 52.5 25.4 43.828 12.625 33.047 1.833 32.523 1.311a4.498 4.498 0 0 0-5.412-.715 4.503 4.503 0 0 0-2.12 5.033c.16.614 2.921 11.256 6.809 23.408-7.698-5.606-13.688-9.34-14.055-9.569a4.498 4.498 0 0 0-5.287.394 4.503 4.503 0 0 0-1.244 5.156c.2.48 3.5 8.412 8.395 18.38C9.129 37.215 1.159 33.155.69 32.918a4.498 4.498 0 0 0-5.218.832 4.504 4.504 0 0 0-.83 5.22c.776 1.531 18.057 35.42 36.2 55.76C10.94 108.23-3.98 139.584-3.98 169.496c0 18.04 5.775 32.816 16.7 42.73C22.653 221.238 36.408 226 52.5 226s29.848-4.763 39.778-13.774c10.926-9.914 16.701-24.69 16.701-42.73 0-14.988-3.847-31.094-10.834-45.352-6.313-12.884-14.712-23.146-23.986-29.418C92.3 74.386 109.58 40.5 110.357 38.97a4.503 4.503 0 0 0-.83-5.22zm-19.463 94.357c6.394 13.05 9.916 27.748 9.916 41.388 0 29.744-17.75 47.501-47.48 47.501-29.73 0-47.48-17.757-47.48-47.5 0-28.453 15.283-59.267 34.24-69.351H65.74c9.262 4.922 17.898 14.85 24.323 27.962zM65.224 91.14H39.775C28.575 79.414 17.078 60.763 9.91 48.187c5.507 3.139 12.174 7.107 18.905 11.515a4.499 4.499 0 0 0 5.543-.483 4.503 4.503 0 0 0 .836-5.503c-3.424-6.043-6.592-12.338-9.17-17.74 3.77 2.73 7.979 5.931 12.09 9.367a4.5 4.5 0 0 0 7.095-5.045c-2.181-5.778-4.256-12.08-6.029-17.819 3.292 4.174 6.674 8.873 9.435 13.602a4.499 4.499 0 0 0 7.772 0c2.757-4.723 6.14-9.421 9.434-13.597-1.773 5.734-3.847 12.035-6.028 17.813a4.503 4.503 0 0 0 1.603 5.26 4.497 4.497 0 0 0 5.492-.214c4.11-3.436 8.32-6.638 12.09-9.368-2.577 5.399-5.744 11.693-9.17 17.74a4.504 4.504 0 0 0 .836 5.504 4.497 4.497 0 0 0 5.543.483c6.725-4.404 13.395-8.374 18.904-11.514-7.168 12.576-18.665 31.226-29.866 42.953z" fill="#000"/><path d="M52.186 66.292l-5.678-4.37a4.497 4.497 0 0 0-6.31.824 4.503 4.503 0 0 0 .822 6.313l5.679 4.37a4.48 4.48 0 0 0 2.74.934 4.504 4.504 0 0 0 2.747-8.07z" fill="#000"/></g></svg>