<svg width="58" height="226" viewBox="0 0 58 226" xmlns="http://www.w3.org/2000/svg" xmlns:xlink="http://www.w3.org/1999/xlink"><title>pineapple copy</title><defs><path id="a" d="M0 0h58v251H0z"/></defs><g transform="translate(0 -10)" fill="none" fill-rule="evenodd"><mask id="b" fill="#fff"><use xlink:href="#a"/></mask><g mask="url(#b)"><path d="M51.48 179.495c0-35.719-23.273-77.348-51.98-77.348-28.707 0-51.98 41.63-51.98 77.348 0 35.72 23.273 52.003 51.98 52.003 28.707 0 51.98-16.283 51.98-52.003z" fill="#FBB03B"/><path d="M14.118 105.643c19.19-19.2 39.226-58.71 39.226-58.71s-16.027 8.135-32.622 19.002c8.853-15.625 15.907-32.642 15.907-32.642S23.47 41.465 11.002 51.888c6.303-16.7 11.65-37.386 11.65-37.386S8.218 28.875-.5 43.811c-8.72-14.936-23.151-29.309-23.151-29.309s5.346 20.686 11.649 37.386c-12.469-10.423-25.627-18.595-25.627-18.595s7.053 17.017 15.907 32.642c-16.596-10.867-32.623-19.002-32.623-19.002s20.036 39.511 39.226 58.71h29.237z" fill="#39B54A"/><g fill="#000"><path d="M15.538 176.75a4.504 4.504 0 0 0 3.181 7.685c1.152 0 2.304-.44 3.182-1.319l5.554-5.556 5.118 5.12a4.5 4.5 0 0 0 6.364 0 4.504 4.504 0 0 0 0-6.367l-8.3-8.303a4.5 4.5 0 0 0-6.364 0l-8.735 8.74zM9.671 162.328l-8.299-8.303a4.5 4.5 0 0 0-6.364 0l-8.736 8.74a4.504 4.504 0 0 0 3.182 7.686c1.151 0 2.303-.44 3.182-1.32l5.554-5.555 5.117 5.12a4.5 4.5 0 0 0 6.364 0 4.504 4.504 0 0 0 0-6.368zM25.833 195.103a4.5 4.5 0 0 0-6.365 0l-8.736 8.74a4.504 4.504 0 0 0 3.182 7.686c1.152 0 2.304-.44 3.182-1.32l5.554-5.555 5.118 5.12a4.5 4.5 0 0 0 6.364 0 4.504 4.504 0 0 0 0-6.368l-8.3-8.303zM11.17 121.25l-8.736 8.74a4.504 4.504 0 0 0 3.181 7.686c1.152 0 2.304-.44 3.182-1.319l5.554-5.556 5.117 5.12a4.5 4.5 0 0 0 6.365 0 4.504 4.504 0 0 0 0-6.367l-8.3-8.303a4.499 4.499 0 0 0-6.364 0z"/><path d="M56.527 43.75a4.5 4.5 0 0 0-5.219-.832c-.467.237-8.438 4.297-18.917 10.48 4.896-9.969 8.196-17.9 8.395-18.38a4.503 4.503 0 0 0-1.244-5.156 4.498 4.498 0 0 0-5.287-.394c-.367.229-6.357 3.962-14.055 9.57 3.887-12.153 6.649-22.795 6.808-23.41a4.502 4.502 0 0 0-2.12-5.032 4.498 4.498 0 0 0-5.412.715C18.953 11.833 8.171 22.625-.5 35.4c-8.672-12.774-19.453-23.566-19.977-24.088a4.498 4.498 0 0 0-5.412-.715 4.503 4.503 0 0 0-2.12 5.033c.16.614 2.921 11.256 6.809 23.408-7.698-5.606-13.688-9.34-14.055-9.569a4.498 4.498 0 0 0-5.287.394 4.503 4.503 0 0 0-1.244 5.156c.2.48 3.5 8.412 8.395 18.38-10.48-6.183-18.45-10.243-18.918-10.48a4.498 4.498 0 0 0-5.218.832 4.504 4.504 0 0 0-.83 5.22c.776 1.531 18.057 35.42 36.2 55.76-19.903 13.5-34.823 44.854-34.823 74.766 0 18.04 5.775 32.816 16.7 42.73C-30.347 231.238-16.592 236-.5 236s29.848-4.763 39.778-13.774c10.926-9.914 16.701-24.69 16.701-42.73 0-14.988-3.847-31.094-10.834-45.352-6.313-12.884-14.712-23.146-23.987-29.418C39.301 84.386 56.581 50.5 57.357 48.97a4.503 4.503 0 0 0-.83-5.22zm-19.463 94.357c6.394 13.05 9.916 27.748 9.916 41.388 0 29.744-17.75 47.501-47.48 47.501-29.73 0-47.48-17.757-47.48-47.5 0-28.453 15.283-59.267 34.24-69.351H12.74c9.262 4.922 17.898 14.85 24.323 27.962zm-24.84-36.966h-25.449c-11.2-11.727-22.697-30.378-29.866-42.954 5.507 3.139 12.174 7.107 18.905 11.515a4.499 4.499 0 0 0 5.543-.483 4.503 4.503 0 0 0 .836-5.503c-3.424-6.043-6.592-12.338-9.17-17.74 3.77 2.73 7.979 5.931 12.09 9.367a4.5 4.5 0 0 0 7.095-5.045c-2.181-5.778-4.256-12.08-6.029-17.819 3.292 4.174 6.674 8.873 9.435 13.602a4.499 4.499 0 0 0 7.772 0c2.757-4.723 6.14-9.421 9.434-13.597-1.773 5.734-3.847 12.035-6.028 17.813a4.503 4.503 0 0 0 1.603 5.26 4.497 4.497 0 0 0 5.492-.214c4.11-3.436 8.32-6.638 12.09-9.368-2.577 5.399-5.744 11.693-9.17 17.74a4.504 4.504 0 0 0 .836 5.504 4.497 4.497 0 0 0 5.543.483c6.725-4.404 13.395-8.374 18.904-11.514-7.168 12.576-18.665 31.226-29.866 42.953z"/><path d="M-.814 76.292l-5.678-4.37a4.497 4.497 0 0 0-6.31.824 4.503 4.503 0 0 0 .822 6.313l5.679 4.37a4.48 4.48 0 0 0 2.74.934 4.504 4.504 0 0 0 2.747-8.07z"/></g></g></g></svg>