<svg width="410" height="63" viewBox="0 0 410 63" xmlns="http://www.w3.org/2000/svg"><title>Group 10 Copy 2</title><g stroke="#CFCFCF" stroke-width="2" fill="none" fill-rule="evenodd" opacity=".7" stroke-dasharray="6"><path d="M261.775 54.783c50.873 17.086 52.98-1.231 61.855-4.646 8.874-3.415 15.668-11.924 17.154-21.486.28-1.793.337-3.79-.726-5.244-2.386-3.265-8.17-.21-8.355 3.857-.185 4.067 3.096 7.436 6.522 9.521 9.973 6.07 24.397 10.05 35.411 6.324 11.014-3.726 29.8-12.528 36.353-36.597M1 1c16 15.886 45.048 13.973 45.048 13.973s19.345 3.665 27.446-1.628c1.519-.992 3.042-2.286 3.411-4.05.83-3.957-5.31-6.212-8.457-3.628-3.146 2.584-3.454 7.277-2.711 11.219 2.162 11.472 8.856 24.855 18.995 30.547 10.139 5.692 29.25 13.763 51.522 2.527"/></g></svg>