<svg width="733" height="44" viewBox="0 0 733 44" xmlns="http://www.w3.org/2000/svg"><title>Group 7</title><g fill="none" fill-rule="evenodd"><path d="M1.5 25.5h730" stroke="#E7E7E7" stroke-width="3" stroke-linecap="round" stroke-linejoin="round"/><g stroke="#D4D4D4"><path d="M678.847 2c-4.009 0-8.027 3.203-11.314 9.02C664.779 15.893 663 21.878 663 26.267c0 8.667 7.109 15.718 15.847 15.718 8.737 0 15.846-7.051 15.846-15.718 0-4.39-1.779-10.374-4.532-15.247C686.873 5.203 682.855 2 678.847 2z" stroke-width="2.592" fill="#FFF"/><path stroke-width="1.296" stroke-linecap="round" stroke-linejoin="round" d="M686.671 6.783l-3.945 3.913 3.507.434-3.945 2.174 3.068.435-3.507 3.913"/></g><g fill="#D8D8D8"><path d="M673.5 20a1.5 1.5 0 1 0 0-3 1.5 1.5 0 0 0 0 3zM675.5 31a1.5 1.5 0 1 0 0-3 1.5 1.5 0 0 0 0 3zM683.5 24a1.5 1.5 0 1 0 0-3 1.5 1.5 0 0 0 0 3z"/></g></g></svg>