<svg width="20" height="20" viewBox="0 0 20 20" xmlns="http://www.w3.org/2000/svg"><title>expandia__app-img--facebook</title><g fill-rule="nonzero" fill="#000"><path d="M2.931 14.828c-.95 0-1.724.773-1.724 1.724 0 .95.773 1.724 1.724 1.724.95 0 1.724-.774 1.724-1.724 0-.951-.773-1.724-1.724-1.724zm0 2.758c-.57 0-1.034-.464-1.034-1.034 0-.57.464-1.035 1.034-1.035a1.036 1.036 0 0 1 0 2.069z"/><path d="M19.138 12.069c0-.86-.474-1.263-.936-1.46.362-.316.591-.781.591-1.299 0-.95-.773-1.724-1.724-1.724h-4.954l.252-1.176c.335-1.568.115-3.35.04-3.859C12.227 1.347 11.163 0 10.004 0h-.082c-.55 0-1.474.313-1.474 2.414 0 2.766-.69 4.032-1.269 4.607-.568.563-1.114.557-1.145.565H5.69v-.69H.172V20H5.69v-.69h9.655a1.726 1.726 0 0 0 1.355-2.788 1.727 1.727 0 0 0 1.035-2.759 1.727 1.727 0 0 0 1.403-1.694zM.862 19.31V7.586H5V19.31H.862zm16.552-6.207H13.62a.345.345 0 1 0 0 .69h2.758a1.036 1.036 0 0 1 0 2.069h-3.448a.345.345 0 1 0 0 .69h2.414c.57 0 1.034.464 1.034 1.034 0 .57-.464 1.035-1.034 1.035H5.69V8.276h.334c.033.006.834.017 1.614-.74.995-.964 1.5-2.687 1.5-5.122 0-.644.102-1.724.784-1.724h.082c.77 0 1.59 1.079 1.72 1.962.072.48.28 2.159-.032 3.614l-.43 2.01h5.807c.57 0 1.034.464 1.034 1.034 0 .57-.464 1.035-1.034 1.035H13.621a.345.345 0 1 0 0 .69h2.413c.305 0 .975.013 1.33.066.9.133 1.084.483 1.084.968 0 .57-.464 1.034-1.034 1.034z"/></g></svg>