<svg width="16" height="20" viewBox="0 0 16 20" xmlns="http://www.w3.org/2000/svg"><title>expandia__app-img--sales</title><g fill-rule="nonzero" fill="#000"><path d="M9.575 0h-8.15C.64 0 0 .659 0 1.468v17.063C0 19.341.64 20 1.425 20h8.15C10.36 20 11 19.341 11 18.532V1.468C11 .66 10.36 0 9.575 0zM.647 2.667h9.706v12.666H.647V2.667zm.778-2h8.15c.429 0 .778.36.778.801V2H.647v-.532c0-.442.35-.801.778-.801zm8.15 18.666h-8.15a.791.791 0 0 1-.778-.801V16h9.706v2.532c0 .442-.35.801-.778.801z"/><path d="M5.5 16c-.827 0-1.5.673-1.5 1.5S4.673 19 5.5 19 7 18.327 7 17.5 6.327 16 5.5 16zm0 2.25a.75.75 0 1 1 .002-1.502.75.75 0 0 1-.002 1.502zM4.333 2h1.334C5.85 2 6 1.776 6 1.5S5.851 1 5.667 1H4.333C4.15 1 4 1.224 4 1.5s.149.5.333.5zM7.333 2h.334C7.85 2 8 1.776 8 1.5S7.851 1 7.667 1h-.334C7.15 1 7 1.224 7 1.5s.149.5.333.5zM14.67 1.104a.423.423 0 0 0-.555 0 .33.33 0 0 0 0 .5c1.467 1.321 1.467 3.47 0 4.792a.33.33 0 0 0 0 .5.415.415 0 0 0 .278.104c.1 0 .2-.035.277-.104 1.773-1.596 1.773-4.195 0-5.792z"/><path d="M13.405 2.092c-.092-.123-.243-.123-.335 0a.391.391 0 0 0 0 .446c.293.39.455.91.455 1.462 0 .553-.162 1.072-.455 1.462a.391.391 0 0 0 0 .446.212.212 0 0 0 .168.092c.06 0 .121-.03.167-.092C13.79 5.399 14 4.72 14 4c0-.72-.21-1.399-.595-1.908z"/></g></svg>