<svg width="25" height="20" viewBox="0 0 25 20" xmlns="http://www.w3.org/2000/svg"><title>Shape</title><path d="M24.38 2.25a.547.547 0 0 0-.499-.126l-.832.292c.5-.583.832-1.207 1.04-1.79.084-.208.042-.375-.083-.5a.443.443 0 0 0-.5-.083c-1.165.5-2.164.916-2.996 1.166 0 .041-.042 0-.083 0C19.76.834 18.137.002 16.972.002c-2.955.041-5.327 2.539-5.327 5.577v.166C7.316 4.913 4.944 3.665 2.363.96L1.947.543l-.25.5c-1.415 2.705-.416 5.16 1.207 6.825-.749-.125-1.248-.375-1.706-.75-.166-.124-.375-.166-.583-.04-.166.083-.25.332-.208.54.583 1.956 2.04 3.538 3.621 4.495-.749 0-1.373-.083-1.998-.5a.587.587 0 0 0-.582.043c-.167.124-.25.332-.167.54.75 2.123 2.206 3.247 4.537 3.538-1.207.708-2.789 1.29-5.244 1.332a.593.593 0 0 0-.541.375c-.084.25 0 .458.166.624 1.499 1.207 4.828 1.915 8.949 1.915 7.325 0 13.318-6.535 13.318-14.568v-.124c.916-.458 1.665-1.332 2.04-2.54a.547.547 0 0 0-.125-.499zm-2.496 2.372l-.25.083v.707c0 7.575-5.619 13.735-12.486 13.735-3.788 0-6.327-.624-7.7-1.29 2.872-.208 4.536-1.124 5.827-2.123l1.04-.749H7.067c-2.373 0-3.83-.666-4.662-2.247.75.25 1.54.25 2.414.208.333-.042.666-.042.999-.042l.125-.832c-1.582-.458-3.455-1.873-4.37-3.788.832.375 1.748.458 2.58.458h1.29l-1.04-.75C3.529 7.37.948 5.163 2.197 2 4.86 4.622 7.4 5.83 11.977 6.661l.5.083V5.58c0-2.58 1.998-4.703 4.495-4.745.958-.042 2.54.832 2.997 1.082.25.125.5.167.75.083.624-.208 1.373-.499 2.205-.832a6.652 6.652 0 0 1-1.54 1.748c-.166.125-.208.375-.125.583.084.208.333.291.541.208l1.624-.541c-.292.54-.75 1.165-1.54 1.457z" fill-rule="nonzero" fill="#30343F"/></svg>