<svg width="17" height="16" viewBox="0 0 17 16" xmlns="http://www.w3.org/2000/svg"><title>Group 5</title><g fill="#D9D9D9" fill-rule="evenodd"><path d="M11.823 0H4.802C2.417 0 .477 1.97.477 4.391v7.13c0 2.42 1.94 4.39 4.325 4.39h7.02c2.385 0 4.325-1.97 4.325-4.39V4.39C16.147 1.97 14.207 0 11.823 0zm2.934 11.52c0 1.643-1.316 2.98-2.934 2.98H4.802c-1.618 0-2.934-1.337-2.934-2.98V4.392c0-1.643 1.316-2.98 2.934-2.98h7.02c1.619 0 2.935 1.337 2.935 2.98v7.13z"/><path d="M8.312 3.856c-2.226 0-4.037 1.84-4.037 4.1s1.811 4.1 4.037 4.1c2.227 0 4.038-1.84 4.038-4.1s-1.811-4.1-4.038-4.1zm0 6.788c-1.46 0-2.647-1.206-2.647-2.688 0-1.482 1.188-2.688 2.647-2.688 1.46 0 2.648 1.206 2.648 2.688 0 1.482-1.188 2.688-2.648 2.688zM11.8 2.962a1.048 1.048 0 0 0 0 1.464c.188.192.452.304.72.304.268 0 .53-.112.72-.304a1.051 1.051 0 0 0 0-1.464 1.016 1.016 0 0 0-.72-.303c-.268 0-.532.11-.72.303z"/></g></svg>