<svg width="22" height="20" viewBox="0 0 22 20" xmlns="http://www.w3.org/2000/svg"><title>expandia__app-img--website</title><path d="M19.648 15.496l-3.412-1.706a.94.94 0 0 1-.522-.844v-1.208c.082-.1.168-.214.257-.34a8.174 8.174 0 0 0 1.055-2.07c.504-.232.831-.73.831-1.292V6.607c0-.344-.128-.677-.357-.937v-1.9c.02-.196.099-1.366-.747-2.33C16.019.603 14.829.179 13.214.179c-1.614 0-2.805.424-3.538 1.26a3.102 3.102 0 0 0-.737 1.716c-.613-.316-1.334-.476-2.153-.476-3.71 0-3.927 3.162-3.929 3.214v1.635c-.231.252-.357.543-.357.832v1.234c0 .385.172.745.468.987.295 1.111 1.02 1.95 1.302 2.245v.98a.776.776 0 0 1-.419.684l-2.376 1.49A2.83 2.83 0 0 0 0 18.465v1.356H21.429v-1.444a3.205 3.205 0 0 0-1.781-2.88zM5 18.308v.8H.714v-.643c0-.775.423-1.487 1.122-1.869l2.376-1.49a1.48 1.48 0 0 0 .772-1.3v-1.283l-.114-.106c-.01-.008-.958-.905-1.239-2.127L3.6 10.15l-.122-.079a.568.568 0 0 1-.263-.476V8.36c0-.128.088-.281.24-.419l.117-.106V5.914c.006-.103.192-2.521 3.215-2.521.854 0 1.574.197 2.143.587v1.69c-.229.26-.358.593-.358.937v1.429c0 .108.013.215.037.319.01.041.028.079.042.119.02.06.035.122.063.178v.002c.092.189.225.357.393.492l.006.02c.021.081.044.163.068.242l.029.093.016.05.038.115c.021.062.044.127.07.197.01.03.023.056.034.085l.09.218.021.053.02.045c.01.02.02.039.028.06.035.076.07.15.105.221l.017.035.068.13a7.789 7.789 0 0 0 .317.55l.03.048c.087.134.162.242.224.327l.044.06.026.035v1.182a.944.944 0 0 1-.492.829l-.945.515-.165-.015-.067.142-2.01 1.096A3.222 3.222 0 0 0 5 18.308zm15.714.8h-15v-.8c0-.918.501-1.762 1.307-2.202l3.186-1.737c.533-.291.864-.85.864-1.457v-1.435l-.069-.083-.013-.016-.06-.075a3.394 3.394 0 0 1-.073-.098v-.002a6.488 6.488 0 0 1-.195-.285l-.005-.008a6.96 6.96 0 0 1-.11-.178l-.008-.014a7.31 7.31 0 0 1-.252-.458v-.001a7.228 7.228 0 0 1-.136-.287l-.018-.04a7.189 7.189 0 0 1-.06-.14l-.02-.054a5.896 5.896 0 0 1-.161-.451l-.02-.064-.007-.022a5.59 5.59 0 0 1-.093-.346l-.033-.142-.122-.078a.712.712 0 0 1-.33-.6V6.608c0-.2.085-.387.239-.527l.118-.106v-2.35l-.01-.008c-.012-.258.003-1.048.58-1.706.592-.675 1.602-1.017 3.001-1.017 1.395 0 2.403.34 2.995 1.01.696.786.58 1.792.58 1.8l-.003 2.271.118.107c.154.139.239.326.239.526v1.429a.71.71 0 0 1-.508.678l-.178.055-.057.176a7.477 7.477 0 0 1-1.012 2.04 4.7 4.7 0 0 1-.3.386l-.088.101v1.474c0 .632.351 1.2.916 1.483l3.412 1.706a2.494 2.494 0 0 1 1.386 2.242v.73z" fill-rule="nonzero" fill="#000"/></svg>