<svg width="422" height="241" viewBox="0 0 422 241" xmlns="http://www.w3.org/2000/svg" xmlns:xlink="http://www.w3.org/1999/xlink"><title>work__img</title><defs><rect id="a" x="14.047" width="334.246" height="187.877" rx="4.8"/><mask id="e" x="0" y="0" width="334.246" height="187.877" fill="#fff"><use xlink:href="#a"/></mask><path id="b" d="M1.348 1.728h283v170.977h-283z"/><mask id="f" x="0" y="0" width="283" height="170.977" fill="#fff"><use xlink:href="#b"/></mask><rect id="c" width="117" height="241" rx="15.3"/><mask id="g" x="0" y="0" width="117" height="241" fill="#fff"><use xlink:href="#c"/></mask><path id="h" d="M.496.202H104.11v183.973H.496z"/><path id="d" d="M0 0h105v185H0z"/><mask id="j" x="0" y="0" width="105" height="185" fill="#fff"><use xlink:href="#d"/></mask></defs><g fill="none" fill-rule="evenodd"><g transform="translate(0 26)"><use stroke="#979797" mask="url(#e)" stroke-width="1.2" fill="#D8D8D8" xlink:href="#a"/><use mask="url(#f)" xlink:href="#b" transform="translate(20.652 5.292)" stroke="#979797" stroke-width="2" fill="#D8D8D8"/><rect fill="#767676" x=".175" y="185.892" width="361.99" height="11.908" rx="1.8"/></g><g stroke="#979797" transform="translate(305)"><use stroke-opacity=".307" mask="url(#g)" fill="#F5F4F4" xlink:href="#c"/><ellipse stroke-width=".9" cx="58.5" cy="225.628" rx="9.915" ry="9.918"/><ellipse stroke-width=".5" cx="57.508" cy="7.438" rx="1.487" ry="1.488"/><path d="M48.833 14.629h17.351" stroke-width="1.35" stroke-linecap="round" fill="#979797"/></g><g transform="translate(310.95 27.071)"><mask id="i" fill="#fff"><use xlink:href="#h"/></mask><use fill="#D8D8D8" xlink:href="#h"/><use mask="url(#j)" xlink:href="#d" stroke-width="2" stroke="#979797" fill="#D8D8D8"/></g></g></svg>