<svg style="display: none;"><defs><rect id="expandia__work-img-path-1" x="14.047" width="334.246" height="187.877" rx="4.8"/><mask id="expandia__work-img-mask-2" x="0" y="0" width="334.246" height="187.877" fill="#fff"><use xlink:href="#expandia__work-img-path-1"/></mask><path id="expandia__work-img-path-3" d="M1.348 1.728h283v170.977h-283z"/><mask id="expandia__work-img-mask-4" x="0" y="0" width="283" height="170.977" fill="#fff"><use xlink:href="#expandia__work-img-path-3"/></mask><rect id="expandia__work-img-path-5" width="117" height="241" rx="15.3"/><mask id="expandia__work-img-mask-6" x="0" y="0" width="117" height="241" fill="#fff"><use xlink:href="#expandia__work-img-path-5"/></mask><path id="expandia__work-img-path-7" d="M.496.202H104.11v183.973H.496z"/><path id="expandia__work-img-path-9" d="M0 0h105v185H0z"/><mask id="expandia__work-img-mask-10" x="0" y="0" width="105" height="185" fill="#fff"><use xlink:href="#expandia__work-img-path-9"/></mask></defs><symbol viewBox="0 0 30 56" id="svg-arrow--left"><title>arrow--left</title><g id="arrow--left-Page-1" fill="none" fill-rule="evenodd"><g id="arrow--left-Desktop" transform="translate(-789 -1413)" fill="#FFF"><path d="M789 1465.748c.91 2.414 1.252 2.881 3.073 3.196 1.138-1.26.445-.678 3.48-3.722 5.008-4.934 8.726-6.297 11.155-9.237l2.504-2.991a77.422 77.422 0 0 1 1.934-2.362c2.201-2.624 3.757-4.671 4.667-6.14l3.187-11.495c-2.2-1.155-5.008-3.464-8.423-6.928-1.972-1.89-3.642-3.438-5.008-4.645-1.365-1.207-3.035-2.388-5.008-3.543-1.973-1.155-.934-2.152-3.704-2.992-2.77-.84.186-1.47-3.532-1.889l-.569 1.732 6.374 8.345-2.39 1.732 15.138 14.329c-.456 1.47-1.518 2.991-3.187 4.566-1.67 1.574-4.136 3.569-7.399 5.983-2.959 2.1-5.406 3.99-7.34 5.669-1.936 1.68-3.434 3.359-4.497 5.038l2.618.788-3.073 4.566z" id="arrow--left-&amp;gt;" transform="matrix(-1 0 0 1 1608 0)"/></g></g></symbol><symbol viewBox="0 0 30 56" id="svg-arrow--right"><title>arrow--right</title><g id="arrow--right-Page-1" fill="none" fill-rule="evenodd"><g id="arrow--right-Desktop" transform="translate(-789 -1413)" fill="#FFF"><path d="M789 1465.748c.91 2.414 1.252 2.881 3.073 3.196 1.138-1.26.445-.678 3.48-3.722 5.008-4.934 8.726-6.297 11.155-9.237l2.504-2.991a77.422 77.422 0 0 1 1.934-2.362c2.201-2.624 3.757-4.671 4.667-6.14l3.187-11.495c-2.2-1.155-5.008-3.464-8.423-6.928-1.972-1.89-3.642-3.438-5.008-4.645-1.365-1.207-3.035-2.388-5.008-3.543-1.973-1.155-.934-2.152-3.704-2.992-2.77-.84.186-1.47-3.532-1.889l-.569 1.732 6.374 8.345-2.39 1.732 15.138 14.329c-.456 1.47-1.518 2.991-3.187 4.566-1.67 1.574-4.136 3.569-7.399 5.983-2.959 2.1-5.406 3.99-7.34 5.669-1.936 1.68-3.434 3.359-4.497 5.038l2.618.788-3.073 4.566z" id="arrow--right-&amp;gt;"/></g></g></symbol><symbol viewBox="0 0 28 10" id="svg-expandia__dash-icon"><title>expandia__dash-icon</title><g id="expandia__dash-icon-Page-1" fill="none" fill-rule="evenodd"><g id="expandia__dash-icon-Desktop" transform="translate(-499 -776)" fill="#E67E22"><path d="M519.06 770.7c0-.447-.137-.867-.413-1.262-.276-.394-.612-.67-1.006-.828v-.946a2.728 2.728 0 0 0-.315-.08c-.421-.13-.723-.196-.907-.196-.21 0-.428.052-.651.157-.224.105-.401.237-.533.395-.42.762-1.261 2.169-2.523 4.22a211.585 211.585 0 0 0-2.9 4.771 57.953 57.953 0 0 0-2.286 4.319 32.745 32.745 0 0 0-1.775 4.515c-.46 1.499-.69 2.892-.69 4.18.473 1.236 1.196 2.222 2.169 2.958.026-.42.17-.736.434-.946v1.262c.604.341 1.262.63 1.971.867 0-.052-.013-.131-.039-.236a2.372 2.372 0 0 1-.04-.355c0-1.052.316-2.3.947-3.747.263-.63.618-1.577 1.065-2.84.841-2.287 1.551-3.93 2.13-4.929l.039-.04c.105-.157.158-.275.158-.354 0-.027-.027-.04-.08-.04h-.039a.645.645 0 0 1-.157.04c-.421.473-.79 1.071-1.105 1.794-.315.723-.67 1.637-1.064 2.74-.369 1.053-.645 1.789-.829 2.21a4.726 4.726 0 0 1-.217.59c-.092.211-.164.316-.216.316-.158-.052-.237-.144-.237-.276 0-.105.079-.302.237-.591l.118-.237c.184-.473.394-1.078.63-1.814a49.889 49.889 0 0 1 1.184-3.076c.342-.789.762-1.551 1.262-2.287l1.538-.868-.158-.473a3.72 3.72 0 0 0 1.321-1.242c.355-.54.756-1.269 1.203-2.19.42-.867.75-1.471.986-1.813h.434c.105-.657.19-1.308.256-1.952.066-.644.099-1.216.099-1.716zm-9.148 19.206l-.553 1.38c-.052.105-.118.158-.197.158-.079 0-.118-.092-.118-.276l.434-1.065c0-.263.04-.394.118-.394.079 0 .184.065.316.197z" id="expandia__dash-icon-I" transform="rotate(60 512.06 780.737)"/></g></g></symbol><symbol viewBox="0 0 25 15" id="svg-expandia__down-arrow"><title>expandia__down-arrow</title><g id="expandia__down-arrow-Page-1" fill="none" fill-rule="evenodd" stroke-linecap="square"><g id="expandia__down-arrow-Desktop-Copy" transform="translate(-586 -696)" stroke="#30343F" stroke-width="2.5"><g id="expandia__down-arrow-Group-7" transform="translate(588 698)"><path d="M.13.134L10.513 10.88" id="expandia__down-arrow-Line"/><path d="M10.5.134L20.883 10.88" id="expandia__down-arrow-Line-Copy" transform="matrix(-1 0 0 1 31.37 0)"/></g></g></g></symbol><symbol viewBox="0 0 70 15" id="svg-expandia__footer-copyright-logo"><title>expandia__footer-copyright-logo</title><g id="expandia__footer-copyright-logo-Page-1" fill="none" fill-rule="evenodd"><g id="expandia__footer-copyright-logo-Desktop" transform="translate(-123 -2728)" fill="#23232B"><g id="expandia__footer-copyright-logo-Group-15" transform="translate(122 2714)"><g id="expandia__footer-copyright-logo-Group-13" transform="translate(0 14)"><path d="M11.168 3.612c0-.024-.011-.036-.035-.036-.012 0-.042.018-.09.054l-.072.036c-.203.095-.495.209-.878.34-.298.108-.501.185-.609.233a.295.295 0 0 0-.018-.09v-.053c0-.096.09-.167.269-.215a2.27 2.27 0 0 0 .43-.143c.131-.06.269-.156.412-.287v-.018l.018-.018c0-.024-.018-.036-.054-.036a4.352 4.352 0 0 1-.412-.107c-.239-.072-.394-.108-.466-.108a.973.973 0 0 0-.304.072.586.586 0 0 1-.144.036l-.161-.34a8.46 8.46 0 0 1-.824-.055 5.998 5.998 0 0 1-.735-.107c.215-.418.323-.848.323-1.29a10.316 10.316 0 0 0-.717-.197 5.59 5.59 0 0 0-.475-.108 2.032 2.032 0 0 0-.331-.036.596.596 0 0 0-.359.135c-.12.09-.263.224-.43.403a4.554 4.554 0 0 1-.636.546 1.078 1.078 0 0 1-.618.189c-.203.298-.305.609-.305.931 0 .132.018.275.054.43-.25.538-.597 1.23-1.04 2.079-.501.98-.856 1.72-1.066 2.222-.209.502-.32.967-.331 1.398 0 1.266.31 2.177.932 2.732.621.556 1.481.833 2.58.833.49 0 1.048-.09 1.675-.268.628-.18 1.323-.419 2.088-.717a.938.938 0 0 0 .502-.394.314.314 0 0 0 .036-.09c0-.024-.012-.036-.036-.036h-.054c-.012.012-.024.018-.036.018-.657.227-1.174.403-1.55.529-.376.125-.72.23-1.03.313a1.636 1.636 0 0 1-.484.072c-.203 0-.376-.036-.52-.108a69.401 69.401 0 0 0 1.568-.42c.532-.15 1.013-.296 1.443-.44.048-.012.071-.03.071-.053l-.017-.018h-.018a3.423 3.423 0 0 0-.18-.108 2.951 2.951 0 0 1-.25-.161l1.218-.448c.012 0 .024-.006.036-.018.095-.048.176-.093.242-.134.065-.042.098-.087.098-.135-.012-.024-.03-.036-.053-.036H9.77l-.036.018-.681.215c-.717.24-1.251.412-1.604.52-.352.107-.737.221-1.155.34H6.24c-.06 0-.144-.047-.251-.143-.108-.12-.21-.18-.305-.18 0 .049-.033.096-.098.144a.324.324 0 0 1-.188.072l-.108-.18c-.406.096-.74.144-1.003.144-.383 0-.687-.084-.914-.25 0-.108.027-.3.08-.574.054-.275.123-.556.206-.842.084-.287.18-.54.287-.762.108-.22.215-.355.323-.403.203-.096.498-.191.887-.287.388-.095.788-.185 1.2-.269a82.45 82.45 0 0 1 2.482-.43.295.295 0 0 1 .09-.018l.125-.394a.357.357 0 0 1-.215-.34v-.054a.159.159 0 0 0 .018-.072c-.191-.334-.352-.555-.484-.663-.131-.107-.322-.16-.573-.16-.12 0-.287.029-.502.089-.215.06-.484.137-.806.233-.383.12-.675.206-.878.26a3.052 3.052 0 0 1-.538.098c.18-.299.412-.675.699-1.129a.877.877 0 0 1 .054-.09c.406-.119 1.01-.25 1.81-.394a29.82 29.82 0 0 0 1.71-.367 8.313 8.313 0 0 0 1.354-.475c.035-.024.095-.06.179-.107.19-.12.286-.227.286-.323zm-1.487-.054l-.322.144-.054-.215h.054a.293.293 0 0 1 .071-.018c.156 0 .24.03.251.09zM3.445 8.952c.036-.18.15-.269.34-.269a1.9 1.9 0 0 1-.232.358 1.048 1.048 0 0 1-.09.108h-.018v-.197zm-.179 1.523l-.09.484c-.071-.06-.107-.155-.107-.287 0-.084.018-.209.054-.376l.143.179zm5.376-.108c0-.011.006-.023.018-.035v-.018c0-.024-.012-.036-.036-.036l-.018.018h-.018c-.346.143-.717.278-1.11.403-.395.125-.795.23-1.201.314.071.107.179.16.322.16.144 0 .305-.041.484-.125.18-.083.358-.19.538-.322.215 0 .415-.033.6-.099a.997.997 0 0 0 .42-.26zm-3.118-5.07l-.305.501-.233.054.305-.502.233-.054zm-.645.806l-.18.412-.232.036a.69.69 0 0 1 .179-.296c.096-.101.173-.152.233-.152zm-1.29 3.154l-.251.842-.125-.162.197-.663.179-.017zM20.538 2.59a.309.309 0 0 0 .107-.251c0-.167-.131-.344-.394-.529a2.648 2.648 0 0 0-.986-.403l.162-.287h-.054a.138.138 0 0 0-.054-.018.519.519 0 0 0-.286.081 1.662 1.662 0 0 0-.27.224c-.07.072-.125.12-.16.143v-.25h-.287c-.287.262-.606.576-.959.94-.352.365-.785.822-1.299 1.371-.645.67-1.093 1.135-1.344 1.398l-.143-.09.107-.269c.012-.262.066-.597.162-1.003.095-.406.215-.753.358-1.04L15 2.233a.663.663 0 0 1-.278-.09 1.238 1.238 0 0 1-.26-.232 2.137 2.137 0 0 0-.43-.368c-.143-.09-.346-.152-.609-.188a3.79 3.79 0 0 0-.108.251c-.167.382-.31.621-.43.717l.305-.968a.172.172 0 0 0-.125-.053c-.084 0-.203.053-.359.16a8.947 8.947 0 0 0-.537 3.065 10.8 10.8 0 0 0 .448 2.992c.012.036.018.06.018.072-.072.084-.198.137-.377.161-.19.275-.478.58-.86.914a.748.748 0 0 1-.134.43c-.09.132-.212.275-.368.43l-.071.072-.968.914-.25-.126c-.18.263-.3.496-.36.7l-.59.555c-.084.215-.132.531-.144.95-.012.202-.024.34-.036.412l.628-.574.035.215-.788.753c-.012.012-.018.024-.018.036l-.018.018a2.543 2.543 0 0 1-.143.125c-.144.12-.215.197-.215.233 0 .024.018.036.054.036.215 0 .427-.075.636-.224.209-.15.463-.368.761-.654.263-.24.475-.421.636-.547.162-.125.314-.194.457-.206l1.308-1.272a.365.365 0 0 1 .27-.108c.07 0 .125.018.16.054l.86-.86c.096.215.257.439.484.672.227.233.538.499.932.797a.193.193 0 0 0-.036.108c0 .095.054.194.161.296.108.101.287.241.538.42.155.12.269.21.34.27a.702.702 0 0 1 .377-.09c.12 0 .25.018.394.054l.753.537c.203.143.465.215.788.215.203 0 .376-.036.52-.107a22.085 22.085 0 0 0-.233-.197 22.416 22.416 0 0 1-.789-.672 24.436 24.436 0 0 1-.636-.6 7.646 7.646 0 0 1-.636-.7 3.9 3.9 0 0 1-.448-.68h-.161a9.94 9.94 0 0 1-.493-1.067c-.137-.352-.206-.66-.206-.922v-.52h.305c.203-.25.525-.538.967-.86l-.215-.072 4.73-4.318zM15.915 7.5l-.144-.054-.43.394h.251l.323-.34zm.501 5.447c-.227-.191-.424-.287-.59-.287a.318.318 0 0 0-.144.036l.43.305.304-.054zm-6.862-.914c0 .203-.084.346-.251.43l-.054-.18.305-.25zM10.7 9.489v-.215c-.012.012-.06.054-.143.126a1.006 1.006 0 0 1-.161.143l.125.126.18-.18zm-.286.287l-.126-.125c-.263.263-.448.46-.555.591l.125.054.556-.52zm16.895-5.59c0-.49-.126-.849-.377-1.076-.25-.227-.633-.376-1.146-.448-.43-.071-1.016-.119-1.756-.143-.036-.191-.126-.454-.27-.788l-.125-.287a1.958 1.958 0 0 1-.537-.161l-.269-.108-.054-.018a1.185 1.185 0 0 0-.34-.054c-.12 0-.215.051-.287.153a3.336 3.336 0 0 0-.269.51c-.19.407-.4.73-.627.968-.227.239-.567.358-1.021.358v.287l-.036.018c-.215.143-.364.269-.448.376l.448.108a1.291 1.291 0 0 1-.269.627 4.36 4.36 0 0 0 .681.627 80.017 80.017 0 0 0-.806 1.774c-.263.597-.532 1.222-.807 1.873-.274.65-.52 1.26-.734 1.827a33.498 33.498 0 0 0-.538 1.515c0 .226.03.471.09.734s.155.49.287.681c.06.084.152.167.277.251.126.084.27.161.43.233.162.072.305.128.43.17.126.042.212.063.26.063a5.29 5.29 0 0 1 .072-.43c.036-.18.066-.31.09-.394l.806-2.348c0-.024-.012-.036-.036-.036a.539.539 0 0 0-.09.018.293.293 0 0 1-.071.018c-.036 0-.054-.012-.054-.036 0-.239.054-.486.161-.743.108-.257.24-.523.394-.798 0-.012.006-.03.018-.053.048-.084.084-.126.108-.126.024 0 .048.042.072.126.011.083.03.125.053.125.024 0 .063-.057.117-.17.054-.114.14-.29.26-.529.167-.382.28-.621.34-.717a.605.605 0 0 0 .305.072c.227 0 .504-.083.833-.25.328-.168.767-.419 1.317-.753.239-.144.454-.275.645-.395l.143.126c.036-.024.138-.096.305-.215.74-.514 1.263-.938 1.568-1.272.304-.335.457-.765.457-1.29zm-1.63 1.684c0 .012.005.024.017.036v.018c0 .071-.06.149-.18.233a5.96 5.96 0 0 1-.5.304c-.084.06-.15.102-.198.126a.238.238 0 0 1-.143.053c-.084 0-.126-.024-.126-.071 0-.012.006-.018.018-.018v-.018l1.111-.663zm-1.81 1.218c-.216.12-.437.233-.664.34a4.45 4.45 0 0 1-.645.252.711.711 0 0 1 .17-.35c.09-.101.189-.152.296-.152h.233c.084 0 .18-.036.287-.108.072-.047.125-.071.161-.071.06 0 .114.03.161.09zm.537-.286l-.305.179c-.012 0-.024.006-.036.018h-.035a.174.174 0 0 1-.09-.036c-.06-.048-.107-.072-.143-.072.071-.107.19-.161.358-.161.12 0 .203.024.25.072zm1.774-1.147c0 .06-.033.11-.099.152a.378.378 0 0 1-.206.063c-.06 0-.09-.018-.09-.054.025-.06.078-.107.162-.143L26 5.637a.193.193 0 0 1 .107-.036c.048 0 .072.018.072.054zm-5.465 4.48c-.048.011-.11.104-.188.277a3.206 3.206 0 0 0-.17.457h.017l.018.018c.024 0 .06-.012.108-.036a.174.174 0 0 1 .09-.036c.011-.035.035-.09.07-.16.049-.12.088-.219.117-.296a.546.546 0 0 0 .045-.17c0-.048-.018-.072-.054-.072-.012 0-.017.006-.017.018h-.036zm14.028-1.219c0-.239-.042-.457-.126-.654a4.755 4.755 0 0 0-.322-.618c-.108-.18-.161-.293-.161-.34.012-.216.041-.434.09-.655.047-.22.113-.469.196-.743v-.018l-.053-.036a.208.208 0 0 1-.054-.036c.06-.036.107-.122.143-.26.036-.137.066-.298.09-.484.024-.185.039-.364.045-.537.005-.173.008-.344.008-.51-.095-.144-.155-.413-.179-.807a4.467 4.467 0 0 0-.107-.744 1.018 1.018 0 0 0-.34-.51h-.019l-.018-.018a.583.583 0 0 0-.16.053.687.687 0 0 1-.216.054c-.071 0-.107-.042-.107-.125l.322-.108a2.458 2.458 0 0 0-.484-.286 4.902 4.902 0 0 0-.52-.215c-.011.095-.053.155-.125.179a1.417 1.417 0 0 1-.304.053c-.12 0-.197.012-.233.036-.406.323-.81.681-1.21 1.075-.4.395-.791.843-1.173 1.344-.275.37-.741.95-1.398 1.738-.502.61-.935 1.147-1.3 1.613-.364.466-.716.953-1.056 1.46-.34.508-.628 1.022-.86 1.542a5.74 5.74 0 0 0-.457 1.514h.286a.318.318 0 0 0-.036.143c0 .12.102.287.305.502.227.239.346.442.358.609l1.13.484c.13-.167.322-.538.573-1.111l.286-.627-.071-.215.09-.233c.226-.156.54-.344.94-.565.4-.22.827-.439 1.281-.654.454-.215.89-.394 1.308-.537.418-.144.753-.215 1.004-.215v.071a.138.138 0 0 1 .018.054.59.59 0 0 1-.036.18 1.654 1.654 0 0 0-.018.232l-.305-.376-.09.555a4.207 4.207 0 0 1-.071.538h.036c0 .012.006.018.018.018.06 0 .101-.045.125-.135.024-.09.042-.224.054-.403v-.071l.215.09a4.335 4.335 0 0 1-.152.743c-.078.269-.147.403-.206.403v-.108a.49.49 0 0 0 .018-.107c0-.191-.042-.287-.126-.287a7.624 7.624 0 0 1-.18.681c-.107.359-.166.621-.178.789 0 .12.053.179.161.179-.012.12-.072.179-.18.179l-.017.25c.107 0 .182.037.224.108.042.072.063.203.063.395h.035a.138.138 0 0 1 .054-.018c.084 0 .24.06.466.179.335.179.597.269.789.269.107-.323.19-.607.25-.852.06-.244.096-.504.108-.779a.223.223 0 0 1-.161.072c-.012 0-.024-.006-.036-.018.19-.251.286-.46.286-.627a.956.956 0 0 0-.09-.34.733.733 0 0 0 .252-.556c0-.12-.042-.203-.126-.251a.808.808 0 0 0 .233-.385c.048-.162.09-.362.126-.6.036-.24.071-.395.107-.467.084-.012.233-.035.448-.071.227-.036.4-.06.52-.072zM33.29 3.791l-.215 1.022c-.095.442-.179.812-.25 1.11a5.775 5.775 0 0 1-.198.682l-.304-.27c-.012.037-.042.12-.09.252-.12.322-.19.59-.215.806l-.394.107c-.25.06-.466.12-.645.18-.18.06-.382.137-.61.233-.31.131-.638.34-.985.627-.155.12-.275.209-.358.269.095-.144.257-.383.484-.717.37-.55.615-.902.734-1.057.24-.287.49-.61.753-.968a.604.604 0 0 1-.072-.269c0-.131.108-.316.323-.555a.122.122 0 0 1 .035.09.697.697 0 0 1-.053.196l-.018.036.09.09c.453-.61.85-1.1 1.191-1.47.34-.37.588-.56.744-.573l.053.18zm-.86 3.369l-.018.197c-.131 0-.197-.03-.197-.09v-.035a.293.293 0 0 0 .018-.072h.197zm-.018-.107h-.16l.07-.198.072.018.018.18zm-.627 4.372l-.071.286h-.108l.072-.233.107-.053zm-2.526-1.326l-1.362.716.036-.071c.06-.096.113-.18.161-.251l.197-.108c.18-.095.335-.176.466-.242a.788.788 0 0 1 .34-.098c.072 0 .126.018.162.054zm.215-.108c.036-.131.095-.218.179-.26.084-.041.233-.068.448-.08v.018c-.084.047-.215.12-.394.215-.132.06-.21.095-.233.107zm3.583-5.877l-.16.072-.144.483h.161l.143-.555zm-4.784 6.056l.215-.304c.048-.024.114-.048.197-.072a4.9 4.9 0 0 0 .18-.054.455.455 0 0 1-.207.233c-.101.06-.212.12-.331.18-.024 0-.042.005-.054.017zm15.157-4.3l-.107-.072V5.78c0-.024.047-.12.143-.286a6.025 6.025 0 0 1 .287-.43c.334-.502.663-.971.985-1.407.323-.436.693-.857 1.111-1.263l-.376.053c-.096.036-.266.206-.51.511-.246.305-.532.69-.86 1.156a43.386 43.386 0 0 0-2.034 3.225c-.036-.143-.09-.376-.162-.699a25.887 25.887 0 0 0-.233-1.012 5.708 5.708 0 0 0-.215-.69c-.06-.155-.182-.325-.367-.51a5.28 5.28 0 0 0-.636-.538 6.798 6.798 0 0 0-1.255-.726l-.448.448a32.829 32.829 0 0 0-2.5 2.804c-.686.878-1.28 1.927-1.782 3.145a1.39 1.39 0 0 1-.072.18 1.699 1.699 0 0 0-.143.609v.143a.83.83 0 0 1 .018.161l.107.789c.048.023.138.167.269.43.131.274.254.49.367.645.114.155.242.233.386.233h.501c.215-.287.427-.642.636-1.066.21-.425.487-1.025.834-1.801.454-1.04.8-1.78 1.039-2.222l-.054-.287c.227-.406.487-.744.78-1.012.292-.27.582-.451.869-.547l.09.699a.83.83 0 0 0 .017.161v.161c0 .144-.018.347-.054.61a7.92 7.92 0 0 0-.035.645c0 .358.065.734.197 1.129.036.107.053.268.053.483 0 .072-.006.227-.017.466a8.486 8.486 0 0 0-.018.448.77.77 0 0 0 .018.144v.125c.083.657.206 1.111.367 1.362.161.25.51.448 1.048.591l.108-.25.806.376c.012-.024.167-.412.466-1.165.55-1.386.938-2.425 1.165-3.118a.645.645 0 0 1 .179-.215c.095-.072.143-.125.143-.161.036-.084.066-.203.09-.359.024-.143.048-.238.071-.286.072-.12.174-.275.305-.466.191-.263.326-.475.403-.636a1.48 1.48 0 0 0 .135-.565l.018-.018h.035c.012 0 .036.012.072.036a.174.174 0 0 0 .09.036c.024 0 .047-.018.071-.054.215-.298.475-.6.78-.905a12.435 12.435 0 0 1 1.908-1.55c.31-.203.585-.358.824-.465l-.501-.538c-.06.036-.156.075-.287.116a1.084 1.084 0 0 1-.287.063l-.036-.072.359-.25c-.275-.192-.759-.287-1.452-.287-.406.024-.716.101-.931.233-.251.239-.514.52-.789.842-.275.323-.531.642-.77.959-.24.316-.46.618-.663.905-.203.286-.389.561-.556.824zm2.563-.627l-.377.573a.12.12 0 0 1-.053-.107c0-.048.02-.11.062-.189.042-.077.105-.182.188-.313l.054-.072h.018c0-.012.006-.018.018-.018.06 0 .09.042.09.126zm-.359-2.097c.108-.167.21-.292.305-.376l.143.072-.304.394c-.06 0-.108-.03-.144-.09zm2.401-.376c0 .095-.018.167-.053.215a.65.65 0 0 1-.162.143.225.225 0 0 0-.09.054l-.035-.161.34-.251zm-3.494 5.913h-.036c-.012-.012-.024-.018-.036-.018-.06 0-.101.042-.125.126-.024.083-.042.209-.054.376v.018l.162.107.09-.609zm1.917-4.085l-.322.466c-.012-.06-.066-.09-.161-.09l.358-.466c.024-.024.042-.036.054-.036.06 0 .09.03.09.09l-.019.018v.018zm-7.203-.896l-.09.09c-.13.178-.238.268-.322.268a.172.172 0 0 1-.125-.054l.394-.412.143.108zm18.92 1.953a.295.295 0 0 0-.018-.09 6.329 6.329 0 0 0-.107-.752 2.76 2.76 0 0 0-.251-.69 2.067 2.067 0 0 0-.538-.645 2.745 2.745 0 0 0-.914-.475 3.138 3.138 0 0 0-.555-.09c-.275-.036-.448-.077-.52-.125-.06.143-.179.215-.358.215-.096 0-.143-.03-.143-.09 0-.036.011-.077.035-.125a4.027 4.027 0 0 0-.663-.054 8.65 8.65 0 0 0-.86.054c-.298.036-.52.054-.663.054.024-.096.054-.21.09-.34.06-.24.09-.407.09-.503v-.09a.293.293 0 0 1-.018-.07 1.51 1.51 0 0 0-.153-.297c-.09-.149-.182-.298-.278-.447a3.825 3.825 0 0 0-.277-.386c-.09-.107-.153-.161-.188-.161a.674.674 0 0 0-.592.323c-.143.215-.304.555-.484 1.02-.13.311-.253.583-.367.816a2.454 2.454 0 0 1-.403.6l-.18-.125a3.417 3.417 0 0 1-.393.18c-.311.13-.547.253-.708.367-.162.113-.248.247-.26.403 0 .155.101.358.305.609.215.275.322.496.322.663-.012.275-.155.669-.43 1.183-.203.394-.34.704-.412.931l.072.27c-.06.202-.096.346-.108.43-.107.381-.194.683-.26.904a5.521 5.521 0 0 1-.26.69.91.91 0 0 1-.206.323 1.366 1.366 0 0 1-.349.215l-.448.197c-.012.239-.06.466-.143.68.06.072.149.222.268.449.24.394.47.704.69.931.221.227.517.34.887.34.084 0 .203-.011.359-.035a2.15 2.15 0 0 1 .304-.036c.12 0 .227.024.323.072l.161-.986a24.994 24.994 0 0 0 3.297-1.774 26.26 26.26 0 0 0 3.136-2.311l-.323-.072c.418-.334.67-.543.753-.627a.387.387 0 0 1 .287-.108l.053.018h.054l-.269.287a.658.658 0 0 0 .484-.197 5.3 5.3 0 0 0 .493-.582c.173-.233.361-.505.564-.816l.072-.125zm-1.04 1.093l-.143.161-.233-.054.144-.16.233.053zm-.788-2.33v.054l.018.054c0 .155-.042.325-.125.51a2.8 2.8 0 0 1-.314.53c-.125.166-.26.304-.403.411-.143.108-.269.162-.376.162a.138.138 0 0 1-.054-.018h-.036c-.31.358-.555.618-.734.78-.18.16-.317.241-.413.241-.06 0-.12-.048-.179-.143l-.161.107.107.251a.295.295 0 0 0-.09-.018.415.415 0 0 1-.178-.09 5.724 5.724 0 0 1-.914.637c-.347.197-.765.42-1.254.672-.395.19-.67.334-.825.43a4.86 4.86 0 0 1 .269-.932c.131-.31.197-.532.197-.663a.994.994 0 0 0-.125-.376v-.018c.071.06.149.095.233.107.083 0 .125-.113.125-.34 0-.18-.042-.269-.125-.269a.174.174 0 0 0-.09.036v-.018a.828.828 0 0 1 .18-.161c.07-.048.119-.084.143-.108l.018-.555c.155-.048.406-.156.752-.323a12.778 12.778 0 0 1 1.9-.69c.633-.173 1.45-.26 2.454-.26zm-.931 3.728l-.377.268a.243.243 0 0 1-.179.072.363.363 0 0 1-.197-.072l.591-.322.162.054zm-.663.501c-.251.156-.645.418-1.183.789-.729.501-1.29.872-1.684 1.11a.82.82 0 0 0-.413-.125c.132-.12.251-.179.359-.179.06 0 .113.024.161.072.108-.06.173-.162.197-.305.18-.107.472-.287.878-.537a51.8 51.8 0 0 0 .717-.43c.227-.144.41-.248.546-.314a.966.966 0 0 1 .422-.099v.018zm-4.337 2.616c.096-.107.233-.241.412-.403a2.6 2.6 0 0 1 .466-.35v.019a.172.172 0 0 0-.053.125c0 .096.03.155.09.18l-.915.447v-.018zm-.215-.071l-.09.215-.501.269.036-.18.555-.304zm13.204-8.583a.982.982 0 0 0-.188-.574 1.018 1.018 0 0 0-.457-.376v-.43a1.24 1.24 0 0 0-.143-.036 1.603 1.603 0 0 0-.412-.09.692.692 0 0 0-.296.072.692.692 0 0 0-.242.18c-.191.346-.573.985-1.147 1.917a96.138 96.138 0 0 0-1.317 2.168c-.364.621-.71 1.275-1.04 1.962-.328.687-.596 1.37-.805 2.052-.21.68-.314 1.314-.314 1.899.215.561.543 1.01.985 1.344.012-.191.078-.335.198-.43v.573c.274.156.573.287.896.394a.49.49 0 0 0-.018-.107 1.078 1.078 0 0 1-.018-.161c0-.478.143-1.046.43-1.703.12-.286.28-.716.484-1.29.382-1.039.704-1.786.967-2.24l.018-.017c.048-.072.072-.126.072-.162 0-.012-.012-.018-.036-.018h-.018a.293.293 0 0 1-.072.018 3.059 3.059 0 0 0-.501.816c-.144.328-.305.743-.484 1.245-.167.478-.293.812-.377 1.003a2.147 2.147 0 0 1-.098.27c-.042.095-.075.142-.099.142-.071-.023-.107-.065-.107-.125 0-.048.036-.137.107-.269l.054-.107c.084-.215.18-.49.287-.825.203-.573.382-1.039.537-1.397.156-.359.347-.705.574-1.04l.699-.394-.072-.215a1.69 1.69 0 0 0 .6-.564c.162-.245.344-.577.547-.995.19-.394.34-.669.448-.824h.197c.048-.299.086-.594.116-.887.03-.293.045-.552.045-.78zm-4.157 8.726l-.25.627c-.025.048-.055.072-.09.072-.036 0-.054-.042-.054-.126l.197-.483c0-.12.018-.18.054-.18.035 0 .083.03.143.09zm11.77-2.419c0-.239-.041-.457-.125-.654a4.755 4.755 0 0 0-.323-.618c-.107-.18-.16-.293-.16-.34.011-.216.04-.434.089-.655.047-.22.113-.469.197-.743v-.018l-.054-.036a.208.208 0 0 1-.054-.036c.06-.036.108-.122.144-.26.035-.137.065-.298.09-.484.023-.185.038-.364.044-.537.006-.173.009-.344.009-.51-.096-.144-.155-.413-.18-.807a4.467 4.467 0 0 0-.107-.744 1.018 1.018 0 0 0-.34-.51h-.018l-.018-.018a.583.583 0 0 0-.161.053.687.687 0 0 1-.215.054c-.072 0-.108-.042-.108-.125l.323-.108a2.458 2.458 0 0 0-.484-.286 4.902 4.902 0 0 0-.52-.215c-.012.095-.053.155-.125.179a1.417 1.417 0 0 1-.305.053c-.12 0-.197.012-.233.036-.406.323-.81.681-1.21 1.075-.4.395-.79.843-1.173 1.344-.275.37-.74.95-1.398 1.738-.501.61-.934 1.147-1.299 1.613-.364.466-.716.953-1.057 1.46-.34.508-.627 1.022-.86 1.542a5.74 5.74 0 0 0-.457 1.514h.287a.318.318 0 0 0-.036.143c0 .12.101.287.305.502.227.239.346.442.358.609l1.129.484c.131-.167.322-.538.573-1.111l.287-.627-.072-.215.09-.233c.227-.156.54-.344.94-.565.4-.22.828-.439 1.282-.654.454-.215.89-.394 1.308-.537.418-.144.752-.215 1.003-.215v.071a.138.138 0 0 1 .018.054.59.59 0 0 1-.036.18 1.654 1.654 0 0 0-.018.232l-.304-.376-.09.555a4.207 4.207 0 0 1-.071.538h.035c0 .012.006.018.018.018.06 0 .102-.045.126-.135.024-.09.042-.224.053-.403v-.071l.216.09a4.335 4.335 0 0 1-.153.743c-.077.269-.146.403-.206.403v-.108a.49.49 0 0 0 .018-.107c0-.191-.042-.287-.125-.287a7.624 7.624 0 0 1-.18.681c-.107.359-.167.621-.179.789 0 .12.054.179.162.179-.012.12-.072.179-.18.179l-.018.25c.108 0 .183.037.224.108.042.072.063.203.063.395h.036a.138.138 0 0 1 .054-.018c.083 0 .239.06.466.179.334.179.597.269.788.269.108-.323.191-.607.25-.852.06-.244.096-.504.108-.779a.223.223 0 0 1-.16.072c-.013 0-.025-.006-.037-.018.191-.251.287-.46.287-.627a.956.956 0 0 0-.09-.34.733.733 0 0 0 .251-.556c0-.12-.042-.203-.125-.251a.808.808 0 0 0 .233-.385c.048-.162.09-.362.125-.6.036-.24.072-.395.108-.467.083-.012.233-.035.448-.071.227-.036.4-.06.52-.072zm-1.451-5.125c-.036.168-.108.508-.215 1.022-.096.442-.18.812-.251 1.11a5.775 5.775 0 0 1-.197.682l-.305-.27c-.012.037-.042.12-.09.252-.119.322-.19.59-.214.806L67.9 7.5c-.25.06-.465.12-.645.18-.179.06-.382.137-.609.233-.31.131-.639.34-.985.627-.156.12-.275.209-.359.269.096-.144.257-.383.484-.717.37-.55.615-.902.735-1.057.239-.287.49-.61.752-.968a.604.604 0 0 1-.071-.269c0-.131.107-.316.322-.555a.122.122 0 0 1 .036.09.697.697 0 0 1-.054.196l-.018.036.09.09c.454-.61.851-1.1 1.192-1.47.34-.37.588-.56.743-.573l.054.18zm-.86 3.369l-.018.197c-.132 0-.197-.03-.197-.09v-.035a.293.293 0 0 0 .018-.072h.197zm-.018-.107h-.161l.071-.198.072.018.018.18zm-.627 4.372l-.072.286h-.107l.071-.233.108-.053zm-2.527-1.326l-1.362.716.036-.071c.06-.096.114-.18.161-.251l.198-.108c.179-.095.334-.176.465-.242a.788.788 0 0 1 .34-.098c.073 0 .126.018.162.054zm.215-.108c.036-.131.096-.218.18-.26.083-.041.232-.068.447-.08v.018c-.083.047-.215.12-.394.215l-.233.107zm3.584-5.877l-.161.072-.144.483h.162l.143-.555zm-4.784 6.056l.215-.304c.047-.024.113-.048.197-.072a4.9 4.9 0 0 0 .179-.054.455.455 0 0 1-.206.233c-.102.06-.212.12-.332.18-.023 0-.041.005-.053.017z" id="expandia__footer-copyright-logo-expandia"/></g></g></g></g></symbol><symbol viewBox="0 0 733 44" id="svg-expandia__hero-bottom-svg"><title>expandia__hero-bottom-svg</title><g id="expandia__hero-bottom-svg-Page-1" fill="none" fill-rule="evenodd"><g id="expandia__hero-bottom-svg-Desktop" transform="translate(-230 -546)"><g id="expandia__hero-bottom-svg-Group-7" transform="translate(231 548)"><path d="M.5 23.5h730" id="expandia__hero-bottom-svg-Line" stroke="#E7E7E7" stroke-width="3" stroke-linecap="round" stroke-linejoin="round"/><g id="expandia__hero-bottom-svg-Group-12" transform="translate(662)"><g id="expandia__hero-bottom-svg-Group" stroke="#D4D4D4"><path d="M15.847 0C11.838 0 7.82 3.203 4.533 9.02 1.779 13.893 0 19.878 0 24.267c0 8.667 7.109 15.718 15.847 15.718 8.737 0 15.846-7.051 15.846-15.718 0-4.39-1.779-10.374-4.532-15.247C23.873 3.203 19.855 0 15.847 0z" id="expandia__hero-bottom-svg-Path" stroke-width="2.592" fill="#FFF"/><path id="expandia__hero-bottom-svg-Path-2" stroke-width="1.296" stroke-linecap="round" stroke-linejoin="round" d="M23.671 4.783l-3.945 3.913 3.507.434-3.945 2.174 3.068.435-3.507 3.913"/></g><g id="expandia__hero-bottom-svg-Group-11" transform="translate(9 15)" fill="#D8D8D8"><path d="M1.5 3a1.5 1.5 0 1 0 0-3 1.5 1.5 0 0 0 0 3z" id="expandia__hero-bottom-svg-Oval-2-Copy"/><path d="M3.5 14a1.5 1.5 0 1 0 0-3 1.5 1.5 0 0 0 0 3z" id="expandia__hero-bottom-svg-Oval-2-Copy-2"/><path d="M11.5 7a1.5 1.5 0 1 0 0-3 1.5 1.5 0 0 0 0 3z" id="expandia__hero-bottom-svg-Oval-2-Copy-3"/></g></g></g></g></g></symbol><symbol viewBox="0 0 276 74" id="svg-expandia__hero-svg"><title>expandia__hero-svg</title><g id="expandia__hero-svg-Page-1" fill="none" fill-rule="evenodd"><g id="expandia__hero-svg-Group" transform="translate(1 1)"><g id="expandia__hero-svg-cloud" transform="translate(0 47)"><path d="M26.906 9.52c-.07-5.233-4.301-9.468-9.492-9.468-2.308 0-4.533.85-6.263 2.392A9.634 9.634 0 0 0 8.133 7.68h-.091C3.608 7.68 0 11.327 0 15.813c0 4.485 3.608 8.134 8.042 8.134h18.76c3.932 0 7.132-3.236 7.132-7.214 0-3.943-3.143-7.157-7.028-7.214z" id="expandia__hero-svg-Path" stroke="#E6E6E6" stroke-width="1.5"/><path d="M17.414 3.492c-3.026 0-5.616 2.287-6.025 5.32a.73.73 0 0 0 .718.832.727.727 0 0 0 .716-.633c.312-2.312 2.286-4.055 4.591-4.055.4 0 .724-.328.724-.732a.728.728 0 0 0-.724-.732z" id="expandia__hero-svg-Shape" fill="#E6E6E6"/></g><g id="expandia__hero-svg-cloud-copy-3" transform="translate(98 5)"><path d="M38.777 13.884C38.674 6.252 32.577.075 25.097.075a13.46 13.46 0 0 0-9.026 3.489 14.089 14.089 0 0 0-4.35 7.636l-.131-.001C5.2 11.199 0 16.521 0 23.062c0 6.541 5.2 11.863 11.59 11.863h27.035c5.668 0 10.28-4.72 10.28-10.521 0-5.75-4.53-10.437-10.128-10.52z" id="expandia__hero-svg-Path" stroke="#E6E6E6" stroke-width="1.5"/><path d="M25.097 5.093c-4.36 0-8.094 3.335-8.683 7.759a1.063 1.063 0 0 0 1.034 1.212c.514 0 .961-.388 1.032-.923.45-3.371 3.294-5.913 6.617-5.913.576 0 1.043-.478 1.043-1.068 0-.59-.467-1.067-1.043-1.067z" id="expandia__hero-svg-Shape" fill="#E6E6E6"/></g><g id="expandia__hero-svg-cloud-copy-2" transform="translate(59 35)"><path d="M26.906 9.52c-.07-5.233-4.301-9.468-9.492-9.468-2.308 0-4.533.85-6.263 2.392A9.634 9.634 0 0 0 8.133 7.68h-.091C3.608 7.68 0 11.327 0 15.813c0 4.485 3.608 8.134 8.042 8.134h18.76c3.932 0 7.132-3.236 7.132-7.214 0-3.943-3.143-7.157-7.028-7.214z" id="expandia__hero-svg-Path" stroke="#E6E6E6" stroke-width="1.5"/><path d="M17.414 3.492c-3.026 0-5.616 2.287-6.025 5.32a.73.73 0 0 0 .718.832.727.727 0 0 0 .716-.633c.312-2.312 2.286-4.055 4.591-4.055.4 0 .724-.328.724-.732a.728.728 0 0 0-.724-.732z" id="expandia__hero-svg-Shape" fill="#E6E6E6"/></g><g id="expandia__hero-svg-cloud-copy" transform="translate(24)"><path d="M37.194 12.984C37.096 5.847 31.248.071 24.073.071a13.1 13.1 0 0 0-8.658 3.262 13.1 13.1 0 0 0-4.172 7.141h-.126C4.987 10.473 0 15.45 0 21.567c0 6.117 4.987 11.094 11.117 11.094h25.932c5.437 0 9.86-4.414 9.86-9.84 0-5.377-4.345-9.76-9.715-9.838z" id="expandia__hero-svg-Path" stroke="#E6E6E6" stroke-width="1.5"/><path d="M24.073 4.763c-4.183 0-7.764 3.12-8.33 7.256a.999.999 0 0 0 .993 1.134 1 1 0 0 0 .99-.864c.43-3.152 3.16-5.53 6.347-5.53a1 1 0 1 0 0-1.996z" id="expandia__hero-svg-Shape" fill="#E6E6E6"/></g><g id="expandia__hero-svg-transport" transform="rotate(-16 220.884 -726.287)" fill="#9B9B9B"><path id="expandia__hero-svg-Rectangle-path" d="M2.042 15.362h4.549v1.762H2.042zM56.163 21.507h1.82v1.762h-1.82zM56.163 8.193h1.776v11.733h-1.776zM56.163 23.555h1.776v11.733h-1.776zM31.656 0h1.776v1.805h-1.776z"/><path d="M39.988 13c0-2.476-2.031-4.49-4.528-4.49h-1.84V3.071h-1.777V8.51h-6.39c-2.497 0-4.528 2.015-4.528 4.491 0 1.505-1.234 2.73-2.75 2.73h-7.662L5.055 5.802H0v16.882l13.82 4.051-3.455 2.857a2.709 2.709 0 0 0-1.289-.324c-1.493 0-2.707 1.205-2.707 2.686 0 1.481 1.214 2.686 2.707 2.686 1.493 0 2.708-1.205 2.708-2.686 0-.376-.079-.735-.22-1.06l4.304-3.559 4.157 1.219a2.702 2.702 0 0 0 2.698 2.476h12.76v1.997a2.692 2.692 0 0 0-1.82 2.537c0 1.481 1.214 2.686 2.707 2.686 1.493 0 2.708-1.205 2.708-2.686a2.692 2.692 0 0 0-1.82-2.537V31.03H39.1a2.71 2.71 0 0 0 2.557-1.805h13.797V15.73H42.74c-1.517 0-2.751-1.225-2.751-2.73zM9.076 32.878a.929.929 0 0 1-.931-.924c0-.51.418-.924.931-.924.514 0 .932.414.932.924s-.418.924-.932.924zM28.16 10.27h7.3c1.517 0 2.751 1.225 2.751 2.73 0 1.025.35 1.971.936 2.729H28.16V10.27zm-2.707 0h.931v1.848H22.85a2.753 2.753 0 0 1 2.603-1.848zm-2.84 3.61h3.771v1.849h-4.618c.414-.535.71-1.164.848-1.848zm14.689 21.683c0 .51-.418.924-.932.924a.929.929 0 0 1-.931-.924c0-.51.418-.924.931-.924.514 0 .932.415.932.924zm1.798-6.296H22.723a.929.929 0 0 1-.931-.924c0-.51.418-.924.931-.924H39.1c.513 0 .931.414.931.924s-.418.924-.931.924zm10.029-1.805h-7.472a2.71 2.71 0 0 0-2.557-1.805H22.723c-.935 0-1.761.473-2.248 1.19l-18.699-5.48v-.266H49.13v6.36zm1.776-9.971h2.773v9.97h-2.773v-9.97zM49.13 19.34H1.776V7.564H4l5.459 9.928h39.67v1.848z" id="expandia__hero-svg-Shape"/><path id="expandia__hero-svg-Rectangle-path" transform="rotate(-135 31.035 13.086)" d="M30.147 11.81h1.776v2.553h-1.776z"/><path id="expandia__hero-svg-Rectangle-path" transform="rotate(-135 34.112 12.38)" d="M33.224 11.104H35v2.553h-1.776z"/></g><path d="M119 64.303c5.512 6.164 14.372 8.99 22.375 7.135 8.002-1.855 14.837-8.317 17.259-16.319.454-1.5.743-3.201.009-4.574-1.65-3.08-6.965-1.162-7.612 2.295-.647 3.458 1.755 6.734 4.436 8.93 7.8 6.392 18.701 7.703 28.572 5.84 9.87-1.864 18.993-6.545 27.961-11.17" id="expandia__hero-svg-Stroke-7" stroke="#E6E6E6" stroke-width="2" stroke-dasharray="10,4" opacity=".7"/></g></g></symbol><symbol viewBox="0 0 52 50" id="svg-expandia__in-house"><title>expandia__in-house</title><g id="expandia__in-house-Page-1" fill="none" fill-rule="evenodd"><g id="expandia__in-house-Desktop" transform="translate(-879 -1608)" fill="#30343F"><g id="expandia__in-house-Group-25" transform="translate(164 1500)"><g id="expandia__in-house-Group-24" transform="translate(613 108)"><g id="expandia__in-house-house" transform="translate(102)"><path d="M11.907 30.24h11.907v-8.477H11.907v8.477zm1.701-1.695v-2.543h8.505v2.543h-8.505zm8.505-5.086v.848h-8.505v-.848h8.505zM11.907 33.631v10.173h11.907V33.63H11.907zm5.103 1.696v2.543h-3.402v-2.543h3.402zm-3.402 4.238h3.402v2.543h-3.402v-2.543zm5.103 2.543v-2.543h3.402v2.543h-3.402zm3.402-4.238h-3.402v-2.543h3.402v2.543zM27.216 30.24h11.908v-8.477H27.216v8.477zm1.702-1.695v-.848h8.505v.848h-8.505zm8.505-5.086v2.543h-8.505v-2.543h8.505z" id="expandia__in-house-Shape"/><path d="M50.18 40.413c-.47 0-.85.38-.85.848v.847h-.85v-.847a.849.849 0 0 0-.851-.848c-.47 0-.85.38-.85.848v.847h-.851V24.981a3.39 3.39 0 0 0 1.383.308c.912 0 1.819-.37 2.49-1.088a3.392 3.392 0 0 0 .898-2.576 3.402 3.402 0 0 0-1.294-2.401L27.83 2.404 25.515.263l-2.26 2.096L1.628 19.224a3.396 3.396 0 0 0-1.294 2.401 3.392 3.392 0 0 0 4.77 3.357V42.11h-.85v-.848a.849.849 0 0 0-.85-.847c-.471 0-.851.38-.851.847v.848H1.7v-.848a.849.849 0 0 0-.85-.847c-.47 0-.851.38-.851.847v7.63c0 .468.38.847.85.847s.851-.38.851-.847v-.848h.85v.848c0 .468.38.847.851.847.47 0 .85-.38.85-.847v-.848h.851v1.695h40.825v-1.695h.85v.848c0 .468.38.847.85.847.471 0 .851-.38.851-.847v-.848h.85v.848c0 .468.381.847.851.847s.85-.38.85-.847v-7.63a.85.85 0 0 0-.85-.848zM2.477 23.046a1.672 1.672 0 0 1-.449-1.287c.039-.478.268-.904.648-1.2L24.359 3.647l1.157-1.072 1.211 1.118 21.63 16.866c.378.296.608.722.646 1.2.039.478-.121.936-.448 1.287a1.697 1.697 0 0 1-2.284.19l-.343-.264L25.515 7.29 5.435 22.718h-.001l-.673.517a1.697 1.697 0 0 1-2.284-.189zm-.776 23.3v-2.542h.85v2.543h-.85zm2.552 0v-2.542h.85v2.543h-.85zm24.665 1.696V35.327h8.505v12.715h-8.505zm15.309 0h-5.103v-14.41H27.216v14.41H6.804V23.806L25.515 9.429l18.712 14.377v24.236zm1.7-1.695v-2.543h.851v2.543h-.85zm2.552 0v-2.543h.85v2.543h-.85z" id="expandia__in-house-Shape"/></g></g></g></g></g></symbol><symbol viewBox="0 0 142 142" id="svg-expandia__logo--small"><title>expandia__logo--small</title><g id="expandia__logo--small-Page-1" fill="none" fill-rule="evenodd"><g id="expandia__logo--small-Home-Copy-3" transform="translate(-162 -44)" fill="#FFF"><path d="M254.819 111.122l-3.14 11.245c-.04.26-.014.614.076 1.062.09.45.251.94.484 1.473a9.073 9.073 0 0 0 2.544 3.304c.67.555 1.392.819 2.165.792.773-.026 1.466-.368 2.078-1.023.55-.588 1.006-1.367 1.37-2.338.363-.97.692-2.03.984-3.18.295-1.15.583-2.341.867-3.571.284-1.231.612-2.408.982-3.531.74-2.464 1.247-4.58 1.525-6.348.277-1.77.32-3.315.129-4.636-.192-1.322-.635-2.493-1.328-3.515-.693-1.021-1.643-2.031-2.85-3.03-1.111-.92-2.161-1.48-3.148-1.678a7.379 7.379 0 0 0-2.96.004c-.985.202-1.998.52-3.036.957a30.677 30.677 0 0 1-3.376 1.186c-.044.011-.4.128-1.068.35-.667.225-1.513.511-2.538.862l-3.414 1.172c-1.252.43-2.49.865-3.716 1.304a94.238 94.238 0 0 0-3.39 1.281 45.12 45.12 0 0 0-2.472 1.062c-.414.19-.763.435-1.044.736-.345.369-.524.771-.541 1.206-.016.435.069.88.255 1.336.184.456.433.891.743 1.305.309.414.62.791.929 1.132.31.342.581.614.814.819l.378.331c.748.619 1.447.943 2.099.973.651.03 1.312-.112 1.982-.43l12.048-5.739c-3.46 2.793-16.665 13.214-18.282 14.286a52.362 52.362 0 0 1-5.697 3.272 40.648 40.648 0 0 1-6.17 2.457c-2.107.645-4.102.944-5.986.899a7.77 7.77 0 0 1-1.673-.213 4.873 4.873 0 0 1-1.472-.643c-.466-.3-.92-.717-1.362-1.25-.443-.53-.89-1.193-1.342-1.986 2.756-.628 5.322-1.536 7.701-2.724 2.377-1.187 4.437-2.556 6.18-4.106 1.741-1.55 3.28-3.424 4.613-5.62 1.336-2.197 2.027-4.192 2.076-5.985.045-1.684-.228-3.213-.82-4.587a10.116 10.116 0 0 0-2.523-3.542c-1.09-.987-2.382-1.764-3.876-2.332-1.495-.568-3.122-.873-4.882-.915-2.155-.052-4.124.258-5.908.931a17.43 17.43 0 0 0-4.857 2.776 20.421 20.421 0 0 0-3.837 4.115 27.445 27.445 0 0 0-2.782 4.95c-.75 1.736-1.483 3.727-2.2 5.974-.718 2.247-1.098 4.188-1.142 5.823-.067 2.5.235 4.894.906 7.185.672 2.29 1.717 4.32 3.136 6.086 1.42 1.767 3.214 3.188 5.386 4.264 2.171 1.076 4.722 1.65 7.654 1.72 1.885.045 3.95.363 5.798-.006 1.848-.366 3.55-.903 5.28-1.547 1.73-.644 3.27-1.198 4.848-2.043 1.578-.847 6.96-4.585 8.335-5.467 2.65-1.723 14.636-13.016 18.467-16.645zm1.884-6.748l.622-2.225-.365.174-.257 2.051zM233 186c39.212 0 71-31.788 71-71s-31.788-71-71-71-71 31.788-71 71 31.788 71 71 71zm-22.893-71.168a17.093 17.093 0 0 0 3.79-1.971c1.173-.812 2.33-1.913 3.471-3.303 1.142-1.391 1.726-2.55 1.75-3.475.036-1.301-.196-2.378-.693-3.23-.497-.852-1.124-1.286-1.88-1.304-1.356-.033-2.52.171-3.494.611-.974.44-1.794 1.02-2.46 1.743a9.2 9.2 0 0 0-1.627 2.479c-.42.93-.909 2.084-1.466 3.46-.557 1.375-.88 2.51-.968 3.406-.086.896-.138 1.66-.155 2.297 1.134.028 2.379-.209 3.732-.713z" id="expandia__logo--small-Combined-Shape"/></g></g></symbol><symbol viewBox="0 0 178 35" id="svg-expandia__logo"><title>expandia__logo</title><g id="expandia__logo-Page-1" fill="none" fill-rule="evenodd"><g id="expandia__logo-Home-Copy-3" transform="translate(-215 -2467)" fill="#D9D9D9"><g id="expandia__logo-Group-12" transform="translate(215 2467)"><path d="M24.614 7.824c0-.061-.03-.092-.092-.092-.03 0-.107.046-.23.137l-.183.092c-.52.244-1.27.534-2.25.87-.765.274-1.286.472-1.561.594a.75.75 0 0 0-.046-.229V9.06c0-.244.23-.427.689-.55a5.835 5.835 0 0 0 1.102-.365c.336-.153.688-.397 1.056-.732v-.046l.046-.046c0-.06-.046-.091-.138-.091-.184-.03-.536-.122-1.056-.275-.613-.183-1.01-.274-1.194-.274-.184 0-.444.06-.78.183-.185.06-.307.091-.368.091l-.414-.869c-.52 0-1.224-.046-2.112-.137-.888-.092-1.515-.183-1.883-.275.551-1.067.827-2.165.827-3.294a26.516 26.516 0 0 0-1.837-.503c-.46-.122-.865-.214-1.217-.275a5.227 5.227 0 0 0-.85-.091c-.306 0-.612.114-.918.343-.306.229-.674.572-1.102 1.03-.612.61-1.156 1.075-1.63 1.395a2.77 2.77 0 0 1-1.585.48c-.52.763-.78 1.556-.78 2.38 0 .335.046.7.137 1.097-.643 1.373-1.53 3.142-2.663 5.307-1.286 2.502-2.197 4.393-2.732 5.674-.536 1.28-.82 2.47-.85 3.568 0 3.233.796 5.56 2.388 6.977C3.98 31.18 6.184 31.89 9.001 31.89c1.255 0 2.686-.229 4.293-.686 1.608-.458 3.391-1.068 5.35-1.83.582-.214 1.01-.55 1.286-1.007.061-.122.092-.198.092-.229 0-.06-.03-.091-.092-.091h-.138c-.03.03-.06.046-.091.046-1.684.579-3.008 1.029-3.973 1.35-.964.32-1.844.586-2.64.8a4.207 4.207 0 0 1-1.24.183c-.52 0-.964-.092-1.332-.275 1.317-.335 2.656-.694 4.018-1.075a81.469 81.469 0 0 0 3.697-1.12c.123-.031.184-.077.184-.138l-.046-.046h-.046a8.78 8.78 0 0 0-.46-.274 7.567 7.567 0 0 1-.642-.412l3.123-1.144c.03 0 .06-.015.091-.046.245-.122.452-.236.62-.343.169-.106.253-.22.253-.343-.03-.06-.077-.091-.138-.091h-.138l-.091.045-1.746.55c-1.836.61-3.206 1.052-4.11 1.326-.903.275-1.89.564-2.962.87h-.137c-.153 0-.368-.123-.643-.367-.276-.305-.536-.457-.78-.457 0 .122-.085.244-.253.366-.169.122-.33.183-.483.183l-.275-.458c-1.041.244-1.898.366-2.572.366-.98 0-1.76-.213-2.342-.64 0-.275.069-.763.207-1.464.138-.702.314-1.418.528-2.15.214-.732.46-1.38.735-1.945.275-.564.55-.907.826-1.03.52-.243 1.278-.487 2.273-.731.995-.244 2.021-.473 3.077-.687 1.056-.213 3.176-.58 6.36-1.098a.758.758 0 0 1 .23-.045l.321-1.007c-.367-.183-.55-.473-.55-.87v-.136a.405.405 0 0 0 .045-.183c-.49-.854-.903-1.419-1.24-1.693-.336-.275-.826-.412-1.47-.412-.305 0-.734.076-1.285.229-.551.152-1.24.35-2.066.595-.98.305-1.73.526-2.25.663-.521.137-.98.221-1.378.252.459-.763 1.056-1.724 1.79-2.883.031-.06.077-.137.138-.229 1.041-.305 2.587-.64 4.639-1.006 1.775-.336 3.237-.648 4.385-.938a21.357 21.357 0 0 0 3.467-1.212 8.78 8.78 0 0 1 .46-.275c.49-.305.734-.58.734-.823zm-3.811-.138l-.827.366-.138-.549h.138a.754.754 0 0 1 .184-.045c.398 0 .612.076.643.228zM4.822 21.458c.092-.458.383-.687.872-.687-.091.214-.29.519-.597.915a2.677 2.677 0 0 1-.23.275h-.045v-.503zm-.46 3.888l-.229 1.236c-.184-.153-.276-.397-.276-.732 0-.214.046-.534.138-.961l.368.457zm13.777-.274c0-.03.016-.061.046-.092v-.045c0-.061-.03-.092-.092-.092l-.046.046h-.046c-.887.366-1.836.709-2.847 1.03-1.01.32-2.036.586-3.076.8.183.274.459.412.826.412.368 0 .78-.107 1.24-.32.46-.214.918-.489 1.378-.824.55 0 1.064-.084 1.538-.252.475-.167.834-.389 1.08-.663zm-7.99-12.948l-.78 1.281-.598.137.78-1.28.598-.138zm-1.653 2.059l-.46 1.052-.597.092c.062-.244.215-.496.46-.755.245-.26.444-.389.597-.389zm-3.307 8.052l-.643 2.15-.321-.411.505-1.693.46-.046zm43.437-17.02c.184-.152.275-.365.275-.64 0-.427-.336-.877-1.01-1.35-.673-.472-1.515-.815-2.526-1.029l.414-.732h-.138a.353.353 0 0 0-.138-.046c-.275 0-.52.069-.735.206a4.256 4.256 0 0 0-.688.572 3.205 3.205 0 0 1-.414.366v-.64h-.735a57.911 57.911 0 0 0-2.456 2.402c-.904.93-2.013 2.096-3.33 3.5a1151.67 1151.67 0 0 0-3.444 3.568l-.367-.229.275-.686c.03-.67.169-1.525.414-2.562.244-1.037.55-1.922.918-2.654l-.505-.96a1.703 1.703 0 0 1-.712-.23c-.199-.121-.42-.32-.666-.594a5.471 5.471 0 0 0-1.102-.938c-.367-.229-.888-.389-1.561-.48a9.656 9.656 0 0 0-.276.64c-.428.976-.796 1.586-1.102 1.83l.78-2.47a.441.441 0 0 0-.32-.137c-.215 0-.521.137-.92.411a22.77 22.77 0 0 0-1.377 7.824c0 2.41.368 4.91 1.102 7.503 0 .03.016.076.046.137.03.092.046.153.046.183-.184.214-.505.351-.964.412-.49.702-1.225 1.48-2.204 2.333 0 .397-.115.763-.345 1.099-.23.335-.543.701-.941 1.098l-.184.183-2.48 2.333-.643-.32c-.459.67-.765 1.265-.918 1.784l-1.516 1.418c-.214.55-.336 1.358-.367 2.425-.03.519-.061.87-.092 1.052l1.607-1.464.092.55-2.02 1.92c-.03.031-.046.062-.046.092l-.046.046a6.511 6.511 0 0 1-.367.32c-.368.305-.552.504-.552.595 0 .061.046.092.138.092.551 0 1.095-.19 1.63-.572.536-.381 1.187-.938 1.952-1.67a29.61 29.61 0 0 1 1.63-1.396c.414-.32.804-.495 1.171-.526l3.353-3.248a.936.936 0 0 1 .689-.275c.183 0 .321.046.413.138l2.204-2.196c.245.549.658 1.12 1.24 1.715s1.378 1.274 2.388 2.036a.49.49 0 0 0-.092.275c0 .244.138.495.413.755.276.259.735.617 1.378 1.075.398.305.689.534.873.686.245-.152.566-.229.964-.229.306 0 .643.046 1.01.138l1.929 1.372c.52.366 1.194.55 2.02.55.521 0 .965-.092 1.332-.275-.214-.183-.413-.351-.597-.504a57.39 57.39 0 0 1-2.02-1.715 62.528 62.528 0 0 1-1.63-1.533 19.548 19.548 0 0 1-1.63-1.784c-.49-.61-.873-1.19-1.149-1.739h-.413c-.49-.915-.91-1.822-1.263-2.722-.352-.9-.528-1.685-.528-2.356V18.62h.78c.521-.64 1.348-1.373 2.48-2.196l-.55-.183L48.625 5.216zM36.778 17.753l-.367-.138-1.103 1.007h.643l.827-.87zm1.286 13.908c-.582-.488-1.087-.732-1.516-.732a.818.818 0 0 0-.367.092l1.102.777.78-.137zm-17.588-2.333c0 .518-.215.884-.643 1.098l-.138-.458.78-.64zm2.939-6.497v-.549c-.031.03-.154.137-.368.32-.214.214-.352.336-.413.366l.321.32.46-.457zm-.735.732l-.322-.32c-.673.67-1.148 1.174-1.423 1.51l.321.137 1.424-1.327zM65.979 9.288c0-1.251-.322-2.166-.965-2.746-.643-.579-1.622-.96-2.939-1.143-1.102-.183-2.602-.305-4.5-.366-.092-.488-.322-1.16-.689-2.013a60.56 60.56 0 0 1-.321-.732c-.337-.03-.796-.168-1.378-.412l-.689-.275-.138-.045a3.048 3.048 0 0 0-.872-.138.858.858 0 0 0-.735.39c-.184.258-.413.693-.689 1.303-.49 1.037-1.025 1.86-1.607 2.47-.582.61-1.454.916-2.618.916v.732l-.091.046c-.552.366-.934.686-1.148.96l1.148.275a3.29 3.29 0 0 1-.69 1.601c.184.214.437.473.758.778.322.305.651.58.988.823a203.94 203.94 0 0 0-2.067 4.53 343 343 0 0 0-2.066 4.78 135.803 135.803 0 0 0-1.883 4.668 85.32 85.32 0 0 0-1.378 3.866c0 .58.077 1.204.23 1.875.153.671.398 1.25.735 1.739.153.213.39.427.711.64.322.214.69.412 1.103.595.413.183.78.328 1.102.435.321.107.543.16.666.16.03-.275.091-.64.183-1.098.092-.458.169-.793.23-1.007l2.066-5.993c0-.061-.03-.092-.091-.092-.031 0-.108.016-.23.046a.754.754 0 0 1-.184.046c-.092 0-.138-.03-.138-.092 0-.61.138-1.242.414-1.898.275-.656.612-1.335 1.01-2.036a.35.35 0 0 1 .046-.137c.122-.214.214-.32.276-.32.06 0 .122.106.183.32.03.213.077.32.138.32.061 0 .16-.145.298-.435.138-.29.36-.74.666-1.35.429-.976.72-1.586.873-1.83.214.122.474.183.78.183.582 0 1.294-.213 2.136-.64.842-.427 1.967-1.068 3.375-1.922.612-.366 1.164-.701 1.653-1.006l.368.32a46.2 46.2 0 0 0 .78-.549c1.899-1.311 3.238-2.394 4.019-3.248.78-.854 1.17-1.952 1.17-3.294zm-4.18 4.3c0 .03.016.061.047.092v.045c0 .183-.153.382-.46.595-.306.214-.734.473-1.285.778-.215.153-.383.26-.506.32a.612.612 0 0 1-.367.138c-.214 0-.321-.061-.321-.183 0-.031.015-.046.046-.046v-.046l2.847-1.693zM57.163 16.7c-.551.305-1.118.595-1.7.87a11.43 11.43 0 0 1-1.653.64c.062-.335.207-.633.437-.892.23-.26.482-.389.757-.389h.597c.215 0 .46-.091.735-.274.184-.122.321-.183.413-.183.153 0 .291.076.414.228zm1.377-.732l-.78.458c-.031 0-.062.015-.092.046h-.092a.447.447 0 0 1-.23-.092c-.153-.122-.275-.183-.367-.183.184-.274.49-.412.918-.412.307 0 .52.061.643.183zm4.547-2.928c0 .153-.085.282-.253.39a.972.972 0 0 1-.528.16c-.153 0-.23-.047-.23-.138.061-.153.2-.275.414-.366l.137-.092a.495.495 0 0 1 .276-.091c.122 0 .184.046.184.137zM49.079 24.477c-.122.03-.283.267-.482.71a8.168 8.168 0 0 0-.436 1.166h.046l.046.046c.06 0 .153-.03.275-.092a.447.447 0 0 1 .23-.091 3.52 3.52 0 0 1 .184-.412c.122-.305.221-.557.298-.755.077-.198.115-.343.115-.435 0-.122-.046-.183-.138-.183-.03 0-.046.016-.046.046h-.092zm35.952-3.111a4.22 4.22 0 0 0-.322-1.67c-.214-.503-.49-1.03-.826-1.578-.276-.458-.414-.748-.414-.87.03-.549.107-1.105.23-1.67.122-.564.29-1.197.505-1.898v-.046l-.138-.092a.534.534 0 0 1-.138-.091c.154-.092.276-.313.368-.663.092-.351.168-.763.23-1.236.06-.472.099-.93.114-1.372.016-.443.023-.877.023-1.304-.245-.366-.398-1.052-.459-2.059-.061-.793-.153-1.426-.276-1.899-.122-.472-.413-.907-.872-1.304h-.046l-.046-.045c-.061 0-.199.045-.413.137-.245.091-.429.137-.551.137-.184 0-.276-.107-.276-.32l.827-.275c-.306-.244-.72-.488-1.24-.732a12.59 12.59 0 0 0-1.332-.549c-.03.244-.138.397-.321.458a3.645 3.645 0 0 1-.781.137c-.306 0-.505.03-.597.092a38.847 38.847 0 0 0-3.1 2.745 32.223 32.223 0 0 0-3.008 3.431c-.704.946-1.898 2.425-3.582 4.438a213.056 213.056 0 0 0-3.329 4.118 63.083 63.083 0 0 0-2.71 3.728 26.598 26.598 0 0 0-2.204 3.935c-.597 1.327-.987 2.615-1.17 3.866h.734a.81.81 0 0 0-.092.366c0 .305.26.732.781 1.281.582.61.888 1.129.918 1.556l2.894 1.235c.336-.427.826-1.373 1.47-2.837l.734-1.601-.184-.549.23-.595c.581-.396 1.385-.877 2.41-1.44a59.46 59.46 0 0 1 3.284-1.67 32.498 32.498 0 0 1 3.352-1.373c1.072-.366 1.93-.55 2.572-.55v.184a.35.35 0 0 1 .046.137 1.5 1.5 0 0 1-.092.457c-.03.214-.046.412-.046.595l-.78-.96c-.031.182-.108.655-.23 1.418-.061.67-.123 1.128-.184 1.372h.092c0 .03.015.046.046.046.153 0 .26-.114.321-.343.062-.229.108-.572.138-1.03v-.183l.551.23c-.06.579-.191 1.212-.39 1.898-.2.686-.375 1.03-.528 1.03v-.275c.03-.122.046-.214.046-.275 0-.488-.107-.732-.322-.732-.06.336-.214.915-.459 1.739-.275.915-.429 1.586-.46 2.013 0 .305.139.457.414.457-.03.305-.184.458-.46.458l-.045.64c.276 0 .467.092.574.275.107.183.16.518.16 1.006h.093a.353.353 0 0 1 .137-.045c.215 0 .613.152 1.194.457.858.458 1.531.686 2.02.686.276-.823.49-1.547.644-2.173.153-.625.245-1.288.275-1.99a.572.572 0 0 1-.413.183c-.03 0-.061-.015-.092-.046.49-.64.735-1.174.735-1.601 0-.213-.077-.503-.23-.87.429-.396.643-.869.643-1.418 0-.305-.107-.518-.321-.64.275-.244.474-.572.597-.984.122-.412.23-.922.321-1.532.092-.61.184-1.007.276-1.19.214-.03.597-.091 1.148-.183a25.634 25.634 0 0 1 1.332-.183zM81.31 8.281c-.092.427-.276 1.296-.551 2.608a131.87 131.87 0 0 1-.643 2.836c-.184.763-.352 1.343-.505 1.74l-.78-.687c-.032.091-.108.305-.23.64-.307.824-.49 1.51-.552 2.06l-1.01.274c-.643.152-1.194.305-1.653.457-.46.153-.98.35-1.561.595-.796.335-1.638.87-2.526 1.601-.398.305-.704.534-.919.687.245-.367.659-.977 1.24-1.83.95-1.404 1.577-2.303 1.883-2.7a50.801 50.801 0 0 0 1.929-2.47 1.538 1.538 0 0 1-.184-.687c0-.335.276-.808.827-1.418a.31.31 0 0 1 .092.229c0 .091-.046.259-.138.503l-.046.091.23.23c1.163-1.556 2.18-2.807 3.053-3.752.873-.946 1.508-1.434 1.906-1.464l.138.457zm-2.204 8.601l-.046.504c-.337 0-.505-.077-.505-.23v-.09a.746.746 0 0 0 .046-.184h.505zm-.046-.274h-.414l.184-.503.184.045.046.458zM77.453 27.77l-.183.732h-.276l.184-.595.275-.137zm-6.475-3.385l-3.49 1.83.092-.183c.153-.244.291-.458.413-.64l.506-.275c.459-.244.857-.45 1.194-.618.336-.168.627-.252.872-.252.184 0 .322.046.413.138zm.551-.275c.092-.335.245-.557.46-.663.214-.107.597-.176 1.148-.206v.046c-.215.122-.551.305-1.01.549-.337.152-.536.244-.598.274zm9.185-15.006l-.413.183-.368 1.235h.414l.367-1.418zM68.453 24.569l.55-.778c.123-.061.292-.122.506-.183.214-.061.367-.107.46-.137-.093.244-.269.442-.529.594-.26.153-.543.305-.85.458-.06 0-.107.015-.137.046zm38.844-10.98l-.275-.184v-.046c0-.06.122-.305.367-.732.03-.06.076-.137.138-.228.153-.244.352-.534.597-.87a89.877 89.877 0 0 1 2.525-3.591 26.394 26.394 0 0 1 2.848-3.226l-.965.138c-.245.091-.68.526-1.309 1.304a60.008 60.008 0 0 0-2.204 2.95 91.529 91.529 0 0 0-2.663 4.004c-.934 1.48-1.784 2.89-2.549 4.232-.092-.366-.23-.96-.413-1.784a65.887 65.887 0 0 0-.597-2.585 14.535 14.535 0 0 0-.551-1.762c-.153-.396-.467-.831-.942-1.304a13.518 13.518 0 0 0-1.63-1.372 17.431 17.431 0 0 0-1.79-1.144 15.208 15.208 0 0 0-1.425-.71c-.244.245-.627.626-1.148 1.145-2.51 2.531-4.645 4.918-6.406 7.16-1.76 2.242-3.283 4.918-4.569 8.03a3.543 3.543 0 0 1-.184.457c-.245.61-.367 1.128-.367 1.555v.366c.03.153.046.29.046.412l.275 2.013c.123.061.352.427.69 1.098.336.702.65 1.25.94 1.647.291.397.62.595.988.595h1.286c.55-.732 1.094-1.64 1.63-2.722.536-1.083 1.248-2.616 2.135-4.598 1.164-2.654 2.052-4.545 2.664-5.674l-.138-.732c.582-1.037 1.248-1.898 1.998-2.585.75-.686 1.492-1.151 2.227-1.395l.23 1.784c0 .122.015.26.046.412v.412c0 .366-.046.884-.138 1.555a20.15 20.15 0 0 0-.092 1.647c0 .915.168 1.876.505 2.883.092.274.138.686.138 1.235 0 .183-.015.58-.046 1.19-.03.518-.046.9-.046 1.143 0 .092.015.214.046.366v.32c.214 1.678.528 2.837.941 3.478.414.64 1.31 1.144 2.687 1.51l.275-.64 2.067.96a235.2 235.2 0 0 0 1.194-2.974c1.408-3.538 2.403-6.192 2.985-7.96.06-.153.214-.336.459-.55.245-.183.367-.32.367-.412.092-.213.169-.518.23-.915.061-.366.122-.61.184-.732.183-.305.443-.701.78-1.19.49-.67.835-1.212 1.034-1.623.199-.412.313-.892.344-1.442l.046-.045h.092c.03 0 .092.03.183.091a.447.447 0 0 0 .23.092c.061 0 .122-.046.184-.138a18.994 18.994 0 0 1 1.997-2.31 29.494 29.494 0 0 1 2.434-2.173 31.864 31.864 0 0 1 2.457-1.784c.796-.519 1.5-.916 2.112-1.19l-1.285-1.373c-.153.092-.398.191-.735.298-.337.107-.582.16-.735.16l-.092-.183.919-.64c-.704-.489-1.944-.733-3.72-.733-1.04.061-1.837.26-2.388.595a28.516 28.516 0 0 0-2.02 2.15 53.251 53.251 0 0 0-1.975 2.448 95.067 95.067 0 0 0-1.7 2.31c-.52.733-.994 1.434-1.423 2.105zm6.567-1.602l-.964 1.464a.308.308 0 0 1-.138-.275c0-.122.053-.282.16-.48.108-.198.268-.465.483-.8l.138-.184h.045c0-.03.016-.045.046-.045.153 0 .23.106.23.32zm-.918-5.353c.275-.427.535-.747.78-.96l.368.182-.781 1.007c-.153 0-.276-.077-.367-.229zm6.153-.96c0 .243-.046.426-.138.548-.092.122-.23.244-.413.366a.577.577 0 0 0-.23.137l-.091-.411.872-.64zm-8.955 15.097h-.092c-.03-.03-.06-.046-.091-.046-.153 0-.26.107-.322.32-.061.214-.107.535-.138.962v.045l.414.275.23-1.556zm4.914-10.431l-.827 1.19c-.03-.153-.168-.23-.413-.23l.918-1.189c.062-.06.108-.091.138-.091.153 0 .23.076.23.228l-.046.046v.046zm-18.46-2.288l-.23.229c-.337.458-.613.686-.827.686a.441.441 0 0 1-.321-.137l1.01-1.052.367.274zm48.487 4.987a.75.75 0 0 0-.046-.229 16.104 16.104 0 0 0-.275-1.921 7.029 7.029 0 0 0-.643-1.762c-.306-.594-.765-1.143-1.378-1.647-.612-.503-1.393-.907-2.342-1.212-.306-.092-.78-.168-1.423-.229-.704-.091-1.148-.198-1.332-.32-.153.366-.46.549-.919.549-.244 0-.367-.076-.367-.229 0-.091.03-.198.092-.32a10.357 10.357 0 0 0-1.7-.137c-.58 0-1.316.045-2.203.137-.766.091-1.332.137-1.7.137.062-.244.138-.534.23-.87.153-.61.23-1.036.23-1.28v-.229a.746.746 0 0 1-.046-.183c-.03-.122-.161-.374-.39-.755-.23-.381-.467-.762-.712-1.144a9.768 9.768 0 0 0-.712-.983c-.23-.275-.39-.412-.482-.412-.643 0-1.148.275-1.516.824-.367.549-.78 1.418-1.24 2.607-.336.793-.65 1.487-.941 2.082a6.264 6.264 0 0 1-1.033 1.533l-.46-.32a8.772 8.772 0 0 1-1.01.457c-.796.336-1.4.648-1.814.938-.413.29-.635.633-.666 1.03 0 .396.26.914.781 1.555.551.701.827 1.266.827 1.693-.031.701-.398 1.708-1.103 3.02-.52 1.006-.872 1.799-1.056 2.378l.184.687c-.153.518-.245.884-.276 1.098-.275.976-.497 1.746-.665 2.31-.169.564-.39 1.152-.666 1.762-.153.366-.33.64-.528.823-.2.183-.498.366-.896.55l-1.148.502c-.03.61-.153 1.19-.367 1.739.153.183.382.564.688 1.144.613 1.006 1.202 1.8 1.769 2.379.566.58 1.324.87 2.273.87.214 0 .52-.031.918-.092.367-.061.628-.092.78-.092.307 0 .582.061.827.183l.414-2.516c2.724-1.19 5.54-2.7 8.45-4.53a67.284 67.284 0 0 0 8.036-5.902l-.827-.183c1.072-.854 1.715-1.387 1.929-1.6.184-.184.428-.275.735-.275l.137.045h.138l-.689.732c.49 0 .903-.167 1.24-.503.398-.396.82-.892 1.263-1.487a42.45 42.45 0 0 0 1.447-2.082l.183-.32zm-2.663 2.791l-.368.412-.597-.137.368-.412.597.137zm-2.02-5.948v.138l.045.137c0 .396-.107.831-.321 1.304a7.144 7.144 0 0 1-.804 1.35 5.211 5.211 0 0 1-1.033 1.052c-.368.274-.689.412-.965.412a.353.353 0 0 1-.137-.046h-.092c-.796.915-1.424 1.578-1.883 1.99-.46.412-.811.618-1.056.618-.153 0-.306-.122-.46-.366l-.413.274.276.64a.758.758 0 0 0-.23-.045c-.214-.061-.367-.137-.459-.229a14.67 14.67 0 0 1-2.342 1.624 84.745 84.745 0 0 1-3.215 1.716c-1.01.488-1.714.854-2.112 1.098.092-.61.321-1.403.689-2.38.337-.792.505-1.356.505-1.692-.061-.396-.168-.717-.321-.96v-.046c.183.152.382.244.597.274.214 0 .321-.29.321-.87 0-.457-.107-.685-.321-.685a.447.447 0 0 0-.23.091v-.046a2.12 2.12 0 0 1 .46-.411c.183-.122.305-.214.367-.275l.045-1.418c.398-.122 1.041-.397 1.93-.824a32.828 32.828 0 0 1 4.867-1.761c1.622-.443 3.72-.664 6.291-.664zm-2.389 9.517l-.964.686a.624.624 0 0 1-.46.183c-.152 0-.32-.061-.504-.183l1.515-.824.413.138zm-1.699 1.28c-.643.397-1.653 1.068-3.03 2.014-1.868 1.28-3.307 2.226-4.317 2.836-.368-.213-.72-.32-1.057-.32.337-.305.643-.457.919-.457.153 0 .29.06.413.183.276-.153.444-.412.505-.778.46-.275 1.21-.732 2.25-1.373.98-.58 1.592-.945 1.837-1.098a14.64 14.64 0 0 1 1.401-.8 2.484 2.484 0 0 1 1.08-.252v.046zm-11.113 6.68c.245-.274.597-.617 1.056-1.029.46-.412.857-.71 1.194-.892v.046a.438.438 0 0 0-.138.32c0 .244.077.396.23.457l-2.342 1.144v-.046zm-.551-.183l-.23.55-1.285.686.091-.458 1.424-.778zm33.839-21.915c0-.518-.16-1.006-.482-1.464-.322-.457-.712-.777-1.171-.96V1.739a3.187 3.187 0 0 0-.368-.092c-.49-.152-.842-.229-1.056-.229a1.78 1.78 0 0 0-.758.183c-.26.122-.467.275-.62.458-.49.884-1.47 2.516-2.939 4.895a245.294 245.294 0 0 0-3.375 5.536 67.149 67.149 0 0 0-2.663 5.01 37.904 37.904 0 0 0-2.067 5.239c-.536 1.738-.804 3.355-.804 4.85.552 1.433 1.393 2.577 2.526 3.43.03-.487.2-.853.505-1.097v1.464c.704.396 1.47.732 2.296 1.006 0-.06-.015-.152-.045-.274a2.743 2.743 0 0 1-.046-.412c0-1.22.367-2.669 1.102-4.347.306-.732.72-1.83 1.24-3.294.98-2.653 1.806-4.56 2.48-5.719l.045-.045c.123-.183.184-.32.184-.412 0-.03-.03-.046-.092-.046h-.046a.754.754 0 0 1-.183.046c-.49.549-.919 1.243-1.286 2.082-.368.838-.78 1.898-1.24 3.18-.429 1.22-.75 2.073-.965 2.561a5.469 5.469 0 0 1-.252.687c-.107.244-.191.366-.253.366-.183-.061-.275-.168-.275-.32 0-.123.092-.351.275-.687l.138-.274c.214-.55.46-1.25.735-2.105.52-1.464.98-2.654 1.378-3.569.398-.915.887-1.8 1.469-2.653l1.791-1.007-.184-.549a4.326 4.326 0 0 0 1.539-1.44c.413-.626.88-1.473 1.4-2.54.49-1.007.873-1.708 1.148-2.105h.506c.122-.762.221-1.517.298-2.264.077-.748.115-1.411.115-1.99zm-10.654 22.281l-.643 1.602c-.061.122-.138.183-.23.183-.091 0-.137-.107-.137-.32l.505-1.236c0-.305.046-.457.138-.457.091 0 .214.076.367.228zM178 21.366a4.22 4.22 0 0 0-.321-1.67c-.215-.503-.49-1.03-.827-1.578-.276-.458-.413-.748-.413-.87.03-.549.107-1.105.23-1.67.122-.564.29-1.197.504-1.898v-.046l-.137-.092a.534.534 0 0 1-.138-.091c.153-.092.275-.313.367-.663.092-.351.169-.763.23-1.236.061-.472.1-.93.115-1.372.015-.443.023-.877.023-1.304-.245-.366-.398-1.052-.46-2.059-.06-.793-.153-1.426-.275-1.899-.123-.472-.413-.907-.873-1.304h-.046l-.045-.045c-.062 0-.2.045-.414.137-.245.091-.428.137-.55.137-.185 0-.276-.107-.276-.32l.826-.275c-.306-.244-.72-.488-1.24-.732a12.59 12.59 0 0 0-1.331-.549c-.031.244-.138.397-.322.458a3.645 3.645 0 0 1-.78.137c-.307 0-.506.03-.598.092a38.847 38.847 0 0 0-3.1 2.745 32.223 32.223 0 0 0-3.007 3.431c-.704.946-1.898 2.425-3.582 4.438a213.055 213.055 0 0 0-3.33 4.118 63.083 63.083 0 0 0-2.709 3.728 26.598 26.598 0 0 0-2.204 3.935c-.597 1.327-.987 2.615-1.171 3.866h.735a.81.81 0 0 0-.092.366c0 .305.26.732.78 1.281.582.61.888 1.129.919 1.556l2.893 1.235c.337-.427.827-1.373 1.47-2.837l.734-1.601-.183-.549.23-.595c.58-.396 1.384-.877 2.41-1.44a59.46 59.46 0 0 1 3.283-1.67 32.498 32.498 0 0 1 3.353-1.373c1.071-.366 1.929-.55 2.571-.55v.184a.35.35 0 0 1 .046.137 1.5 1.5 0 0 1-.091.457c-.031.214-.046.412-.046.595l-.781-.96-.23 1.418c-.06.67-.122 1.128-.183 1.372h.091c0 .03.016.046.046.046.153 0 .26-.114.322-.343.061-.229.107-.572.138-1.03v-.183l.55.23c-.06.579-.19 1.212-.39 1.898-.199.686-.375 1.03-.528 1.03v-.275c.03-.122.046-.214.046-.275 0-.488-.107-.732-.321-.732-.062.336-.215.915-.46 1.739-.275.915-.428 1.586-.459 2.013 0 .305.138.457.414.457-.031.305-.184.458-.46.458l-.046.64c.276 0 .467.092.574.275.108.183.161.518.161 1.006h.092a.353.353 0 0 1 .138-.045c.214 0 .612.152 1.194.457.857.458 1.53.686 2.02.686.276-.823.49-1.547.643-2.173.153-.625.245-1.288.276-1.99a.572.572 0 0 1-.414.183c-.03 0-.06-.015-.091-.046.49-.64.734-1.174.734-1.601 0-.213-.076-.503-.23-.87.43-.396.644-.869.644-1.418 0-.305-.107-.518-.322-.64.276-.244.475-.572.597-.984.123-.412.23-.922.322-1.532s.183-1.007.275-1.19c.215-.03.597-.091 1.148-.183a25.634 25.634 0 0 1 1.332-.183zm-3.72-13.085c-.092.427-.275 1.296-.55 2.608a131.87 131.87 0 0 1-.644 2.836c-.183.763-.352 1.343-.505 1.74l-.78-.687c-.031.091-.108.305-.23.64-.306.824-.49 1.51-.551 2.06l-1.01.274c-.643.152-1.194.305-1.654.457-.459.153-.98.35-1.561.595-.796.335-1.638.87-2.526 1.601-.398.305-.704.534-.918.687.245-.367.658-.977 1.24-1.83.949-1.404 1.576-2.303 1.883-2.7a50.802 50.802 0 0 0 1.928-2.47 1.538 1.538 0 0 1-.183-.687c0-.335.275-.808.826-1.418a.31.31 0 0 1 .092.229c0 .091-.046.259-.138.503l-.046.091.23.23c1.163-1.556 2.181-2.807 3.054-3.752.872-.946 1.508-1.434 1.906-1.464l.137.457zm-2.204 8.601l-.046.504c-.337 0-.505-.077-.505-.23v-.09a.746.746 0 0 0 .046-.184h.505zm-.046-.274h-.413l.184-.503.183.045.046.458zm-1.607 11.163l-.184.732h-.275l.183-.595.276-.137zm-6.475-3.385l-3.49 1.83.092-.183c.153-.244.29-.458.413-.64l.505-.275c.46-.244.857-.45 1.194-.618.337-.168.628-.252.873-.252.183 0 .321.046.413.138zm.55-.275c.093-.335.246-.557.46-.663.214-.107.597-.176 1.148-.206v.046c-.214.122-.55.305-1.01.549-.337.152-.536.244-.597.274zm9.185-15.006l-.413.183-.367 1.235h.413l.367-1.418zm-12.26 15.464l.55-.778c.123-.061.291-.122.505-.183.215-.061.368-.107.46-.137-.092.244-.268.442-.529.594-.26.153-.543.305-.85.458-.06 0-.106.015-.137.046z" id="expandia__logo-expandia-copy"/></g></g></g></symbol><symbol viewBox="0 0 39 50" id="svg-expandia__payment-terms"><title>expandia__payment-terms</title><g id="expandia__payment-terms-Page-1" fill="none" fill-rule="evenodd"><g id="expandia__payment-terms-Desktop" transform="translate(-579 -1608)" fill="#30343F"><g id="expandia__payment-terms-Group-25" transform="translate(164 1500)"><g id="expandia__payment-terms-Group-23" transform="translate(307 108)"><g id="expandia__payment-terms-list" transform="translate(108)"><path d="M26.86 0H0v50h38.947V12.155L26.86 0zm.486 2.845l8.772 8.822h-8.772V2.845zM1.657 48.333V1.667H25.69v11.666H37.29v35H1.657z" id="expandia__payment-terms-Shape"/><path d="M30.205 17.368H16.637c-.468 0-.848.353-.848.79 0 .436.38.79.848.79h13.568c.468 0 .848-.354.848-.79 0-.437-.38-.79-.848-.79zM13.407 14.93l-3.522 3.018-1.119-1.2a.78.78 0 0 0-1.157 0 .92.92 0 0 0 0 1.24l1.637 1.755a.78.78 0 0 0 1.09.065l4.093-3.509a.92.92 0 0 0 .128-1.233.781.781 0 0 0-1.15-.137zM30.205 26.842H16.637c-.468 0-.848.353-.848.79 0 .436.38.79.848.79h13.568c.468 0 .848-.354.848-.79 0-.437-.38-.79-.848-.79zM13.407 24.403l-3.522 3.018-1.119-1.199a.78.78 0 0 0-1.157 0 .92.92 0 0 0 0 1.24l1.637 1.755a.78.78 0 0 0 1.09.065l4.093-3.509a.92.92 0 0 0 .128-1.233.781.781 0 0 0-1.15-.137zM30.205 35.79H16.637c-.468 0-.848.352-.848.789 0 .437.38.79.848.79h13.568c.468 0 .848-.353.848-.79 0-.437-.38-.79-.848-.79zM13.407 33.35L9.885 36.37l-1.119-1.2a.78.78 0 0 0-1.157 0 .92.92 0 0 0 0 1.24l1.637 1.755a.78.78 0 0 0 1.09.065l4.093-3.509a.92.92 0 0 0 .128-1.233.781.781 0 0 0-1.15-.137z" id="expandia__payment-terms-Shape"/></g></g></g></g></g></symbol><symbol viewBox="0 0 7 16" id="svg-expandia__social-icon--facebook"><title>expandia__social-icon--facebook</title><g id="expandia__social-icon--facebook-Page-1" fill="none" fill-rule="evenodd"><g id="expandia__social-icon--facebook-Home-Copy-3" transform="translate(-215 -2536)" fill="#D9D9D9"><g id="expandia__social-icon--facebook-Group-12" transform="translate(215 2467)"><g id="expandia__social-icon--facebook-Group-8" transform="translate(0 69)"><path d="M4.658 5.243V3.864c0-.207.009-.367.027-.48a.97.97 0 0 1 .123-.336.504.504 0 0 1 .31-.228c.143-.042.333-.063.57-.063h1.294V0h-2.07C3.717 0 2.857.303 2.334.908c-.522.605-.783 1.496-.783 2.674v1.66H0V8h1.55v8h3.108V8h2.069L7 5.243H4.658z" id="expandia__social-icon--facebook-Shape"/></g></g></g></g></symbol><symbol viewBox="0 0 16 16" id="svg-expandia__social-icon--google-plus"><title>expandia__social-icon--google-plus</title><g id="expandia__social-icon--google-plus-Page-1" fill="none" fill-rule="evenodd"><g id="expandia__social-icon--google-plus-Home-Copy-3" transform="translate(-313 -2536)" fill="#D9D9D9"><g id="expandia__social-icon--google-plus-Group-12" transform="translate(215 2467)"><g id="expandia__social-icon--google-plus-Group-8" transform="translate(0 69)"><g id="expandia__social-icon--google-plus-Group-7" transform="translate(98)"><path d="M9.953 0H6.202C4.53 0 3.373.372 2.332 1.246c-.819.717-1.308 1.76-1.308 2.79 0 1.585 1.19 3.27 3.397 3.27.212 0 .447-.022.655-.041l-.03.075c-.09.216-.174.42-.174.737 0 .619.294 1 .578 1.369l.036.046-.063.005c-.912.063-2.607.181-3.846.954C.114 11.335 0 12.62 0 12.992c0 1.483 1.36 2.98 4.4 2.98 3.535 0 5.385-1.98 5.385-3.937 0-1.447-.835-2.16-1.722-2.92l-.748-.59c-.231-.194-.52-.436-.52-.885 0-.44.289-.731.543-.988l.026-.027c.808-.646 1.724-1.379 1.724-2.963 0-1.594-.98-2.417-1.452-2.813H8.88c.015 0 .03-.004.043-.012L9.996.152a.083.083 0 0 0 .035-.092.08.08 0 0 0-.078-.06zM5.404 15.099c-2.154 0-3.602-1.022-3.602-2.543 0-.993.592-1.715 1.758-2.144.934-.32 2.14-.335 2.152-.335.204 0 .306 0 .47.02 1.507 1.09 2.232 1.662 2.232 2.752 0 1.388-1.154 2.25-3.01 2.25zm-.02-8.376c-1.808 0-2.559-2.414-2.559-3.706 0-.658.147-1.162.45-1.543A1.885 1.885 0 0 1 4.71.787c1.66 0 2.578 2.266 2.578 3.832 0 .247 0 .999-.511 1.521a2.081 2.081 0 0 1-1.392.583zM15.064 7.173h-1.976v-2a.082.082 0 0 0-.082-.082h-.85a.082.082 0 0 0-.081.082v2h-1.967a.082.082 0 0 0-.081.083v.875c0 .045.036.082.081.082h1.967v2.013c0 .045.036.083.081.083h.85a.082.082 0 0 0 .082-.083V8.213h1.976a.082.082 0 0 0 .081-.083v-.874a.082.082 0 0 0-.08-.083z" id="expandia__social-icon--google-plus-Shape"/></g></g></g></g></g></symbol><symbol viewBox="0 0 16 13" id="svg-expandia__social-icon--twitter"><title>expandia__social-icon--twitter</title><g id="expandia__social-icon--twitter-Page-1" fill="none" fill-rule="evenodd"><g id="expandia__social-icon--twitter-Home-Copy-3" transform="translate(-242 -2537)" fill="#D9D9D9"><g id="expandia__social-icon--twitter-Group-12" transform="translate(215 2467)"><g id="expandia__social-icon--twitter-Group-8" transform="translate(0 69)"><path d="M43 2.538a6.553 6.553 0 0 1-1.885.517 3.297 3.297 0 0 0 1.443-1.815 6.616 6.616 0 0 1-2.086.797A3.283 3.283 0 0 0 34.88 5.03a9.318 9.318 0 0 1-6.764-3.43 3.259 3.259 0 0 0-.444 1.65c0 1.14.58 2.144 1.46 2.732a3.282 3.282 0 0 1-1.487-.412v.041a3.286 3.286 0 0 0 2.632 3.22 3.324 3.324 0 0 1-.864.115 3.15 3.15 0 0 1-.618-.061 3.284 3.284 0 0 0 3.065 2.28 6.584 6.584 0 0 1-4.076 1.403c-.265 0-.526-.016-.783-.045A9.276 9.276 0 0 0 32.031 14c6.038 0 9.338-5.002 9.338-9.34l-.01-.426A6.555 6.555 0 0 0 43 2.538z" id="expandia__social-icon--twitter-Shape"/></g></g></g></g></symbol><symbol viewBox="0 0 17 16" id="svg-expandia__social-logo--instagram"><title>expandia__social-logo--instagram</title><g id="expandia__social-logo--instagram-Page-1" fill="none" fill-rule="evenodd"><g id="expandia__social-logo--instagram-Home-Copy-3" transform="translate(-277 -2536)" fill="#D9D9D9"><g id="expandia__social-logo--instagram-Group-12" transform="translate(215 2467)"><g id="expandia__social-logo--instagram-Group-8" transform="translate(0 69)"><g id="expandia__social-logo--instagram-Group-5" transform="translate(62)"><path d="M11.823 0H4.802C2.417 0 .477 1.97.477 4.391v7.13c0 2.42 1.94 4.39 4.325 4.39h7.02c2.385 0 4.325-1.97 4.325-4.39V4.39C16.147 1.97 14.207 0 11.823 0zm2.934 11.52c0 1.643-1.316 2.98-2.934 2.98H4.802c-1.618 0-2.934-1.337-2.934-2.98V4.392c0-1.643 1.316-2.98 2.934-2.98h7.02c1.619 0 2.935 1.337 2.935 2.98v7.13z" id="expandia__social-logo--instagram-Shape"/><path d="M8.312 3.856c-2.226 0-4.037 1.84-4.037 4.1s1.811 4.1 4.037 4.1c2.227 0 4.038-1.84 4.038-4.1s-1.811-4.1-4.038-4.1zm0 6.788c-1.46 0-2.647-1.206-2.647-2.688 0-1.482 1.188-2.688 2.647-2.688 1.46 0 2.648 1.206 2.648 2.688 0 1.482-1.188 2.688-2.648 2.688zM11.8 2.962a1.048 1.048 0 0 0 0 1.464c.188.192.452.304.72.304.268 0 .53-.112.72-.304a1.051 1.051 0 0 0 0-1.464 1.016 1.016 0 0 0-.72-.303c-.268 0-.532.11-.72.303z" id="expandia__social-logo--instagram-Shape"/></g></g></g></g></g></symbol><symbol viewBox="0 0 35 50" id="svg-expandia__under-one-roof"><title>expandia__under-one-roof</title><g id="expandia__under-one-roof-Page-1" fill="none" fill-rule="evenodd"><g id="expandia__under-one-roof-Desktop" transform="translate(-274 -1608)" fill="#30343F"><g id="expandia__under-one-roof-Group-25" transform="translate(164 1500)"><g id="expandia__under-one-roof-Group-22" transform="translate(0 108)"><g id="expandia__under-one-roof-placeholder" transform="translate(110)"><path d="M17.683 10.91c-3.49 0-6.33 2.855-6.33 6.363 0 3.508 2.84 6.363 6.33 6.363s6.33-2.855 6.33-6.363c0-3.508-2.84-6.364-6.33-6.364zm0 10.908c-2.493 0-4.52-2.039-4.52-4.545 0-2.507 2.027-4.546 4.52-4.546 2.493 0 4.521 2.04 4.521 4.546 0 2.506-2.028 4.545-4.52 4.545z" id="expandia__under-one-roof-Shape"/><path d="M29.784 5.106C26.509 1.814 22.154 0 17.524 0 12.89 0 8.536 1.814 5.261 5.106c-6.06 6.093-6.814 17.557-1.63 24.502L17.522 49.78l13.871-20.143c5.204-6.973 4.45-18.437-1.61-24.53zm.144 23.468l-12.405 18.01L5.1 28.546C.398 22.244 1.07 11.891 6.542 6.392a15.386 15.386 0 0 1 10.981-4.574 15.39 15.39 0 0 1 10.982 4.574c5.47 5.499 6.144 15.852 1.423 22.182z" id="expandia__under-one-roof-Shape"/></g></g></g></g></g></symbol><symbol viewBox="0 0 422 241" id="svg-expandia__work-img"><title>expandia__work-img</title><g id="expandia__work-img-Page-1" fill="none" fill-rule="evenodd"><g id="expandia__work-img-work__img"><g id="expandia__work-img-screen__container" transform="translate(0 26)"><use id="expandia__work-img-screen-main" stroke="#979797" mask="url(#expandia__work-img-mask-2)" stroke-width="1.2" fill="#D8D8D8" xlink:href="#expandia__work-img-path-1"/><g id="expandia__work-img-screen-img__container" transform="translate(20.652 5.292)" stroke="#979797" stroke-width="2" fill="#D8D8D8"><use id="expandia__work-img-screen-img__placeholder" mask="url(#expandia__work-img-mask-4)" xlink:href="#expandia__work-img-path-3"/></g><rect id="expandia__work-img-screen-bottom" fill="#767676" x=".175" y="185.892" width="361.99" height="11.908" rx="1.8"/></g><g id="expandia__work-img-phone__container" transform="translate(305)"><g stroke="#979797"><use id="expandia__work-img-phone-outer" stroke-opacity=".307" mask="url(#expandia__work-img-mask-6)" fill="#F5F4F4" xlink:href="#expandia__work-img-path-5"/><ellipse id="expandia__work-img-home-button" stroke-width=".9" cx="58.5" cy="225.628" rx="9.915" ry="9.918"/><ellipse id="expandia__work-img-camera" stroke-width=".5" cx="57.508" cy="7.438" rx="1.487" ry="1.488"/><path d="M48.833 14.629h17.351" id="expandia__work-img-earpiece" stroke-width="1.35" stroke-linecap="round" fill="#979797"/></g><g id="expandia__work-img-phone-img__container" transform="translate(5.95 27.071)"><mask id="expandia__work-img-mask-8" fill="#fff"><use xlink:href="#expandia__work-img-path-7"/></mask><use id="expandia__work-img-phone-mask" fill="#D8D8D8" xlink:href="#expandia__work-img-path-7"/><use mask="url(#expandia__work-img-mask-10)" xlink:href="#expandia__work-img-path-9" id="expandia__work-img-phone-img__placeholder" stroke-width="2" stroke="#979797" fill="#D8D8D8"/></g></g></g></g></symbol><symbol viewBox="0 0 15 12" id="svg-side-menu__opener"><title>side-menu__opener</title><g id="side-menu__opener-Page-1" fill="none" fill-rule="evenodd"><g id="side-menu__opener-Desktop" transform="translate(-938 -51)" fill="#FFF"><g id="side-menu__opener-side-menu__opener" transform="translate(938 51)"><path id="side-menu__opener-Rectangle-1" d="M0 0h15v2.562H0z"/><path id="side-menu__opener-Rectangle-1-Copy" d="M0 4.27h15v2.562H0z"/><path id="side-menu__opener-Rectangle-1-Copy-2" d="M0 8.54h15v2.562H0z"/></g></g></g></symbol><symbol viewBox="0 0 10 10" id="svg-triangle"><title>triangle</title><g id="triangle-Page-1" fill="none" fill-rule="evenodd"><path id="triangle-triangle" fill="#E67E22" transform="rotate(90 5 5)" d="M5 0l5 10H0z"/></g></symbol></svg>