<svg version="1" xmlns="http://www.w3.org/2000/svg" width="933.333" height="933.333" viewBox="0 0 700.000000 700.000000"><path d="M329.8.5c-.2.1-4.1.5-8.8.9-10 .7-22.5 2.2-29.5 3.6-2.7.5-6.1 1.2-7.5 1.4-43.1 7.9-90.8 27.3-127.5 51.9-6.9 4.6-29.7 21.7-30.5 22.8-.3.3-2.5 2.3-5 4.4-8.5 7-21.6 20.1-36.1 36.1-20.9 23-45.2 62.5-58.5 95.2-6.2 15.1-14.6 41.1-16.9 52-.2.9-.8 3.7-1.4 6.2-1.1 4.9-1.3 6.3-3.5 19.5-3.4 20.4-4 30.2-4 57 0 23.3 1.1 37.8 3.9 54.5.6 3.2 2.4 12.9 2.9 15.5 4.8 24.4 15.6 56.2 27.3 80.2 44.9 92.8 127.9 161.1 227 186.8 7.2 1.9 14.2 3.6 15.5 3.9 1.3.2 5 .9 8.3 1.5 3.3.6 7.1 1.3 8.5 1.6 1.4.3 5.2.8 8.5 1.1 3.3.3 6.3.8 6.6.9 1.5 1 22.7 2 40.9 2 18.8 0 34.1-.8 43-2.1 14.4-2.1 29.5-4.8 34.5-6.1 3.3-.8 6.7-1.6 7.5-1.8 10.9-2.2 38.8-11.7 54.9-18.7 12.1-5.3 30.8-14.8 35.3-17.9 1.4-1.1 2.9-1.9 3.3-1.9 2.4 0 38.3-25.7 49.5-35.5 11.9-10.4 29.4-27.9 36.5-36.5 2.1-2.5 4.1-4.7 4.4-5 .4-.3 4.5-5.5 9.1-11.5 33.2-43.6 54.7-91.5 65.4-145.6 1.4-7 2.8-15.5 3.2-19 .3-3.5.8-6.7 1-7 .9-1.7 1.9-21.4 1.8-39.9 0-18.8-.6-33.1-1.9-42-.3-1.9-.7-5.6-1-8.1-.3-2.5-.7-5.4-.9-6.5-.2-1-1.1-6-2.1-10.9-8.5-45.6-27.6-91.5-54.3-130.5-5.6-8.2-19.4-26.5-21.1-28-.3-.3-3.5-3.8-7-7.8C563.2 62.5 494.7 22.8 422.3 7.6c-9.9-2.1-24.4-4.4-39.3-6.1-5.5-.7-52.6-1.6-53.2-1zm-50.5 242.9c20.3 4.7 36 17.8 41.6 34.9 4.7 14 3.6 26.8-3.4 41.2-14.7 30.2-41.8 52.2-79.8 64.6-6.5 2.2-12.4 3.9-13.2 3.9-2.3 0-1.9 1.2 2.5 7.3 7.3 10.1 13.9 13.2 28 13.1 10-.1 16.3-1.2 28.9-5.4 17.1-5.5 36-14.5 50.2-23.6 3.6-2.3 38.2-28.4 43.9-33.1.8-.7 8.7-6.9 17.5-13.8 8.8-7 16.9-13.4 18-14.3 1.1-.9 4-3.2 6.5-5.1 4.9-3.8 7.1-5.7 5.5-4.9-.5.3-3 1.5-5.5 2.6s-13.9 6.6-25.5 12.2c-11.5 5.6-22.7 10.8-24.9 11.6-8.2 3-13.8 1.1-22.2-7.4-7.1-7.2-10.5-13.2-10.7-18.7-.3-7.2 4.1-10.3 25.3-18.2 5.2-2 10.6-4 12-4.6 1.4-.6 3-1.1 3.5-1.3 2.8-.8 60.2-20.7 68-23.6 7.8-2.8 10.2-3.3 18.5-3.3 8.6 0 10 .3 14.1 2.7 10.1 6 21 17.1 24.8 25.3 3.4 7.4 4.1 10.7 4.2 20 .2 12.4-1.4 20.9-10 53-10.1 37.3-11.4 42.1-13.8 47.1-4.8 10.2-12.4 14.8-20.1 12.3-3.6-1.2-14.2-10.3-14.2-12.1 0-.6-.8-2.2-1.8-3.6-2.7-4-4.8-10.2-4.6-14.2 0-2.7 12.5-49.9 15-57 .3-.8-2.8 1.7-6.8 5.5-6.7 6.4-15 14.2-21.8 20.5-1.4 1.4-5.8 5.4-9.6 9-3.8 3.6-10.7 9.9-15.3 14-4.6 4.1-8.9 8-9.5 8.5-2.4 2.3-13.4 12.1-16.2 14.5-6.9 6-16.1 12.5-33.9 24.2-18.4 12.1-30 18.2-43.5 22.7-3.6 1.2-7.2 2.5-8 2.8-.8.3-1.9.7-2.5.8-.5.2-4.8 1.3-9.5 2.5-4.6 1.2-11.6 2.2-15.5 2.3-7.4.1-29.6-1.1-33-1.8-1.1-.3-3.3-.7-4.9-.9-4.3-.7-15-4.5-19.8-7C183.4 436 167 412 163.2 383c-.9-6.9-.8-27.4.1-32 4.4-21.1 16.2-51.4 25.5-65.5 6.3-9.5 7.4-10.8 16.7-20 12.8-12.6 30.6-21.7 45.5-23.2 3-.3 5.6-.7 5.8-.8.8-.7 17.1.7 22.5 1.9z"/><path d="M259.5 285.7c-7.5 1.7-15.7 7.2-20.7 13.8-2.1 2.7-5.6 9.3-7.9 14.5-2.2 5.2-4.7 10.8-5.4 12.5-3.8 8.5-6.6 26.2-4.5 27.5 1.7 1 11.3-.8 18.5-3.5 20-7.5 41.9-28.2 44.4-41.8.8-4.7-1.1-14.8-3.5-18.4-3.7-5.7-10-7.1-20.9-4.6zM468.3 288.2c-1.3 1.6-2.7 8.6-1.5 7.3 1.1-1.2 3.3-7.7 2.8-8.2-.2-.2-.8.2-1.3.9z"/></svg>